<svg version="1.1" xmlns="http://www.w3.org/2000/svg" viewBox="0 0 1280.2827242864626 1142.4818283827537" width="1280.2827242864626" height="1142.4818283827537">
  <!-- svg-source:excalidraw -->
  
  <defs>
    <style class="style-fonts">
      @font-face {
        font-family: "Virgil";
        src: url("https://excalidraw.com/Virgil.woff2");
      }
      @font-face {
        font-family: "Cascadia";
        src: url("https://excalidraw.com/Cascadia.woff2");
      }
      @font-face {
        font-family: "Assistant";
        src: url("https://excalidraw.com/Assistant-Regular.woff2");
      }
    </style>
    
  </defs>
  <rect x="0" y="0" width="1280.2827242864626" height="1142.4818283827537" fill="#ffffff"></rect><g stroke-linecap="round" transform="translate(608.7142857142856 758.5351428946243) rotate(0 135 161.5)"><path d="M32 0 C92.27 2.15, 149.78 2.51, 238 0 M32 0 C113.57 0.79, 193.54 0.66, 238 0 M238 0 C258.61 -1, 270.28 10.47, 270 32 M238 0 C259.34 -0.47, 270.67 9.83, 270 32 M270 32 C269.66 112.28, 268.28 195.6, 270 291 M270 32 C270.78 105.27, 269.77 177.13, 270 291 M270 291 C270.7 312.13, 260.79 323.13, 238 323 M270 291 C272.05 312.86, 257.25 323.21, 238 323 M238 323 C179.41 321.58, 123.75 321.61, 32 323 M238 323 C164.54 322.04, 90.12 321.85, 32 323 M32 323 C9.84 324.76, 0.46 313.65, 0 291 M32 323 C12.91 322.64, 1.47 312.4, 0 291 M0 291 C1.06 204.8, -0.65 117.14, 0 32 M0 291 C2.17 212.9, 1.59 136.56, 0 32 M0 32 C1.33 11.25, 11.52 -0.03, 32 0 M0 32 C-0.86 11.36, 8.4 -1.54, 32 0" stroke="#1e1e1e" stroke-width="2" fill="none"></path></g><g transform="translate(674.4243610927035 763.5351428946243) rotate(0 69.28992462158203 12.5)"><text x="69.28992462158203" y="17.52" font-family="Virgil, Segoe UI Emoji" font-size="20px" fill="#1e1e1e" text-anchor="middle" style="white-space: pre;" direction="ltr" dominant-baseline="alphabetic">postgres dbms</text></g><g stroke-linecap="round"><g transform="translate(662.5960668108617 821.6874154558243) rotate(0 19.105032139548257 18.043131176733084)" fill-rule="evenodd"><path d="M0 0 C0 5.1, -0.11 24.58, 0 30.61 C0.11 36.63, -0.21 34.88, 0.67 36.14 C1.55 37.4, 3.35 37.57, 5.26 38.17 C7.18 38.78, 9.78 39.44, 12.15 39.78 C14.52 40.12, 17.22 40.2, 19.49 40.2 C21.75 40.2, 23.73 40.02, 25.75 39.78 C27.78 39.54, 29.67 39.4, 31.63 38.76 C33.59 38.12, 36.45 37.28, 37.49 35.92 C38.54 34.56, 37.77 35.9, 37.89 30.61 C38.01 25.31, 38.24 9.29, 38.21 4.17 C38.18 -0.95, 38.6 0.97, 37.73 -0.13 C36.86 -1.23, 34.66 -1.83, 32.98 -2.43 C31.3 -3.03, 29.69 -3.45, 27.65 -3.73 C25.6 -4.01, 22.61 -4.05, 20.72 -4.11 C18.83 -4.17, 18.61 -4.24, 16.32 -4.1 C14.03 -3.96, 9.67 -3.96, 6.95 -3.27 C4.23 -2.59, 1.16 -0.55, 0 0" stroke="none" stroke-width="0" fill="#ffc9c9" fill-rule="evenodd"></path><path d="M0 0 C0 5.1, -0.11 24.58, 0 30.61 C0.11 36.63, -0.21 34.88, 0.67 36.14 C1.55 37.4, 3.35 37.57, 5.26 38.17 C7.18 38.78, 9.78 39.44, 12.15 39.78 C14.52 40.12, 17.22 40.2, 19.49 40.2 C21.75 40.2, 23.73 40.02, 25.75 39.78 C27.78 39.54, 29.67 39.4, 31.63 38.76 C33.59 38.12, 36.45 37.28, 37.49 35.92 C38.54 34.56, 37.77 35.9, 37.89 30.61 C38.01 25.31, 38.24 9.29, 38.21 4.17 C38.18 -0.95, 38.6 0.97, 37.73 -0.13 C36.86 -1.23, 34.66 -1.83, 32.98 -2.43 C31.3 -3.03, 29.69 -3.45, 27.65 -3.73 C25.6 -4.01, 22.61 -4.05, 20.72 -4.11 C18.83 -4.17, 18.61 -4.24, 16.32 -4.1 C14.03 -3.96, 9.67 -3.96, 6.95 -3.27 C4.23 -2.59, 1.16 -0.55, 0 0 M0 0 C0 5.1, -0.11 24.58, 0 30.61 C0.11 36.63, -0.21 34.88, 0.67 36.14 C1.55 37.4, 3.35 37.57, 5.26 38.17 C7.18 38.78, 9.78 39.44, 12.15 39.78 C14.52 40.12, 17.22 40.2, 19.49 40.2 C21.75 40.2, 23.73 40.02, 25.75 39.78 C27.78 39.54, 29.67 39.4, 31.63 38.76 C33.59 38.12, 36.45 37.28, 37.49 35.92 C38.54 34.56, 37.77 35.9, 37.89 30.61 C38.01 25.31, 38.24 9.29, 38.21 4.17 C38.18 -0.95, 38.6 0.97, 37.73 -0.13 C36.86 -1.23, 34.66 -1.83, 32.98 -2.43 C31.3 -3.03, 29.69 -3.45, 27.65 -3.73 C25.6 -4.01, 22.61 -4.05, 20.72 -4.11 C18.83 -4.17, 18.61 -4.24, 16.32 -4.1 C14.03 -3.96, 9.67 -3.96, 6.95 -3.27 C4.23 -2.59, 1.16 -0.55, 0 0" stroke="#c92a2a" stroke-width="1" fill="none"></path></g></g><mask></mask><g stroke-linecap="round" transform="translate(662.7123660165214 817.0028582822814) rotate(0 19.071205882003255 5.18536321471197)"><path d="M38.14 5.19 C38.14 5.49, 38.04 5.79, 37.85 6.09 C37.66 6.38, 37.37 6.68, 36.99 6.96 C36.61 7.24, 36.14 7.52, 35.59 7.78 C35.04 8.04, 34.39 8.29, 33.68 8.52 C32.97 8.75, 32.18 8.96, 31.33 9.16 C30.48 9.35, 29.56 9.53, 28.61 9.68 C27.65 9.83, 26.63 9.96, 25.59 10.06 C24.56 10.16, 23.47 10.24, 22.38 10.29 C21.3 10.34, 20.18 10.37, 19.07 10.37 C17.97 10.37, 16.85 10.34, 15.76 10.29 C14.67 10.24, 13.59 10.16, 12.55 10.06 C11.51 9.96, 10.49 9.83, 9.54 9.68 C8.58 9.53, 7.66 9.35, 6.81 9.16 C5.97 8.96, 5.17 8.75, 4.46 8.52 C3.75 8.29, 3.11 8.04, 2.56 7.78 C2 7.52, 1.53 7.24, 1.15 6.96 C0.77 6.68, 0.48 6.38, 0.29 6.09 C0.1 5.79, 0 5.49, 0 5.19 C0 4.89, 0.1 4.58, 0.29 4.28 C0.48 3.99, 0.77 3.69, 1.15 3.41 C1.53 3.13, 2 2.85, 2.56 2.59 C3.11 2.33, 3.75 2.08, 4.46 1.85 C5.17 1.62, 5.97 1.41, 6.81 1.21 C7.66 1.02, 8.58 0.84, 9.54 0.69 C10.49 0.54, 11.51 0.42, 12.55 0.31 C13.59 0.21, 14.67 0.13, 15.76 0.08 C16.85 0.03, 17.97 0, 19.07 0 C20.18 0, 21.3 0.03, 22.38 0.08 C23.47 0.13, 24.56 0.21, 25.59 0.31 C26.63 0.42, 27.65 0.54, 28.61 0.69 C29.56 0.84, 30.48 1.02, 31.33 1.21 C32.18 1.41, 32.97 1.62, 33.68 1.85 C34.39 2.08, 35.04 2.33, 35.59 2.59 C36.14 2.85, 36.61 3.13, 36.99 3.41 C37.37 3.69, 37.66 3.99, 37.85 4.28 C38.04 4.58, 38.09 5.04, 38.14 5.19 C38.19 5.34, 38.19 5.04, 38.14 5.19" stroke="none" stroke-width="0" fill="#ffc9c9"></path><path d="M38.14 5.19 C38.14 5.49, 38.04 5.79, 37.85 6.09 C37.66 6.38, 37.37 6.68, 36.99 6.96 C36.61 7.24, 36.14 7.52, 35.59 7.78 C35.04 8.04, 34.39 8.29, 33.68 8.52 C32.97 8.75, 32.18 8.96, 31.33 9.16 C30.48 9.35, 29.56 9.53, 28.61 9.68 C27.65 9.83, 26.63 9.96, 25.59 10.06 C24.56 10.16, 23.47 10.24, 22.38 10.29 C21.3 10.34, 20.18 10.37, 19.07 10.37 C17.97 10.37, 16.85 10.34, 15.76 10.29 C14.67 10.24, 13.59 10.16, 12.55 10.06 C11.51 9.96, 10.49 9.83, 9.54 9.68 C8.58 9.53, 7.66 9.35, 6.81 9.16 C5.97 8.96, 5.17 8.75, 4.46 8.52 C3.75 8.29, 3.11 8.04, 2.56 7.78 C2 7.52, 1.53 7.24, 1.15 6.96 C0.77 6.68, 0.48 6.38, 0.29 6.09 C0.1 5.79, 0 5.49, 0 5.19 C0 4.89, 0.1 4.58, 0.29 4.28 C0.48 3.99, 0.77 3.69, 1.15 3.41 C1.53 3.13, 2 2.85, 2.56 2.59 C3.11 2.33, 3.75 2.08, 4.46 1.85 C5.17 1.62, 5.97 1.41, 6.81 1.21 C7.66 1.02, 8.58 0.84, 9.54 0.69 C10.49 0.54, 11.51 0.42, 12.55 0.31 C13.59 0.21, 14.67 0.13, 15.76 0.08 C16.85 0.03, 17.97 0, 19.07 0 C20.18 0, 21.3 0.03, 22.38 0.08 C23.47 0.13, 24.56 0.21, 25.59 0.31 C26.63 0.42, 27.65 0.54, 28.61 0.69 C29.56 0.84, 30.48 1.02, 31.33 1.21 C32.18 1.41, 32.97 1.62, 33.68 1.85 C34.39 2.08, 35.04 2.33, 35.59 2.59 C36.14 2.85, 36.61 3.13, 36.99 3.41 C37.37 3.69, 37.66 3.99, 37.85 4.28 C38.04 4.58, 38.09 5.04, 38.14 5.19 C38.19 5.34, 38.19 5.04, 38.14 5.19" stroke="#c92a2a" stroke-width="1" fill="none"></path></g><g stroke-linecap="round"><g transform="translate(663.5960668108617 880.6874154558243) rotate(0 19.105032139548257 18.043131176733084)" fill-rule="evenodd"><path d="M0 0 C0 5.1, -0.11 24.58, 0 30.61 C0.11 36.63, -0.21 34.88, 0.67 36.14 C1.55 37.4, 3.35 37.57, 5.26 38.17 C7.18 38.78, 9.78 39.44, 12.15 39.78 C14.52 40.12, 17.22 40.2, 19.49 40.2 C21.75 40.2, 23.73 40.02, 25.75 39.78 C27.78 39.54, 29.67 39.4, 31.63 38.76 C33.59 38.12, 36.45 37.28, 37.49 35.92 C38.54 34.56, 37.77 35.9, 37.89 30.61 C38.01 25.31, 38.24 9.29, 38.21 4.17 C38.18 -0.95, 38.6 0.97, 37.73 -0.13 C36.86 -1.23, 34.66 -1.83, 32.98 -2.43 C31.3 -3.03, 29.69 -3.45, 27.65 -3.73 C25.6 -4.01, 22.61 -4.05, 20.72 -4.11 C18.83 -4.17, 18.61 -4.24, 16.32 -4.1 C14.03 -3.96, 9.67 -3.96, 6.95 -3.27 C4.23 -2.59, 1.16 -0.55, 0 0" stroke="none" stroke-width="0" fill="#ffc9c9" fill-rule="evenodd"></path><path d="M0 0 C0 5.1, -0.11 24.58, 0 30.61 C0.11 36.63, -0.21 34.88, 0.67 36.14 C1.55 37.4, 3.35 37.57, 5.26 38.17 C7.18 38.78, 9.78 39.44, 12.15 39.78 C14.52 40.12, 17.22 40.2, 19.49 40.2 C21.75 40.2, 23.73 40.02, 25.75 39.78 C27.78 39.54, 29.67 39.4, 31.63 38.76 C33.59 38.12, 36.45 37.28, 37.49 35.92 C38.54 34.56, 37.77 35.9, 37.89 30.61 C38.01 25.31, 38.24 9.29, 38.21 4.17 C38.18 -0.95, 38.6 0.97, 37.73 -0.13 C36.86 -1.23, 34.66 -1.83, 32.98 -2.43 C31.3 -3.03, 29.69 -3.45, 27.65 -3.73 C25.6 -4.01, 22.61 -4.05, 20.72 -4.11 C18.83 -4.17, 18.61 -4.24, 16.32 -4.1 C14.03 -3.96, 9.67 -3.96, 6.95 -3.27 C4.23 -2.59, 1.16 -0.55, 0 0 M0 0 C0 5.1, -0.11 24.58, 0 30.61 C0.11 36.63, -0.21 34.88, 0.67 36.14 C1.55 37.4, 3.35 37.57, 5.26 38.17 C7.18 38.78, 9.78 39.44, 12.15 39.78 C14.52 40.12, 17.22 40.2, 19.49 40.2 C21.75 40.2, 23.73 40.02, 25.75 39.78 C27.78 39.54, 29.67 39.4, 31.63 38.76 C33.59 38.12, 36.45 37.28, 37.49 35.92 C38.54 34.56, 37.77 35.9, 37.89 30.61 C38.01 25.31, 38.24 9.29, 38.21 4.17 C38.18 -0.95, 38.6 0.97, 37.73 -0.13 C36.86 -1.23, 34.66 -1.83, 32.98 -2.43 C31.3 -3.03, 29.69 -3.45, 27.65 -3.73 C25.6 -4.01, 22.61 -4.05, 20.72 -4.11 C18.83 -4.17, 18.61 -4.24, 16.32 -4.1 C14.03 -3.96, 9.67 -3.96, 6.95 -3.27 C4.23 -2.59, 1.16 -0.55, 0 0" stroke="#c92a2a" stroke-width="1" fill="none"></path></g></g><mask></mask><g stroke-linecap="round" transform="translate(663.7123660165214 876.0028582822814) rotate(0 19.071205882003255 5.18536321471197)"><path d="M38.14 5.19 C38.14 5.49, 38.04 5.79, 37.85 6.09 C37.66 6.38, 37.37 6.68, 36.99 6.96 C36.61 7.24, 36.14 7.52, 35.59 7.78 C35.04 8.04, 34.39 8.29, 33.68 8.52 C32.97 8.75, 32.18 8.96, 31.33 9.16 C30.48 9.35, 29.56 9.53, 28.61 9.68 C27.65 9.83, 26.63 9.96, 25.59 10.06 C24.56 10.16, 23.47 10.24, 22.38 10.29 C21.3 10.34, 20.18 10.37, 19.07 10.37 C17.97 10.37, 16.85 10.34, 15.76 10.29 C14.67 10.24, 13.59 10.16, 12.55 10.06 C11.51 9.96, 10.49 9.83, 9.54 9.68 C8.58 9.53, 7.66 9.35, 6.81 9.16 C5.97 8.96, 5.17 8.75, 4.46 8.52 C3.75 8.29, 3.11 8.04, 2.56 7.78 C2 7.52, 1.53 7.24, 1.15 6.96 C0.77 6.68, 0.48 6.38, 0.29 6.09 C0.1 5.79, 0 5.49, 0 5.19 C0 4.89, 0.1 4.58, 0.29 4.28 C0.48 3.99, 0.77 3.69, 1.15 3.41 C1.53 3.13, 2 2.85, 2.56 2.59 C3.11 2.33, 3.75 2.08, 4.46 1.85 C5.17 1.62, 5.97 1.41, 6.81 1.21 C7.66 1.02, 8.58 0.84, 9.54 0.69 C10.49 0.54, 11.51 0.42, 12.55 0.31 C13.59 0.21, 14.67 0.13, 15.76 0.08 C16.85 0.03, 17.97 0, 19.07 0 C20.18 0, 21.3 0.03, 22.38 0.08 C23.47 0.13, 24.56 0.21, 25.59 0.31 C26.63 0.42, 27.65 0.54, 28.61 0.69 C29.56 0.84, 30.48 1.02, 31.33 1.21 C32.18 1.41, 32.97 1.62, 33.68 1.85 C34.39 2.08, 35.04 2.33, 35.59 2.59 C36.14 2.85, 36.61 3.13, 36.99 3.41 C37.37 3.69, 37.66 3.99, 37.85 4.28 C38.04 4.58, 38.09 5.04, 38.14 5.19 C38.19 5.34, 38.19 5.04, 38.14 5.19" stroke="none" stroke-width="0" fill="#ffc9c9"></path><path d="M38.14 5.19 C38.14 5.49, 38.04 5.79, 37.85 6.09 C37.66 6.38, 37.37 6.68, 36.99 6.96 C36.61 7.24, 36.14 7.52, 35.59 7.78 C35.04 8.04, 34.39 8.29, 33.68 8.52 C32.97 8.75, 32.18 8.96, 31.33 9.16 C30.48 9.35, 29.56 9.53, 28.61 9.68 C27.65 9.83, 26.63 9.96, 25.59 10.06 C24.56 10.16, 23.47 10.24, 22.38 10.29 C21.3 10.34, 20.18 10.37, 19.07 10.37 C17.97 10.37, 16.85 10.34, 15.76 10.29 C14.67 10.24, 13.59 10.16, 12.55 10.06 C11.51 9.96, 10.49 9.83, 9.54 9.68 C8.58 9.53, 7.66 9.35, 6.81 9.16 C5.97 8.96, 5.17 8.75, 4.46 8.52 C3.75 8.29, 3.11 8.04, 2.56 7.78 C2 7.52, 1.53 7.24, 1.15 6.96 C0.77 6.68, 0.48 6.38, 0.29 6.09 C0.1 5.79, 0 5.49, 0 5.19 C0 4.89, 0.1 4.58, 0.29 4.28 C0.48 3.99, 0.77 3.69, 1.15 3.41 C1.53 3.13, 2 2.85, 2.56 2.59 C3.11 2.33, 3.75 2.08, 4.46 1.85 C5.17 1.62, 5.97 1.41, 6.81 1.21 C7.66 1.02, 8.58 0.84, 9.54 0.69 C10.49 0.54, 11.51 0.42, 12.55 0.31 C13.59 0.21, 14.67 0.13, 15.76 0.08 C16.85 0.03, 17.97 0, 19.07 0 C20.18 0, 21.3 0.03, 22.38 0.08 C23.47 0.13, 24.56 0.21, 25.59 0.31 C26.63 0.42, 27.65 0.54, 28.61 0.69 C29.56 0.84, 30.48 1.02, 31.33 1.21 C32.18 1.41, 32.97 1.62, 33.68 1.85 C34.39 2.08, 35.04 2.33, 35.59 2.59 C36.14 2.85, 36.61 3.13, 36.99 3.41 C37.37 3.69, 37.66 3.99, 37.85 4.28 C38.04 4.58, 38.09 5.04, 38.14 5.19 C38.19 5.34, 38.19 5.04, 38.14 5.19" stroke="#c92a2a" stroke-width="1" fill="none"></path></g><g stroke-linecap="round"><g transform="translate(663.0960668108617 941.4374154558243) rotate(0 19.105032139548257 18.043131176733084)" fill-rule="evenodd"><path d="M0 0 C0 5.1, -0.11 24.58, 0 30.61 C0.11 36.63, -0.21 34.88, 0.67 36.14 C1.55 37.4, 3.35 37.57, 5.26 38.17 C7.18 38.78, 9.78 39.44, 12.15 39.78 C14.52 40.12, 17.22 40.2, 19.49 40.2 C21.75 40.2, 23.73 40.02, 25.75 39.78 C27.78 39.54, 29.67 39.4, 31.63 38.76 C33.59 38.12, 36.45 37.28, 37.49 35.92 C38.54 34.56, 37.77 35.9, 37.89 30.61 C38.01 25.31, 38.24 9.29, 38.21 4.17 C38.18 -0.95, 38.6 0.97, 37.73 -0.13 C36.86 -1.23, 34.66 -1.83, 32.98 -2.43 C31.3 -3.03, 29.69 -3.45, 27.65 -3.73 C25.6 -4.01, 22.61 -4.05, 20.72 -4.11 C18.83 -4.17, 18.61 -4.24, 16.32 -4.1 C14.03 -3.96, 9.67 -3.96, 6.95 -3.27 C4.23 -2.59, 1.16 -0.55, 0 0" stroke="none" stroke-width="0" fill="#ffc9c9" fill-rule="evenodd"></path><path d="M0 0 C0 5.1, -0.11 24.58, 0 30.61 C0.11 36.63, -0.21 34.88, 0.67 36.14 C1.55 37.4, 3.35 37.57, 5.26 38.17 C7.18 38.78, 9.78 39.44, 12.15 39.78 C14.52 40.12, 17.22 40.2, 19.49 40.2 C21.75 40.2, 23.73 40.02, 25.75 39.78 C27.78 39.54, 29.67 39.4, 31.63 38.76 C33.59 38.12, 36.45 37.28, 37.49 35.92 C38.54 34.56, 37.77 35.9, 37.89 30.61 C38.01 25.31, 38.24 9.29, 38.21 4.17 C38.18 -0.95, 38.6 0.97, 37.73 -0.13 C36.86 -1.23, 34.66 -1.83, 32.98 -2.43 C31.3 -3.03, 29.69 -3.45, 27.65 -3.73 C25.6 -4.01, 22.61 -4.05, 20.72 -4.11 C18.83 -4.17, 18.61 -4.24, 16.32 -4.1 C14.03 -3.96, 9.67 -3.96, 6.95 -3.27 C4.23 -2.59, 1.16 -0.55, 0 0 M0 0 C0 5.1, -0.11 24.58, 0 30.61 C0.11 36.63, -0.21 34.88, 0.67 36.14 C1.55 37.4, 3.35 37.57, 5.26 38.17 C7.18 38.78, 9.78 39.44, 12.15 39.78 C14.52 40.12, 17.22 40.2, 19.49 40.2 C21.75 40.2, 23.73 40.02, 25.75 39.78 C27.78 39.54, 29.67 39.4, 31.63 38.76 C33.59 38.12, 36.45 37.28, 37.49 35.92 C38.54 34.56, 37.77 35.9, 37.89 30.61 C38.01 25.31, 38.24 9.29, 38.21 4.17 C38.18 -0.95, 38.6 0.97, 37.73 -0.13 C36.86 -1.23, 34.66 -1.83, 32.98 -2.43 C31.3 -3.03, 29.69 -3.45, 27.65 -3.73 C25.6 -4.01, 22.61 -4.05, 20.72 -4.11 C18.83 -4.17, 18.61 -4.24, 16.32 -4.1 C14.03 -3.96, 9.67 -3.96, 6.95 -3.27 C4.23 -2.59, 1.16 -0.55, 0 0" stroke="#c92a2a" stroke-width="1" fill="none"></path></g></g><mask></mask><g stroke-linecap="round" transform="translate(663.2123660165214 936.7528582822814) rotate(0 19.071205882003255 5.18536321471197)"><path d="M38.14 5.19 C38.14 5.49, 38.04 5.79, 37.85 6.09 C37.66 6.38, 37.37 6.68, 36.99 6.96 C36.61 7.24, 36.14 7.52, 35.59 7.78 C35.04 8.04, 34.39 8.29, 33.68 8.52 C32.97 8.75, 32.18 8.96, 31.33 9.16 C30.48 9.35, 29.56 9.53, 28.61 9.68 C27.65 9.83, 26.63 9.96, 25.59 10.06 C24.56 10.16, 23.47 10.24, 22.38 10.29 C21.3 10.34, 20.18 10.37, 19.07 10.37 C17.97 10.37, 16.85 10.34, 15.76 10.29 C14.67 10.24, 13.59 10.16, 12.55 10.06 C11.51 9.96, 10.49 9.83, 9.54 9.68 C8.58 9.53, 7.66 9.35, 6.81 9.16 C5.97 8.96, 5.17 8.75, 4.46 8.52 C3.75 8.29, 3.11 8.04, 2.56 7.78 C2 7.52, 1.53 7.24, 1.15 6.96 C0.77 6.68, 0.48 6.38, 0.29 6.09 C0.1 5.79, 0 5.49, 0 5.19 C0 4.89, 0.1 4.58, 0.29 4.28 C0.48 3.99, 0.77 3.69, 1.15 3.41 C1.53 3.13, 2 2.85, 2.56 2.59 C3.11 2.33, 3.75 2.08, 4.46 1.85 C5.17 1.62, 5.97 1.41, 6.81 1.21 C7.66 1.02, 8.58 0.84, 9.54 0.69 C10.49 0.54, 11.51 0.42, 12.55 0.31 C13.59 0.21, 14.67 0.13, 15.76 0.08 C16.85 0.03, 17.97 0, 19.07 0 C20.18 0, 21.3 0.03, 22.38 0.08 C23.47 0.13, 24.56 0.21, 25.59 0.31 C26.63 0.42, 27.65 0.54, 28.61 0.69 C29.56 0.84, 30.48 1.02, 31.33 1.21 C32.18 1.41, 32.97 1.62, 33.68 1.85 C34.39 2.08, 35.04 2.33, 35.59 2.59 C36.14 2.85, 36.61 3.13, 36.99 3.41 C37.37 3.69, 37.66 3.99, 37.85 4.28 C38.04 4.58, 38.09 5.04, 38.14 5.19 C38.19 5.34, 38.19 5.04, 38.14 5.19" stroke="none" stroke-width="0" fill="#ffc9c9"></path><path d="M38.14 5.19 C38.14 5.49, 38.04 5.79, 37.85 6.09 C37.66 6.38, 37.37 6.68, 36.99 6.96 C36.61 7.24, 36.14 7.52, 35.59 7.78 C35.04 8.04, 34.39 8.29, 33.68 8.52 C32.97 8.75, 32.18 8.96, 31.33 9.16 C30.48 9.35, 29.56 9.53, 28.61 9.68 C27.65 9.83, 26.63 9.96, 25.59 10.06 C24.56 10.16, 23.47 10.24, 22.38 10.29 C21.3 10.34, 20.18 10.37, 19.07 10.37 C17.97 10.37, 16.85 10.34, 15.76 10.29 C14.67 10.24, 13.59 10.16, 12.55 10.06 C11.51 9.96, 10.49 9.83, 9.54 9.68 C8.58 9.53, 7.66 9.35, 6.81 9.16 C5.97 8.96, 5.17 8.75, 4.46 8.52 C3.75 8.29, 3.11 8.04, 2.56 7.78 C2 7.52, 1.53 7.24, 1.15 6.96 C0.77 6.68, 0.48 6.38, 0.29 6.09 C0.1 5.79, 0 5.49, 0 5.19 C0 4.89, 0.1 4.58, 0.29 4.28 C0.48 3.99, 0.77 3.69, 1.15 3.41 C1.53 3.13, 2 2.85, 2.56 2.59 C3.11 2.33, 3.75 2.08, 4.46 1.85 C5.17 1.62, 5.97 1.41, 6.81 1.21 C7.66 1.02, 8.58 0.84, 9.54 0.69 C10.49 0.54, 11.51 0.42, 12.55 0.31 C13.59 0.21, 14.67 0.13, 15.76 0.08 C16.85 0.03, 17.97 0, 19.07 0 C20.18 0, 21.3 0.03, 22.38 0.08 C23.47 0.13, 24.56 0.21, 25.59 0.31 C26.63 0.42, 27.65 0.54, 28.61 0.69 C29.56 0.84, 30.48 1.02, 31.33 1.21 C32.18 1.41, 32.97 1.62, 33.68 1.85 C34.39 2.08, 35.04 2.33, 35.59 2.59 C36.14 2.85, 36.61 3.13, 36.99 3.41 C37.37 3.69, 37.66 3.99, 37.85 4.28 C38.04 4.58, 38.09 5.04, 38.14 5.19 C38.19 5.34, 38.19 5.04, 38.14 5.19" stroke="#c92a2a" stroke-width="1" fill="none"></path></g><g stroke-linecap="round"><g transform="translate(662.5960668108617 1002.1874154558243) rotate(0 19.105032139548257 18.043131176733084)" fill-rule="evenodd"><path d="M0 0 C0 5.1, -0.11 24.58, 0 30.61 C0.11 36.63, -0.21 34.88, 0.67 36.14 C1.55 37.4, 3.35 37.57, 5.26 38.17 C7.18 38.78, 9.78 39.44, 12.15 39.78 C14.52 40.12, 17.22 40.2, 19.49 40.2 C21.75 40.2, 23.73 40.02, 25.75 39.78 C27.78 39.54, 29.67 39.4, 31.63 38.76 C33.59 38.12, 36.45 37.28, 37.49 35.92 C38.54 34.56, 37.77 35.9, 37.89 30.61 C38.01 25.31, 38.24 9.29, 38.21 4.17 C38.18 -0.95, 38.6 0.97, 37.73 -0.13 C36.86 -1.23, 34.66 -1.83, 32.98 -2.43 C31.3 -3.03, 29.69 -3.45, 27.65 -3.73 C25.6 -4.01, 22.61 -4.05, 20.72 -4.11 C18.83 -4.17, 18.61 -4.24, 16.32 -4.1 C14.03 -3.96, 9.67 -3.96, 6.95 -3.27 C4.23 -2.59, 1.16 -0.55, 0 0" stroke="none" stroke-width="0" fill="#ffc9c9" fill-rule="evenodd"></path><path d="M0 0 C0 5.1, -0.11 24.58, 0 30.61 C0.11 36.63, -0.21 34.88, 0.67 36.14 C1.55 37.4, 3.35 37.57, 5.26 38.17 C7.18 38.78, 9.78 39.44, 12.15 39.78 C14.52 40.12, 17.22 40.2, 19.49 40.2 C21.75 40.2, 23.73 40.02, 25.75 39.78 C27.78 39.54, 29.67 39.4, 31.63 38.76 C33.59 38.12, 36.45 37.28, 37.49 35.92 C38.54 34.56, 37.77 35.9, 37.89 30.61 C38.01 25.31, 38.24 9.29, 38.21 4.17 C38.18 -0.95, 38.6 0.97, 37.73 -0.13 C36.86 -1.23, 34.66 -1.83, 32.98 -2.43 C31.3 -3.03, 29.69 -3.45, 27.65 -3.73 C25.6 -4.01, 22.61 -4.05, 20.72 -4.11 C18.83 -4.17, 18.61 -4.24, 16.32 -4.1 C14.03 -3.96, 9.67 -3.96, 6.95 -3.27 C4.23 -2.59, 1.16 -0.55, 0 0 M0 0 C0 5.1, -0.11 24.58, 0 30.61 C0.11 36.63, -0.21 34.88, 0.67 36.14 C1.55 37.4, 3.35 37.57, 5.26 38.17 C7.18 38.78, 9.78 39.44, 12.15 39.78 C14.52 40.12, 17.22 40.2, 19.49 40.2 C21.75 40.2, 23.73 40.02, 25.75 39.78 C27.78 39.54, 29.67 39.4, 31.63 38.76 C33.59 38.12, 36.45 37.28, 37.49 35.92 C38.54 34.56, 37.77 35.9, 37.89 30.61 C38.01 25.31, 38.24 9.29, 38.21 4.17 C38.18 -0.95, 38.6 0.97, 37.73 -0.13 C36.86 -1.23, 34.66 -1.83, 32.98 -2.43 C31.3 -3.03, 29.69 -3.45, 27.65 -3.73 C25.6 -4.01, 22.61 -4.05, 20.72 -4.11 C18.83 -4.17, 18.61 -4.24, 16.32 -4.1 C14.03 -3.96, 9.67 -3.96, 6.95 -3.27 C4.23 -2.59, 1.16 -0.55, 0 0" stroke="#c92a2a" stroke-width="1" fill="none"></path></g></g><mask></mask><g stroke-linecap="round" transform="translate(662.7123660165214 997.5028582822814) rotate(0 19.071205882003255 5.18536321471197)"><path d="M38.14 5.19 C38.14 5.49, 38.04 5.79, 37.85 6.09 C37.66 6.38, 37.37 6.68, 36.99 6.96 C36.61 7.24, 36.14 7.52, 35.59 7.78 C35.04 8.04, 34.39 8.29, 33.68 8.52 C32.97 8.75, 32.18 8.96, 31.33 9.16 C30.48 9.35, 29.56 9.53, 28.61 9.68 C27.65 9.83, 26.63 9.96, 25.59 10.06 C24.56 10.16, 23.47 10.24, 22.38 10.29 C21.3 10.34, 20.18 10.37, 19.07 10.37 C17.97 10.37, 16.85 10.34, 15.76 10.29 C14.67 10.24, 13.59 10.16, 12.55 10.06 C11.51 9.96, 10.49 9.83, 9.54 9.68 C8.58 9.53, 7.66 9.35, 6.81 9.16 C5.97 8.96, 5.17 8.75, 4.46 8.52 C3.75 8.29, 3.11 8.04, 2.56 7.78 C2 7.52, 1.53 7.24, 1.15 6.96 C0.77 6.68, 0.48 6.38, 0.29 6.09 C0.1 5.79, 0 5.49, 0 5.19 C0 4.89, 0.1 4.58, 0.29 4.28 C0.48 3.99, 0.77 3.69, 1.15 3.41 C1.53 3.13, 2 2.85, 2.56 2.59 C3.11 2.33, 3.75 2.08, 4.46 1.85 C5.17 1.62, 5.97 1.41, 6.81 1.21 C7.66 1.02, 8.58 0.84, 9.54 0.69 C10.49 0.54, 11.51 0.42, 12.55 0.31 C13.59 0.21, 14.67 0.13, 15.76 0.08 C16.85 0.03, 17.97 0, 19.07 0 C20.18 0, 21.3 0.03, 22.38 0.08 C23.47 0.13, 24.56 0.21, 25.59 0.31 C26.63 0.42, 27.65 0.54, 28.61 0.69 C29.56 0.84, 30.48 1.02, 31.33 1.21 C32.18 1.41, 32.97 1.62, 33.68 1.85 C34.39 2.08, 35.04 2.33, 35.59 2.59 C36.14 2.85, 36.61 3.13, 36.99 3.41 C37.37 3.69, 37.66 3.99, 37.85 4.28 C38.04 4.58, 38.09 5.04, 38.14 5.19 C38.19 5.34, 38.19 5.04, 38.14 5.19" stroke="none" stroke-width="0" fill="#ffc9c9"></path><path d="M38.14 5.19 C38.14 5.49, 38.04 5.79, 37.85 6.09 C37.66 6.38, 37.37 6.68, 36.99 6.96 C36.61 7.24, 36.14 7.52, 35.59 7.78 C35.04 8.04, 34.39 8.29, 33.68 8.52 C32.97 8.75, 32.18 8.96, 31.33 9.16 C30.48 9.35, 29.56 9.53, 28.61 9.68 C27.65 9.83, 26.63 9.96, 25.59 10.06 C24.56 10.16, 23.47 10.24, 22.38 10.29 C21.3 10.34, 20.18 10.37, 19.07 10.37 C17.97 10.37, 16.85 10.34, 15.76 10.29 C14.67 10.24, 13.59 10.16, 12.55 10.06 C11.51 9.96, 10.49 9.83, 9.54 9.68 C8.58 9.53, 7.66 9.35, 6.81 9.16 C5.97 8.96, 5.17 8.75, 4.46 8.52 C3.75 8.29, 3.11 8.04, 2.56 7.78 C2 7.52, 1.53 7.24, 1.15 6.96 C0.77 6.68, 0.48 6.38, 0.29 6.09 C0.1 5.79, 0 5.49, 0 5.19 C0 4.89, 0.1 4.58, 0.29 4.28 C0.48 3.99, 0.77 3.69, 1.15 3.41 C1.53 3.13, 2 2.85, 2.56 2.59 C3.11 2.33, 3.75 2.08, 4.46 1.85 C5.17 1.62, 5.97 1.41, 6.81 1.21 C7.66 1.02, 8.58 0.84, 9.54 0.69 C10.49 0.54, 11.51 0.42, 12.55 0.31 C13.59 0.21, 14.67 0.13, 15.76 0.08 C16.85 0.03, 17.97 0, 19.07 0 C20.18 0, 21.3 0.03, 22.38 0.08 C23.47 0.13, 24.56 0.21, 25.59 0.31 C26.63 0.42, 27.65 0.54, 28.61 0.69 C29.56 0.84, 30.48 1.02, 31.33 1.21 C32.18 1.41, 32.97 1.62, 33.68 1.85 C34.39 2.08, 35.04 2.33, 35.59 2.59 C36.14 2.85, 36.61 3.13, 36.99 3.41 C37.37 3.69, 37.66 3.99, 37.85 4.28 C38.04 4.58, 38.09 5.04, 38.14 5.19 C38.19 5.34, 38.19 5.04, 38.14 5.19" stroke="#c92a2a" stroke-width="1" fill="none"></path></g><g stroke-linecap="round"><g transform="translate(578.642578833915 1054.5814586779754) rotate(0 37.025261068736995 34.9673131893411)" fill-rule="evenodd"><path d="M0 0 C0 9.89, -0.22 47.64, 0 59.31 C0.22 70.99, -0.4 67.59, 1.3 70.04 C3 72.48, 6.5 72.8, 10.2 73.98 C13.91 75.16, 18.95 76.44, 23.54 77.1 C28.13 77.75, 33.37 77.9, 37.76 77.9 C42.16 77.9, 45.99 77.56, 49.91 77.1 C53.83 76.63, 57.51 76.36, 61.3 75.11 C65.09 73.87, 70.64 72.25, 72.66 69.62 C74.68 66.98, 73.2 69.57, 73.43 59.31 C73.67 49.06, 74.1 18.01, 74.05 8.08 C74 -1.85, 74.81 1.87, 73.12 -0.26 C71.43 -2.39, 67.17 -3.54, 63.91 -4.71 C60.66 -5.87, 57.54 -6.68, 53.58 -7.23 C49.62 -7.77, 43.81 -7.85, 40.15 -7.97 C36.49 -8.09, 36.07 -8.21, 31.63 -7.94 C27.18 -7.67, 18.75 -7.67, 13.48 -6.34 C8.21 -5.02, 2.25 -1.06, 0 0" stroke="none" stroke-width="0" fill="#ffc9c9" fill-rule="evenodd"></path><path d="M0 0 C0 9.89, -0.22 47.64, 0 59.31 C0.22 70.99, -0.4 67.59, 1.3 70.04 C3 72.48, 6.5 72.8, 10.2 73.98 C13.91 75.16, 18.95 76.44, 23.54 77.1 C28.13 77.75, 33.37 77.9, 37.76 77.9 C42.16 77.9, 45.99 77.56, 49.91 77.1 C53.83 76.63, 57.51 76.36, 61.3 75.11 C65.09 73.87, 70.64 72.25, 72.66 69.62 C74.68 66.98, 73.2 69.57, 73.43 59.31 C73.67 49.06, 74.1 18.01, 74.05 8.08 C74 -1.85, 74.81 1.87, 73.12 -0.26 C71.43 -2.39, 67.17 -3.54, 63.91 -4.71 C60.66 -5.87, 57.54 -6.68, 53.58 -7.23 C49.62 -7.77, 43.81 -7.85, 40.15 -7.97 C36.49 -8.09, 36.07 -8.21, 31.63 -7.94 C27.18 -7.67, 18.75 -7.67, 13.48 -6.34 C8.21 -5.02, 2.25 -1.06, 0 0 M0 0 C0 9.89, -0.22 47.64, 0 59.31 C0.22 70.99, -0.4 67.59, 1.3 70.04 C3 72.48, 6.5 72.8, 10.2 73.98 C13.91 75.16, 18.95 76.44, 23.54 77.1 C28.13 77.75, 33.37 77.9, 37.76 77.9 C42.16 77.9, 45.99 77.56, 49.91 77.1 C53.83 76.63, 57.51 76.36, 61.3 75.11 C65.09 73.87, 70.64 72.25, 72.66 69.62 C74.68 66.98, 73.2 69.57, 73.43 59.31 C73.67 49.06, 74.1 18.01, 74.05 8.08 C74 -1.85, 74.81 1.87, 73.12 -0.26 C71.43 -2.39, 67.17 -3.54, 63.91 -4.71 C60.66 -5.87, 57.54 -6.68, 53.58 -7.23 C49.62 -7.77, 43.81 -7.85, 40.15 -7.97 C36.49 -8.09, 36.07 -8.21, 31.63 -7.94 C27.18 -7.67, 18.75 -7.67, 13.48 -6.34 C8.21 -5.02, 2.25 -1.06, 0 0" stroke="#c92a2a" stroke-width="1" fill="none"></path></g></g><mask></mask><g stroke-linecap="round" transform="translate(578.8679649217368 1045.5028582822815) rotate(0 36.95970629722791 10.049154869700999)"><path d="M73.92 10.05 C73.92 10.63, 73.73 11.22, 73.36 11.79 C72.99 12.37, 72.42 12.94, 71.69 13.49 C70.96 14.03, 70.04 14.57, 68.97 15.07 C67.9 15.58, 66.65 16.06, 65.27 16.51 C63.9 16.95, 62.36 17.37, 60.72 17.75 C59.08 18.12, 57.29 18.46, 55.44 18.75 C53.59 19.04, 51.61 19.29, 49.6 19.49 C47.59 19.69, 45.48 19.84, 43.38 19.95 C41.27 20.05, 39.1 20.1, 36.96 20.1 C34.82 20.1, 32.65 20.05, 30.54 19.95 C28.43 19.84, 26.33 19.69, 24.32 19.49 C22.31 19.29, 20.33 19.04, 18.48 18.75 C16.63 18.46, 14.84 18.12, 13.2 17.75 C11.56 17.37, 10.02 16.95, 8.65 16.51 C7.27 16.06, 6.02 15.58, 4.95 15.07 C3.88 14.57, 2.96 14.03, 2.23 13.49 C1.5 12.94, 0.93 12.37, 0.56 11.79 C0.19 11.22, 0 10.63, 0 10.05 C0 9.47, 0.19 8.88, 0.56 8.3 C0.93 7.73, 1.5 7.16, 2.23 6.61 C2.96 6.07, 3.88 5.53, 4.95 5.02 C6.02 4.52, 7.27 4.04, 8.65 3.59 C10.02 3.14, 11.56 2.72, 13.2 2.35 C14.84 1.98, 16.63 1.64, 18.48 1.35 C20.33 1.06, 22.31 0.8, 24.32 0.61 C26.33 0.41, 28.43 0.25, 30.54 0.15 C32.65 0.05, 34.82 0, 36.96 0 C39.1 0, 41.27 0.05, 43.38 0.15 C45.48 0.25, 47.59 0.41, 49.6 0.61 C51.61 0.8, 53.59 1.06, 55.44 1.35 C57.29 1.64, 59.08 1.98, 60.72 2.35 C62.36 2.72, 63.9 3.14, 65.27 3.59 C66.65 4.04, 67.9 4.52, 68.97 5.02 C70.04 5.53, 70.96 6.07, 71.69 6.61 C72.42 7.16, 72.99 7.73, 73.36 8.3 C73.73 8.88, 73.83 9.76, 73.92 10.05 C74.01 10.34, 74.01 9.76, 73.92 10.05" stroke="none" stroke-width="0" fill="#ffc9c9"></path><path d="M73.92 10.05 C73.92 10.63, 73.73 11.22, 73.36 11.79 C72.99 12.37, 72.42 12.94, 71.69 13.49 C70.96 14.03, 70.04 14.57, 68.97 15.07 C67.9 15.58, 66.65 16.06, 65.27 16.51 C63.9 16.95, 62.36 17.37, 60.72 17.75 C59.08 18.12, 57.29 18.46, 55.44 18.75 C53.59 19.04, 51.61 19.29, 49.6 19.49 C47.59 19.69, 45.48 19.84, 43.38 19.95 C41.27 20.05, 39.1 20.1, 36.96 20.1 C34.82 20.1, 32.65 20.05, 30.54 19.95 C28.43 19.84, 26.33 19.69, 24.32 19.49 C22.31 19.29, 20.33 19.04, 18.48 18.75 C16.63 18.46, 14.84 18.12, 13.2 17.75 C11.56 17.37, 10.02 16.95, 8.65 16.51 C7.27 16.06, 6.02 15.58, 4.95 15.07 C3.88 14.57, 2.96 14.03, 2.23 13.49 C1.5 12.94, 0.93 12.37, 0.56 11.79 C0.19 11.22, 0 10.63, 0 10.05 C0 9.47, 0.19 8.88, 0.56 8.3 C0.93 7.73, 1.5 7.16, 2.23 6.61 C2.96 6.07, 3.88 5.53, 4.95 5.02 C6.02 4.52, 7.27 4.04, 8.65 3.59 C10.02 3.14, 11.56 2.72, 13.2 2.35 C14.84 1.98, 16.63 1.64, 18.48 1.35 C20.33 1.06, 22.31 0.8, 24.32 0.61 C26.33 0.41, 28.43 0.25, 30.54 0.15 C32.65 0.05, 34.82 0, 36.96 0 C39.1 0, 41.27 0.05, 43.38 0.15 C45.48 0.25, 47.59 0.41, 49.6 0.61 C51.61 0.8, 53.59 1.06, 55.44 1.35 C57.29 1.64, 59.08 1.98, 60.72 2.35 C62.36 2.72, 63.9 3.14, 65.27 3.59 C66.65 4.04, 67.9 4.52, 68.97 5.02 C70.04 5.53, 70.96 6.07, 71.69 6.61 C72.42 7.16, 72.99 7.73, 73.36 8.3 C73.73 8.88, 73.83 9.76, 73.92 10.05 C74.01 10.34, 74.01 9.76, 73.92 10.05" stroke="#c92a2a" stroke-width="1" fill="none"></path></g><g transform="translate(724.7142857142856 830.0351428946243) rotate(0 39.75 12.5)"><text x="39.75" y="17.52" font-family="Virgil, Segoe UI Emoji" font-size="20px" fill="#1e1e1e" text-anchor="middle" style="white-space: pre;" direction="ltr" dominant-baseline="alphabetic">keycloak</text></g><g transform="translate(725.539286477225 887.5351428946243) rotate(0 29.174999237060547 12.5)"><text x="29.174999237060547" y="17.52" font-family="Virgil, Segoe UI Emoji" font-size="20px" fill="#1e1e1e" text-anchor="middle" style="white-space: pre;" direction="ltr" dominant-baseline="alphabetic">strapi</text></g><g transform="translate(725.0142849513461 945.0351428946243) rotate(0 57.719947814941406 12.5)"><text x="57.719947814941406" y="17.52" font-family="Virgil, Segoe UI Emoji" font-size="20px" fill="#1e1e1e" text-anchor="middle" style="white-space: pre;" direction="ltr" dominant-baseline="alphabetic">connector-c1</text></g><g transform="translate(722.3559521266391 1004.7851428946243) rotate(0 62.12994384765625 12.5)"><text x="62.12994384765625" y="17.52" font-family="Virgil, Segoe UI Emoji" font-size="20px" fill="#1e1e1e" text-anchor="middle" style="white-space: pre;" direction="ltr" dominant-baseline="alphabetic">connector-c2</text></g><g stroke-linecap="round" transform="translate(297.2142857142856 765.2851428946243) rotate(0 101 68.5)"><path d="M32 0 C66.39 1.83, 99.84 0.3, 170 0 M32 0 C72.51 -0.98, 112.49 -0.59, 170 0 M170 0 C190.78 0.77, 202.65 9.74, 202 32 M170 0 C191.29 -0.85, 203.42 10.66, 202 32 M202 32 C203.3 59.5, 201.31 87.57, 202 105 M202 32 C201.32 53.23, 202.32 75.11, 202 105 M202 105 C200.78 126.9, 191.83 136.09, 170 137 M202 105 C200.93 127.56, 191.02 137.81, 170 137 M170 137 C120.75 135.99, 70.92 135.49, 32 137 M170 137 C125.2 135.9, 78.81 136.48, 32 137 M32 137 C9.96 135.57, 0.26 124.83, 0 105 M32 137 C12.54 137.37, 0.85 125.17, 0 105 M0 105 C-0.41 79.61, 1 58.53, 0 32 M0 105 C-0.11 78.87, 0.83 51.84, 0 32 M0 32 C0.28 10.94, 9.83 0.77, 32 0 M0 32 C1.19 10.87, 8.48 -0.63, 32 0" stroke="#1e1e1e" stroke-width="2" fill="none"></path></g><g transform="translate(358.4543217250278 821.2851428946243) rotate(0 39.75996398925781 12.5)"><text x="39.75996398925781" y="17.52" font-family="Virgil, Segoe UI Emoji" font-size="20px" fill="#1e1e1e" text-anchor="middle" style="white-space: pre;" direction="ltr" dominant-baseline="alphabetic">keycloak</text></g><g stroke-linecap="round" transform="translate(1068.2827242864626 525.6362726122034) rotate(0 101 49)"><path d="M24.5 0 C82.26 0.38, 144.69 2.37, 177.5 0 M24.5 0 C57.89 0.42, 92.69 0.96, 177.5 0 M177.5 0 C192.2 -0.54, 201.41 6.2, 202 24.5 M177.5 0 C195.76 -0.63, 200.72 9.8, 202 24.5 M202 24.5 C201.13 32.74, 199.9 43.3, 202 73.5 M202 24.5 C203.1 43.65, 202.15 60.87, 202 73.5 M202 73.5 C203.8 91.83, 195.38 97.78, 177.5 98 M202 73.5 C201.49 91.37, 195.76 99.3, 177.5 98 M177.5 98 C138.28 96.3, 97.16 96.51, 24.5 98 M177.5 98 C133.13 98.18, 88.5 97.98, 24.5 98 M24.5 98 C6.36 99.51, -0.19 90.99, 0 73.5 M24.5 98 C7.92 98.11, -1.37 88.44, 0 73.5 M0 73.5 C0.8 61.71, 1.52 46.97, 0 24.5 M0 73.5 C0.21 58.85, -0.67 45.07, 0 24.5 M0 24.5 C-0.68 7.83, 6.83 1.02, 24.5 0 M0 24.5 C1.99 9.92, 6.83 1.03, 24.5 0" stroke="#1e1e1e" stroke-width="2" fill="none"></path></g><g transform="translate(1118.9227847112672 562.1362726122034) rotate(0 50.35993957519531 12.5)"><text x="50.35993957519531" y="17.52" font-family="Virgil, Segoe UI Emoji" font-size="20px" fill="#1e1e1e" text-anchor="middle" style="white-space: pre;" direction="ltr" dominant-baseline="alphabetic">http-proxy</text></g><g stroke-linecap="round" transform="translate(111.96129571503417 428.1719868979176) rotate(0 101 52.5)"><path d="M26.25 0 C63.21 0.32, 102.04 -0.42, 175.75 0 M26.25 0 C76.88 -1.51, 126.94 -0.67, 175.75 0 M175.75 0 C192.13 -1.9, 201.19 10.22, 202 26.25 M175.75 0 C191.96 -1.64, 202.38 9.84, 202 26.25 M202 26.25 C199.87 38.37, 202.27 48.22, 202 78.75 M202 26.25 C201.1 46.62, 201.34 66.39, 202 78.75 M202 78.75 C201.62 94.33, 194.81 103.74, 175.75 105 M202 78.75 C202.17 97.8, 191.97 106.38, 175.75 105 M175.75 105 C116.18 104.34, 57.27 101.9, 26.25 105 M175.75 105 C146.06 103.25, 115.5 103.4, 26.25 105 M26.25 105 C7.34 106.43, -1.26 95.39, 0 78.75 M26.25 105 C7.42 103.38, -2 96.35, 0 78.75 M0 78.75 C-1.91 59.14, 1.53 42.83, 0 26.25 M0 78.75 C-0.85 66.84, 0.56 53.35, 0 26.25 M0 26.25 C0.03 9.62, 9.4 -0.44, 26.25 0 M0 26.25 C0.93 10.05, 7.01 0.15, 26.25 0" stroke="#1e1e1e" stroke-width="2" fill="none"></path></g><g transform="translate(149.49137078827636 443.1719868979176) rotate(0 63.46992492675781 37.5)"><text x="63.46992492675781" y="17.52" font-family="Virgil, Segoe UI Emoji" font-size="20px" fill="#1e1e1e" text-anchor="middle" style="white-space: pre;" direction="ltr" dominant-baseline="alphabetic">public-portal-</text><text x="63.46992492675781" y="42.519999999999996" font-family="Virgil, Segoe UI Emoji" font-size="20px" fill="#1e1e1e" text-anchor="middle" style="white-space: pre;" direction="ltr" dominant-baseline="alphabetic">backend</text><text x="63.46992492675781" y="67.52" font-family="Virgil, Segoe UI Emoji" font-size="20px" fill="#1e1e1e" text-anchor="middle" style="white-space: pre;" direction="ltr" dominant-baseline="alphabetic">(strapi)</text></g><g stroke-linecap="round" transform="translate(110.96129571503417 249.17198689791758) rotate(0 101 51.5)"><path d="M25.75 0 C54.35 -1.23, 87.59 0.77, 176.25 0 M176.25 0 C194.88 -1.21, 201.6 10.34, 202 25.75 M202 25.75 C202.3 38.29, 203.09 49.34, 202 77.25 M202 77.25 C203.78 95.74, 192.05 103.35, 176.25 103 M176.25 103 C128.46 102.36, 76.11 102.37, 25.75 103 M25.75 103 C8.71 102.92, 1.81 93.45, 0 77.25 M0 77.25 C0.51 62.09, -0.21 44.3, 0 25.75 M0 25.75 C-1.89 9.52, 9.68 -1.66, 25.75 0" stroke="#1e1e1e" stroke-width="2.5" fill="none" stroke-dasharray="8 10"></path></g><g transform="translate(148.47796212738768 275.6719868979176) rotate(0 63.483333587646484 24.999999999999996)"><text x="63.483333587646484" y="17.52" font-family="Virgil, Segoe UI Emoji" font-size="20px" fill="#1e1e1e" text-anchor="middle" style="white-space: pre;" direction="ltr" dominant-baseline="alphabetic">public-portal-</text><text x="63.483333587646484" y="42.519999999999996" font-family="Virgil, Segoe UI Emoji" font-size="20px" fill="#1e1e1e" text-anchor="middle" style="white-space: pre;" direction="ltr" dominant-baseline="alphabetic">frontend</text></g><g stroke-linecap="round" transform="translate(10 759.7851428946242) rotate(0 101 68.5)"><path d="M32 0 C63.37 -0.15, 90.23 2.54, 170 0 M32 0 C60.6 -0.85, 87.66 -1.08, 170 0 M170 0 C191.86 0.8, 200.98 12.41, 202 32 M170 0 C189.33 -1.26, 199.85 12.02, 202 32 M202 32 C203.1 59.8, 204.33 87.42, 202 105 M202 32 C201.86 60.46, 201.07 89.49, 202 105 M202 105 C202.33 126.53, 191.39 136.74, 170 137 M202 105 C201.89 127.4, 192.63 137.32, 170 137 M170 137 C127.66 135.43, 82.23 136.93, 32 137 M170 137 C123.63 138.2, 75.7 138.13, 32 137 M32 137 C11.61 135.36, -0.28 126.8, 0 105 M32 137 C11.5 136.08, -0.02 127.98, 0 105 M0 105 C-0.99 81.42, 0.28 59.2, 0 32 M0 105 C-1.04 86.93, 0.41 68.37, 0 32 M0 32 C0.05 12.02, 10.26 -1.83, 32 0 M0 32 C0.08 8.8, 12.4 2.26, 32 0" stroke="#1e1e1e" stroke-width="2" fill="none"></path></g><g transform="translate(78.24166488647461 815.7851428946242) rotate(0 32.75833511352539 12.5)"><text x="32.75833511352539" y="17.52" font-family="Virgil, Segoe UI Emoji" font-size="20px" fill="#1e1e1e" text-anchor="middle" style="white-space: pre;" direction="ltr" dominant-baseline="alphabetic">minio-c1</text></g><g stroke-linecap="round" transform="translate(934.8571428571429 760.3565714660527) rotate(0 101 68.5)"><path d="M32 0 C69.9 -1.65, 111.08 -2.21, 170 0 M32 0 C72.16 -0.97, 112.4 -0.85, 170 0 M170 0 C192.07 -0.09, 201.44 9.29, 202 32 M170 0 C190.78 0.3, 201.87 8.59, 202 32 M202 32 C200.2 61.72, 201.91 86.85, 202 105 M202 32 C202.11 48.08, 202.34 62.09, 202 105 M202 105 C200.68 127.18, 191.73 136.68, 170 137 M202 105 C202.94 127.13, 189.76 135.42, 170 137 M170 137 C138.42 136.87, 109.5 136.15, 32 137 M170 137 C122.23 137.6, 73.04 137.89, 32 137 M32 137 C11.41 135.17, 1.59 127.69, 0 105 M32 137 C8.45 135.59, 2.15 127.79, 0 105 M0 105 C1.12 88.87, -0.36 70.77, 0 32 M0 105 C0.07 87.37, 0.31 71.98, 0 32 M0 32 C-0.25 10.33, 10.71 -0.62, 32 0 M0 32 C-2.03 11.15, 10.96 0.54, 32 0" stroke="#1e1e1e" stroke-width="2" fill="none"></path></g><g transform="translate(998.6904749189105 816.3565714660527) rotate(0 37.16666793823242 12.5)"><text x="37.16666793823242" y="17.52" font-family="Virgil, Segoe UI Emoji" font-size="20px" fill="#1e1e1e" text-anchor="middle" style="white-space: pre;" direction="ltr" dominant-baseline="alphabetic">minio-c2</text></g><g stroke-linecap="round"><g transform="translate(182.42829311962942 845.5814586779753) rotate(0 37.025261068737024 34.9673131893411)" fill-rule="evenodd"><path d="M0 0 C0 9.89, -0.22 47.64, 0 59.31 C0.22 70.99, -0.4 67.59, 1.3 70.04 C3 72.48, 6.5 72.8, 10.2 73.98 C13.91 75.16, 18.95 76.44, 23.54 77.1 C28.13 77.75, 33.37 77.9, 37.76 77.9 C42.16 77.9, 45.99 77.56, 49.91 77.1 C53.83 76.63, 57.51 76.36, 61.3 75.11 C65.09 73.87, 70.64 72.25, 72.66 69.62 C74.68 66.98, 73.2 69.57, 73.43 59.31 C73.67 49.06, 74.1 18.01, 74.05 8.08 C74 -1.85, 74.81 1.87, 73.12 -0.26 C71.43 -2.39, 67.17 -3.54, 63.91 -4.71 C60.66 -5.87, 57.54 -6.68, 53.58 -7.23 C49.62 -7.77, 43.81 -7.85, 40.15 -7.97 C36.49 -8.09, 36.07 -8.21, 31.63 -7.94 C27.18 -7.67, 18.75 -7.67, 13.48 -6.34 C8.21 -5.02, 2.25 -1.06, 0 0" stroke="none" stroke-width="0" fill="#ffc9c9" fill-rule="evenodd"></path><path d="M0 0 C0 9.89, -0.22 47.64, 0 59.31 C0.22 70.99, -0.4 67.59, 1.3 70.04 C3 72.48, 6.5 72.8, 10.2 73.98 C13.91 75.16, 18.95 76.44, 23.54 77.1 C28.13 77.75, 33.37 77.9, 37.76 77.9 C42.16 77.9, 45.99 77.56, 49.91 77.1 C53.83 76.63, 57.51 76.36, 61.3 75.11 C65.09 73.87, 70.64 72.25, 72.66 69.62 C74.68 66.98, 73.2 69.57, 73.43 59.31 C73.67 49.06, 74.1 18.01, 74.05 8.08 C74 -1.85, 74.81 1.87, 73.12 -0.26 C71.43 -2.39, 67.17 -3.54, 63.91 -4.71 C60.66 -5.87, 57.54 -6.68, 53.58 -7.23 C49.62 -7.77, 43.81 -7.85, 40.15 -7.97 C36.49 -8.09, 36.07 -8.21, 31.63 -7.94 C27.18 -7.67, 18.75 -7.67, 13.48 -6.34 C8.21 -5.02, 2.25 -1.06, 0 0 M0 0 C0 9.89, -0.22 47.64, 0 59.31 C0.22 70.99, -0.4 67.59, 1.3 70.04 C3 72.48, 6.5 72.8, 10.2 73.98 C13.91 75.16, 18.95 76.44, 23.54 77.1 C28.13 77.75, 33.37 77.9, 37.76 77.9 C42.16 77.9, 45.99 77.56, 49.91 77.1 C53.83 76.63, 57.51 76.36, 61.3 75.11 C65.09 73.87, 70.64 72.25, 72.66 69.62 C74.68 66.98, 73.2 69.57, 73.43 59.31 C73.67 49.06, 74.1 18.01, 74.05 8.08 C74 -1.85, 74.81 1.87, 73.12 -0.26 C71.43 -2.39, 67.17 -3.54, 63.91 -4.71 C60.66 -5.87, 57.54 -6.68, 53.58 -7.23 C49.62 -7.77, 43.81 -7.85, 40.15 -7.97 C36.49 -8.09, 36.07 -8.21, 31.63 -7.94 C27.18 -7.67, 18.75 -7.67, 13.48 -6.34 C8.21 -5.02, 2.25 -1.06, 0 0" stroke="#c92a2a" stroke-width="1" fill="none"></path></g></g><mask></mask><g stroke-linecap="round" transform="translate(182.6536792074512 836.5028582822813) rotate(0 36.95970629722788 10.049154869700999)"><path d="M73.92 10.05 C73.92 10.63, 73.73 11.22, 73.36 11.79 C72.99 12.37, 72.42 12.94, 71.69 13.49 C70.96 14.03, 70.04 14.57, 68.97 15.07 C67.9 15.58, 66.65 16.06, 65.27 16.51 C63.9 16.95, 62.36 17.37, 60.72 17.75 C59.08 18.12, 57.29 18.46, 55.44 18.75 C53.59 19.04, 51.61 19.29, 49.6 19.49 C47.59 19.69, 45.48 19.84, 43.38 19.95 C41.27 20.05, 39.1 20.1, 36.96 20.1 C34.82 20.1, 32.65 20.05, 30.54 19.95 C28.43 19.84, 26.33 19.69, 24.32 19.49 C22.31 19.29, 20.33 19.04, 18.48 18.75 C16.63 18.46, 14.84 18.12, 13.2 17.75 C11.56 17.37, 10.02 16.95, 8.65 16.51 C7.27 16.06, 6.02 15.58, 4.95 15.07 C3.88 14.57, 2.96 14.03, 2.23 13.49 C1.5 12.94, 0.93 12.37, 0.56 11.79 C0.19 11.22, 0 10.63, 0 10.05 C0 9.47, 0.19 8.88, 0.56 8.3 C0.93 7.73, 1.5 7.16, 2.23 6.61 C2.96 6.07, 3.88 5.53, 4.95 5.02 C6.02 4.52, 7.27 4.04, 8.65 3.59 C10.02 3.14, 11.56 2.72, 13.2 2.35 C14.84 1.98, 16.63 1.64, 18.48 1.35 C20.33 1.06, 22.31 0.8, 24.32 0.61 C26.33 0.41, 28.43 0.25, 30.54 0.15 C32.65 0.05, 34.82 0, 36.96 0 C39.1 0, 41.27 0.05, 43.38 0.15 C45.48 0.25, 47.59 0.41, 49.6 0.61 C51.61 0.8, 53.59 1.06, 55.44 1.35 C57.29 1.64, 59.08 1.98, 60.72 2.35 C62.36 2.72, 63.9 3.14, 65.27 3.59 C66.65 4.04, 67.9 4.52, 68.97 5.02 C70.04 5.53, 70.96 6.07, 71.69 6.61 C72.42 7.16, 72.99 7.73, 73.36 8.3 C73.73 8.88, 73.83 9.76, 73.92 10.05 C74.01 10.34, 74.01 9.76, 73.92 10.05" stroke="none" stroke-width="0" fill="#ffc9c9"></path><path d="M73.92 10.05 C73.92 10.63, 73.73 11.22, 73.36 11.79 C72.99 12.37, 72.42 12.94, 71.69 13.49 C70.96 14.03, 70.04 14.57, 68.97 15.07 C67.9 15.58, 66.65 16.06, 65.27 16.51 C63.9 16.95, 62.36 17.37, 60.72 17.75 C59.08 18.12, 57.29 18.46, 55.44 18.75 C53.59 19.04, 51.61 19.29, 49.6 19.49 C47.59 19.69, 45.48 19.84, 43.38 19.95 C41.27 20.05, 39.1 20.1, 36.96 20.1 C34.82 20.1, 32.65 20.05, 30.54 19.95 C28.43 19.84, 26.33 19.69, 24.32 19.49 C22.31 19.29, 20.33 19.04, 18.48 18.75 C16.63 18.46, 14.84 18.12, 13.2 17.75 C11.56 17.37, 10.02 16.95, 8.65 16.51 C7.27 16.06, 6.02 15.58, 4.95 15.07 C3.88 14.57, 2.96 14.03, 2.23 13.49 C1.5 12.94, 0.93 12.37, 0.56 11.79 C0.19 11.22, 0 10.63, 0 10.05 C0 9.47, 0.19 8.88, 0.56 8.3 C0.93 7.73, 1.5 7.16, 2.23 6.61 C2.96 6.07, 3.88 5.53, 4.95 5.02 C6.02 4.52, 7.27 4.04, 8.65 3.59 C10.02 3.14, 11.56 2.72, 13.2 2.35 C14.84 1.98, 16.63 1.64, 18.48 1.35 C20.33 1.06, 22.31 0.8, 24.32 0.61 C26.33 0.41, 28.43 0.25, 30.54 0.15 C32.65 0.05, 34.82 0, 36.96 0 C39.1 0, 41.27 0.05, 43.38 0.15 C45.48 0.25, 47.59 0.41, 49.6 0.61 C51.61 0.8, 53.59 1.06, 55.44 1.35 C57.29 1.64, 59.08 1.98, 60.72 2.35 C62.36 2.72, 63.9 3.14, 65.27 3.59 C66.65 4.04, 67.9 4.52, 68.97 5.02 C70.04 5.53, 70.96 6.07, 71.69 6.61 C72.42 7.16, 72.99 7.73, 73.36 8.3 C73.73 8.88, 73.83 9.76, 73.92 10.05 C74.01 10.34, 74.01 9.76, 73.92 10.05" stroke="#c92a2a" stroke-width="1" fill="none"></path></g><g stroke-linecap="round"><g transform="translate(1106.2854359767723 858.1528872494039) rotate(0 37.025261068736995 34.9673131893411)" fill-rule="evenodd"><path d="M0 0 C0 9.89, -0.22 47.64, 0 59.31 C0.22 70.99, -0.4 67.59, 1.3 70.04 C3 72.48, 6.5 72.8, 10.2 73.98 C13.91 75.16, 18.95 76.44, 23.54 77.1 C28.13 77.75, 33.37 77.9, 37.76 77.9 C42.16 77.9, 45.99 77.56, 49.91 77.1 C53.83 76.63, 57.51 76.36, 61.3 75.11 C65.09 73.87, 70.64 72.25, 72.66 69.62 C74.68 66.98, 73.2 69.57, 73.43 59.31 C73.67 49.06, 74.1 18.01, 74.05 8.08 C74 -1.85, 74.81 1.87, 73.12 -0.26 C71.43 -2.39, 67.17 -3.54, 63.91 -4.71 C60.66 -5.87, 57.54 -6.68, 53.58 -7.23 C49.62 -7.77, 43.81 -7.85, 40.15 -7.97 C36.49 -8.09, 36.07 -8.21, 31.63 -7.94 C27.18 -7.67, 18.75 -7.67, 13.48 -6.34 C8.21 -5.02, 2.25 -1.06, 0 0" stroke="none" stroke-width="0" fill="#ffc9c9" fill-rule="evenodd"></path><path d="M0 0 C0 9.89, -0.22 47.64, 0 59.31 C0.22 70.99, -0.4 67.59, 1.3 70.04 C3 72.48, 6.5 72.8, 10.2 73.98 C13.91 75.16, 18.95 76.44, 23.54 77.1 C28.13 77.75, 33.37 77.9, 37.76 77.9 C42.16 77.9, 45.99 77.56, 49.91 77.1 C53.83 76.63, 57.51 76.36, 61.3 75.11 C65.09 73.87, 70.64 72.25, 72.66 69.62 C74.68 66.98, 73.2 69.57, 73.43 59.31 C73.67 49.06, 74.1 18.01, 74.05 8.08 C74 -1.85, 74.81 1.87, 73.12 -0.26 C71.43 -2.39, 67.17 -3.54, 63.91 -4.71 C60.66 -5.87, 57.54 -6.68, 53.58 -7.23 C49.62 -7.77, 43.81 -7.85, 40.15 -7.97 C36.49 -8.09, 36.07 -8.21, 31.63 -7.94 C27.18 -7.67, 18.75 -7.67, 13.48 -6.34 C8.21 -5.02, 2.25 -1.06, 0 0 M0 0 C0 9.89, -0.22 47.64, 0 59.31 C0.22 70.99, -0.4 67.59, 1.3 70.04 C3 72.48, 6.5 72.8, 10.2 73.98 C13.91 75.16, 18.95 76.44, 23.54 77.1 C28.13 77.75, 33.37 77.9, 37.76 77.9 C42.16 77.9, 45.99 77.56, 49.91 77.1 C53.83 76.63, 57.51 76.36, 61.3 75.11 C65.09 73.87, 70.64 72.25, 72.66 69.62 C74.68 66.98, 73.2 69.57, 73.43 59.31 C73.67 49.06, 74.1 18.01, 74.05 8.08 C74 -1.85, 74.81 1.87, 73.12 -0.26 C71.43 -2.39, 67.17 -3.54, 63.91 -4.71 C60.66 -5.87, 57.54 -6.68, 53.58 -7.23 C49.62 -7.77, 43.81 -7.85, 40.15 -7.97 C36.49 -8.09, 36.07 -8.21, 31.63 -7.94 C27.18 -7.67, 18.75 -7.67, 13.48 -6.34 C8.21 -5.02, 2.25 -1.06, 0 0" stroke="#c92a2a" stroke-width="1" fill="none"></path></g></g><mask></mask><g stroke-linecap="round" transform="translate(1106.510822064594 849.0742868537099) rotate(0 36.959706297227854 10.049154869700999)"><path d="M73.92 10.05 C73.92 10.63, 73.73 11.22, 73.36 11.79 C72.99 12.37, 72.42 12.94, 71.69 13.49 C70.96 14.03, 70.04 14.57, 68.97 15.07 C67.9 15.58, 66.65 16.06, 65.27 16.51 C63.9 16.95, 62.36 17.37, 60.72 17.75 C59.08 18.12, 57.29 18.46, 55.44 18.75 C53.59 19.04, 51.61 19.29, 49.6 19.49 C47.59 19.69, 45.48 19.84, 43.38 19.95 C41.27 20.05, 39.1 20.1, 36.96 20.1 C34.82 20.1, 32.65 20.05, 30.54 19.95 C28.43 19.84, 26.33 19.69, 24.32 19.49 C22.31 19.29, 20.33 19.04, 18.48 18.75 C16.63 18.46, 14.84 18.12, 13.2 17.75 C11.56 17.37, 10.02 16.95, 8.65 16.51 C7.27 16.06, 6.02 15.58, 4.95 15.07 C3.88 14.57, 2.96 14.03, 2.23 13.49 C1.5 12.94, 0.93 12.37, 0.56 11.79 C0.19 11.22, 0 10.63, 0 10.05 C0 9.47, 0.19 8.88, 0.56 8.3 C0.93 7.73, 1.5 7.16, 2.23 6.61 C2.96 6.07, 3.88 5.53, 4.95 5.02 C6.02 4.52, 7.27 4.04, 8.65 3.59 C10.02 3.14, 11.56 2.72, 13.2 2.35 C14.84 1.98, 16.63 1.64, 18.48 1.35 C20.33 1.06, 22.31 0.8, 24.32 0.61 C26.33 0.41, 28.43 0.25, 30.54 0.15 C32.65 0.05, 34.82 0, 36.96 0 C39.1 0, 41.27 0.05, 43.38 0.15 C45.48 0.25, 47.59 0.41, 49.6 0.61 C51.61 0.8, 53.59 1.06, 55.44 1.35 C57.29 1.64, 59.08 1.98, 60.72 2.35 C62.36 2.72, 63.9 3.14, 65.27 3.59 C66.65 4.04, 67.9 4.52, 68.97 5.02 C70.04 5.53, 70.96 6.07, 71.69 6.61 C72.42 7.16, 72.99 7.73, 73.36 8.3 C73.73 8.88, 73.83 9.76, 73.92 10.05 C74.01 10.34, 74.01 9.76, 73.92 10.05" stroke="none" stroke-width="0" fill="#ffc9c9"></path><path d="M73.92 10.05 C73.92 10.63, 73.73 11.22, 73.36 11.79 C72.99 12.37, 72.42 12.94, 71.69 13.49 C70.96 14.03, 70.04 14.57, 68.97 15.07 C67.9 15.58, 66.65 16.06, 65.27 16.51 C63.9 16.95, 62.36 17.37, 60.72 17.75 C59.08 18.12, 57.29 18.46, 55.44 18.75 C53.59 19.04, 51.61 19.29, 49.6 19.49 C47.59 19.69, 45.48 19.84, 43.38 19.95 C41.27 20.05, 39.1 20.1, 36.96 20.1 C34.82 20.1, 32.65 20.05, 30.54 19.95 C28.43 19.84, 26.33 19.69, 24.32 19.49 C22.31 19.29, 20.33 19.04, 18.48 18.75 C16.63 18.46, 14.84 18.12, 13.2 17.75 C11.56 17.37, 10.02 16.95, 8.65 16.51 C7.27 16.06, 6.02 15.58, 4.95 15.07 C3.88 14.57, 2.96 14.03, 2.23 13.49 C1.5 12.94, 0.93 12.37, 0.56 11.79 C0.19 11.22, 0 10.63, 0 10.05 C0 9.47, 0.19 8.88, 0.56 8.3 C0.93 7.73, 1.5 7.16, 2.23 6.61 C2.96 6.07, 3.88 5.53, 4.95 5.02 C6.02 4.52, 7.27 4.04, 8.65 3.59 C10.02 3.14, 11.56 2.72, 13.2 2.35 C14.84 1.98, 16.63 1.64, 18.48 1.35 C20.33 1.06, 22.31 0.8, 24.32 0.61 C26.33 0.41, 28.43 0.25, 30.54 0.15 C32.65 0.05, 34.82 0, 36.96 0 C39.1 0, 41.27 0.05, 43.38 0.15 C45.48 0.25, 47.59 0.41, 49.6 0.61 C51.61 0.8, 53.59 1.06, 55.44 1.35 C57.29 1.64, 59.08 1.98, 60.72 2.35 C62.36 2.72, 63.9 3.14, 65.27 3.59 C66.65 4.04, 67.9 4.52, 68.97 5.02 C70.04 5.53, 70.96 6.07, 71.69 6.61 C72.42 7.16, 72.99 7.73, 73.36 8.3 C73.73 8.88, 73.83 9.76, 73.92 10.05 C74.01 10.34, 74.01 9.76, 73.92 10.05" stroke="#c92a2a" stroke-width="1" fill="none"></path></g><g stroke-linecap="round" transform="translate(433.96129571503417 421.1719868979176) rotate(0 108 49)"><path d="M24.5 0 C68.32 0.82, 115.3 -1.91, 191.5 0 M24.5 0 C70.34 2.29, 114.83 0.66, 191.5 0 M191.5 0 C209.17 0.92, 217.67 9.35, 216 24.5 M191.5 0 C209.09 1.4, 214.9 8.83, 216 24.5 M216 24.5 C217.64 40.51, 218.11 53.6, 216 73.5 M216 24.5 C216.47 42.58, 216.01 60.19, 216 73.5 M216 73.5 C214.1 89.33, 206.57 99.76, 191.5 98 M216 73.5 C215.21 91.88, 206.15 99.14, 191.5 98 M191.5 98 C145.97 98.03, 96.36 98.25, 24.5 98 M191.5 98 C127.2 98.72, 61.98 98.46, 24.5 98 M24.5 98 C8.26 98.06, 0.34 87.97, 0 73.5 M24.5 98 C7.54 96, 0.76 88.07, 0 73.5 M0 73.5 C-0.43 60.83, -0.95 47.51, 0 24.5 M0 73.5 C0.2 56.27, -0.47 36.98, 0 24.5 M0 24.5 C0.54 6.43, 7.54 -1.59, 24.5 0 M0 24.5 C-0.17 9.8, 6.97 0.8, 24.5 0" stroke="#1e1e1e" stroke-width="2" fill="none"></path></g><g transform="translate(484.24134790009276 457.6719868979176) rotate(0 57.719947814941406 12.5)"><text x="57.719947814941406" y="17.52" font-family="Virgil, Segoe UI Emoji" font-size="20px" fill="#1e1e1e" text-anchor="middle" style="white-space: pre;" direction="ltr" dominant-baseline="alphabetic">connector-c1</text></g><g stroke-linecap="round" transform="translate(746.4612957150341 426.1719868979176) rotate(0 108 49)"><path d="M24.5 0 C82.44 1.66, 143.64 -1.35, 191.5 0 M24.5 0 C89.94 1.35, 155.27 0.9, 191.5 0 M191.5 0 C206.73 1.79, 214.87 6.74, 216 24.5 M191.5 0 C208.4 0.86, 214.17 6.51, 216 24.5 M216 24.5 C216.31 36.16, 213.86 45.37, 216 73.5 M216 24.5 C214.78 37.29, 215.46 51.81, 216 73.5 M216 73.5 C216.3 91.2, 206.84 96.95, 191.5 98 M216 73.5 C214.79 91.91, 206.41 99.52, 191.5 98 M191.5 98 C141.89 100.53, 92.21 98.55, 24.5 98 M191.5 98 C156.56 96.49, 124.22 96.24, 24.5 98 M24.5 98 C7.55 96.39, -0.63 88.06, 0 73.5 M24.5 98 C6.44 99.46, 0.77 88.4, 0 73.5 M0 73.5 C-0.69 59.9, -0.18 41.05, 0 24.5 M0 73.5 C-0.19 59.23, -1.01 47.56, 0 24.5 M0 24.5 C-1.22 6.89, 9.18 -0.05, 24.5 0 M0 24.5 C0.46 6.55, 7.41 0.59, 24.5 0" stroke="#1e1e1e" stroke-width="2" fill="none"></path></g><g transform="translate(792.3313518673779 462.6719868979176) rotate(0 62.12994384765625 12.5)"><text x="62.12994384765625" y="17.52" font-family="Virgil, Segoe UI Emoji" font-size="20px" fill="#1e1e1e" text-anchor="middle" style="white-space: pre;" direction="ltr" dominant-baseline="alphabetic">connector-c2</text></g><g stroke-linecap="round" transform="translate(429.96129571503417 251.17198689791758) rotate(0 108 49)"><path d="M24.5 0 C77.83 0.55, 126.8 -0.45, 191.5 0 M24.5 0 C69.66 -0.51, 114.69 0.96, 191.5 0 M191.5 0 C206.59 0.43, 217.93 7.98, 216 24.5 M191.5 0 C205.65 1.6, 217.51 6.37, 216 24.5 M216 24.5 C214.14 42.05, 215.63 58.56, 216 73.5 M216 24.5 C215.07 39.92, 216.21 56.09, 216 73.5 M216 73.5 C214.61 88.19, 205.99 96.83, 191.5 98 M216 73.5 C214.67 92.07, 207.36 99.14, 191.5 98 M191.5 98 C149.79 99.97, 105.47 98.13, 24.5 98 M191.5 98 C148.12 97.63, 105.36 97.93, 24.5 98 M24.5 98 C8.29 97.92, -1.43 91.47, 0 73.5 M24.5 98 C10.02 98.91, -0.29 89.73, 0 73.5 M0 73.5 C0.04 59.68, -0.27 46.92, 0 24.5 M0 73.5 C0.33 60.18, -1.08 46.91, 0 24.5 M0 24.5 C1.84 9.78, 9.34 -0.81, 24.5 0 M0 24.5 C-2.23 9.4, 9.76 0.35, 24.5 0" stroke="#1e1e1e" stroke-width="2" fill="none"></path></g><g transform="translate(480.24134790009276 275.1719868979176) rotate(0 57.719947814941406 25)"><text x="57.719947814941406" y="17.52" font-family="Virgil, Segoe UI Emoji" font-size="20px" fill="#1e1e1e" text-anchor="middle" style="white-space: pre;" direction="ltr" dominant-baseline="alphabetic">connector-c1</text><text x="57.719947814941406" y="42.519999999999996" font-family="Virgil, Segoe UI Emoji" font-size="20px" fill="#1e1e1e" text-anchor="middle" style="white-space: pre;" direction="ltr" dominant-baseline="alphabetic">frontend</text></g><g stroke-linecap="round" transform="translate(744.9612957150341 249.17198689791758) rotate(0 108 49)"><path d="M24.5 0 C86.03 2.49, 143 2.34, 191.5 0 M24.5 0 C71.5 0.05, 117.74 -1.36, 191.5 0 M191.5 0 C209.63 -1.13, 214.57 8.66, 216 24.5 M191.5 0 C208.69 -1.83, 214.34 6.19, 216 24.5 M216 24.5 C217.18 34.03, 215.89 46.58, 216 73.5 M216 24.5 C215.48 35.18, 216.73 46.31, 216 73.5 M216 73.5 C217.36 88.84, 206.78 96.95, 191.5 98 M216 73.5 C218.08 88.41, 209.35 97.87, 191.5 98 M191.5 98 C130.36 96.59, 66.18 95.69, 24.5 98 M191.5 98 C133.95 97.57, 76.58 96.31, 24.5 98 M24.5 98 C6.55 97.37, -1.78 88.33, 0 73.5 M24.5 98 C9.62 98.77, -1.44 90.21, 0 73.5 M0 73.5 C1.5 61.34, -1.85 49.59, 0 24.5 M0 73.5 C-1.38 56.38, 0.27 40.36, 0 24.5 M0 24.5 C-1.27 9.18, 8.12 0.4, 24.5 0 M0 24.5 C-1.61 7.41, 8.76 -1.7, 24.5 0" stroke="#1e1e1e" stroke-width="2" fill="none"></path></g><g transform="translate(790.8529621273876 273.1719868979176) rotate(0 62.108333587646484 25)"><text x="62.108333587646484" y="17.52" font-family="Virgil, Segoe UI Emoji" font-size="20px" fill="#1e1e1e" text-anchor="middle" style="white-space: pre;" direction="ltr" dominant-baseline="alphabetic">connector-c2</text><text x="62.108333587646484" y="42.519999999999996" font-family="Virgil, Segoe UI Emoji" font-size="20px" fill="#1e1e1e" text-anchor="middle" style="white-space: pre;" direction="ltr" dominant-baseline="alphabetic">frontend</text></g><g transform="translate(519.9288711609124 86.34397379583515) rotate(0 23 12.5)"><text x="0" y="17.52" font-family="Virgil, Segoe UI Emoji" font-size="20px" fill="#000000" text-anchor="start" style="white-space: pre;" direction="ltr" dominant-baseline="alphabetic">User</text></g><g stroke-linecap="round"><g transform="translate(517.141650512405 76.69104778585643) rotate(0 24.63471035906872 -21.936502105304598)"><path d="M0 0 C0.92 -4.85, 1.58 -21.76, 5.52 -29.07 C9.46 -36.38, 17.61 -43.34, 23.65 -43.87 C29.69 -44.4, 37.51 -39.05, 41.78 -32.24 C46.05 -25.43, 56.23 -8.39, 49.27 -3.02 C42.31 2.36, 8.21 -0.5, 0 0 M0 0 C0.92 -4.85, 1.58 -21.76, 5.52 -29.07 C9.46 -36.38, 17.61 -43.34, 23.65 -43.87 C29.69 -44.4, 37.51 -39.05, 41.78 -32.24 C46.05 -25.43, 56.23 -8.39, 49.27 -3.02 C42.31 2.36, 8.21 -0.5, 0 0" stroke="#000000" stroke-width="2" fill="none"></path></g></g><mask></mask><g stroke-linecap="round" transform="translate(529.5955213487207 10) rotate(0 12.612971703843186 11.036350240862845)"><path d="M25.23 11.04 C25.23 11.68, 25.16 12.32, 25.03 12.95 C24.91 13.58, 24.71 14.21, 24.47 14.81 C24.22 15.41, 23.9 16, 23.54 16.55 C23.17 17.11, 22.74 17.64, 22.28 18.13 C21.81 18.62, 21.28 19.08, 20.72 19.49 C20.16 19.9, 19.55 20.27, 18.92 20.59 C18.29 20.91, 17.61 21.19, 16.93 21.41 C16.24 21.63, 15.52 21.79, 14.8 21.91 C14.08 22.02, 13.34 22.07, 12.61 22.07 C11.88 22.07, 11.14 22.02, 10.42 21.91 C9.7 21.79, 8.99 21.63, 8.3 21.41 C7.61 21.19, 6.94 20.91, 6.31 20.59 C5.67 20.27, 5.06 19.9, 4.51 19.49 C3.95 19.08, 3.42 18.62, 2.95 18.13 C2.48 17.64, 2.05 17.11, 1.69 16.55 C1.32 16, 1.01 15.41, 0.76 14.81 C0.51 14.21, 0.32 13.58, 0.19 12.95 C0.06 12.32, 0 11.68, 0 11.04 C0 10.4, 0.06 9.75, 0.19 9.12 C0.32 8.49, 0.51 7.86, 0.76 7.26 C1.01 6.66, 1.32 6.07, 1.69 5.52 C2.05 4.96, 2.48 4.43, 2.95 3.94 C3.42 3.45, 3.95 2.99, 4.51 2.58 C5.06 2.17, 5.67 1.8, 6.31 1.48 C6.94 1.16, 7.61 0.88, 8.3 0.67 C8.99 0.45, 9.7 0.28, 10.42 0.17 C11.14 0.06, 11.88 0, 12.61 0 C13.34 0, 14.08 0.06, 14.8 0.17 C15.52 0.28, 16.24 0.45, 16.93 0.67 C17.61 0.88, 18.29 1.16, 18.92 1.48 C19.55 1.8, 20.16 2.17, 20.72 2.58 C21.28 2.99, 21.81 3.45, 22.28 3.94 C22.74 4.43, 23.17 4.96, 23.54 5.52 C23.9 6.07, 24.22 6.66, 24.47 7.26 C24.71 7.86, 24.91 8.49, 25.03 9.12 C25.16 9.75, 25.19 10.72, 25.23 11.04 C25.26 11.36, 25.26 10.72, 25.23 11.04" stroke="#000000" stroke-width="2" fill="none"></path></g><g stroke-linecap="round"><g transform="translate(539.9612957150341 351.1719868979176) rotate(0 -1 34.5)"><path d="M-0.18 -0.06 C-0.55 11.39, -2.32 56.86, -2.64 68.22 M-1.74 -1.14 C-1.67 10.49, -0.06 57.68, -0.27 69.36" stroke="#1e1e1e" stroke-width="2" fill="none"></path></g><g transform="translate(539.9612957150341 351.1719868979176) rotate(0 -1 34.5)"><path d="M-9.09 45.96 C-6.96 51.07, -5.82 58.06, -0.27 69.36 M-9.09 45.96 C-7.61 50.57, -4.71 55.95, -0.27 69.36" stroke="#1e1e1e" stroke-width="2" fill="none"></path></g><g transform="translate(539.9612957150341 351.1719868979176) rotate(0 -1 34.5)"><path d="M8.01 45.77 C5.63 50.9, 2.26 57.94, -0.27 69.36 M8.01 45.77 C5.64 50.36, 4.7 55.79, -0.27 69.36" stroke="#1e1e1e" stroke-width="2" fill="none"></path></g></g><mask></mask><g stroke-linecap="round"><g transform="translate(855.6654466697096 353.1719868979176) rotate(0 0.5210153804072206 35)"><path d="M0.37 0.59 C0.45 12.33, -0.02 59.68, -0.05 71.09 M-0.9 -0.15 C-0.42 11.23, 1.49 57.88, 2.08 69.55" stroke="#1e1e1e" stroke-width="2" fill="none"></path></g><g transform="translate(855.6654466697096 353.1719868979176) rotate(0 0.5210153804072206 35)"><path d="M-7.52 46.46 C-3.98 50.49, -0.68 56.78, 2.08 69.55 M-7.52 46.46 C-5.06 51.78, -2.37 57.51, 2.08 69.55" stroke="#1e1e1e" stroke-width="2" fill="none"></path></g><g transform="translate(855.6654466697096 353.1719868979176) rotate(0 0.5210153804072206 35)"><path d="M9.57 45.69 C8.76 49.97, 7.7 56.46, 2.08 69.55 M9.57 45.69 C8.25 51.08, 7.19 56.98, 2.08 69.55" stroke="#1e1e1e" stroke-width="2" fill="none"></path></g></g><mask></mask><g stroke-linecap="round"><g transform="translate(212.10885705424096 353.1719868979176) rotate(0 -0.0737806696033374 35.999999999999986)"><path d="M0.44 0.12 C0.3 12.22, -1.13 59.56, -1.06 71.61 M-0.78 -0.86 C-0.53 11.49, 0.94 61.09, 1.17 72.94" stroke="#1e1e1e" stroke-width="2" fill="none"></path></g><g transform="translate(212.10885705424096 353.1719868979176) rotate(0 -0.0737806696033374 35.999999999999986)"><path d="M-7.97 49.67 C-5.38 54.66, -3.67 64.34, 1.17 72.94 M-7.97 49.67 C-4.22 57.22, -1.38 65.64, 1.17 72.94" stroke="#1e1e1e" stroke-width="2" fill="none"></path></g><g transform="translate(212.10885705424096 353.1719868979176) rotate(0 -0.0737806696033374 35.999999999999986)"><path d="M9.13 49.25 C6.9 54.41, 3.81 64.21, 1.17 72.94 M9.13 49.25 C7.18 56.78, 4.32 65.35, 1.17 72.94" stroke="#1e1e1e" stroke-width="2" fill="none"></path></g></g><mask></mask><g stroke-linecap="round"><g transform="translate(511.2142857142856 836.3689412261093) rotate(0 42.5286579911899 -0.9931764984601728)"><path d="M-0.13 -0.36 C14.16 -0.67, 71.76 -2.31, 85.98 -2.75 M-1.66 -1.6 C12.53 -1.69, 71.15 -1.51, 85.52 -1.61" stroke="#1e1e1e" stroke-width="2" fill="none"></path></g><g transform="translate(511.2142857142856 836.3689412261093) rotate(0 42.5286579911899 -0.9931764984601728)"><path d="M62.04 6.97 C69.04 5.78, 75.91 1.78, 85.52 -1.61 M62.04 6.97 C67.78 4.84, 71.71 4.27, 85.52 -1.61" stroke="#1e1e1e" stroke-width="2" fill="none"></path></g><g transform="translate(511.2142857142856 836.3689412261093) rotate(0 42.5286579911899 -0.9931764984601728)"><path d="M62.02 -10.13 C68.9 -5.83, 75.78 -4.34, 85.52 -1.61 M62.02 -10.13 C67.76 -8.58, 71.69 -5.47, 85.52 -1.61" stroke="#1e1e1e" stroke-width="2" fill="none"></path></g></g><mask></mask><g stroke-linecap="round"><g transform="translate(537.6699916066534 122.9401034456044) rotate(0 -2.0418244074066365 55.61594172615659)"><path d="M0.39 0.89 C-0.27 19.26, -2.48 92.64, -3.39 111.15 M-0.86 0.3 C-1.68 18.8, -3.67 94.37, -3.97 112.65" stroke="#1e1e1e" stroke-width="2" fill="none"></path></g><g transform="translate(537.6699916066534 122.9401034456044) rotate(0 -2.0418244074066365 55.61594172615659)"><path d="M-11.99 88.97 C-7.53 98.4, -6.33 103.91, -3.97 112.65 M-11.99 88.97 C-8.72 97.63, -6.44 106.5, -3.97 112.65" stroke="#1e1e1e" stroke-width="2" fill="none"></path></g><g transform="translate(537.6699916066534 122.9401034456044) rotate(0 -2.0418244074066365 55.61594172615659)"><path d="M5.11 89.35 C3.57 98.71, -1.22 104.08, -3.97 112.65 M5.11 89.35 C2.25 97.94, -1.59 106.67, -3.97 112.65" stroke="#1e1e1e" stroke-width="2" fill="none"></path></g></g><mask></mask><g stroke-linecap="round"><g transform="translate(562.6570296915836 120.17198689791758) rotate(0 100.65213301172525 58.94952676927713)"><path d="M1.01 0.18 C34.71 19.93, 168.93 99.08, 202.17 118.83 M0.08 -0.77 C33.7 18.63, 167.88 97.61, 201.68 117.2" stroke="#1e1e1e" stroke-width="2" fill="none"></path></g><g transform="translate(562.6570296915836 120.17198689791758) rotate(0 100.65213301172525 58.94952676927713)"><path d="M177.08 112.72 C184.68 115.28, 193.2 113.72, 201.68 117.2 M177.08 112.72 C186.31 113.6, 194.13 115.77, 201.68 117.2" stroke="#1e1e1e" stroke-width="2" fill="none"></path></g><g transform="translate(562.6570296915836 120.17198689791758) rotate(0 100.65213301172525 58.94952676927713)"><path d="M185.71 97.96 C190.79 104.96, 196.76 107.76, 201.68 117.2 M185.71 97.96 C191.9 104.21, 196.57 111.78, 201.68 117.2" stroke="#1e1e1e" stroke-width="2" fill="none"></path></g></g><mask></mask><g stroke-linecap="round"><g transform="translate(518.4343948970077 119.23614617828363) rotate(0 -123.73654959098678 55.390376905492815)"><path d="M-0.8 0.53 C-42.02 18.76, -207.2 91.42, -248.47 109.84 M0.98 -0.24 C-39.78 18.07, -205.12 92.1, -246.29 110.89" stroke="#1e1e1e" stroke-width="2" fill="none"></path></g><g transform="translate(518.4343948970077 119.23614617828363) rotate(0 -123.73654959098678 55.390376905492815)"><path d="M-228.39 93.43 C-231.08 95.18, -237.15 98.8, -246.29 110.89 M-228.39 93.43 C-234.36 99.02, -239.23 105.22, -246.29 110.89" stroke="#1e1e1e" stroke-width="2" fill="none"></path></g><g transform="translate(518.4343948970077 119.23614617828363) rotate(0 -123.73654959098678 55.390376905492815)"><path d="M-221.36 109.02 C-225.53 107.56, -233.03 108.02, -246.29 110.89 M-221.36 109.02 C-229.71 109.6, -236.86 110.77, -246.29 110.89" stroke="#1e1e1e" stroke-width="2" fill="none"></path></g></g><mask></mask><g stroke-linecap="round"><g transform="translate(367.68915188936757 387.58865356458443) rotate(0 227.59440524616662 -0.625)"><path d="M0.3 0.29 C29.52 0.41, 99.71 1.23, 175.4 1.13 C251.08 1.03, 407.81 0.06, 454.42 -0.29 M-1 -0.6 C28.57 -0.83, 101.24 -0.15, 177.56 -0.4 C253.88 -0.66, 410.63 -2.24, 456.9 -2.13" stroke="#1e1e1e" stroke-width="2" fill="none"></path></g></g><mask></mask><g stroke-linecap="round"><g transform="translate(469.1279623817008 387.58865356458443) rotate(0 0 -18.75)"><path d="M0.05 -0.36 C0.04 -6.46, 0.38 -30.77, 0.43 -37.01 M-0.59 0.65 C-0.68 -5.56, 0.09 -31.39, 0.23 -37.72" stroke="#1e1e1e" stroke-width="2" fill="none"></path></g></g><mask></mask><g stroke-linecap="round"><g transform="translate(824.1279623817009 385.08865356458443) rotate(0 0 -18.75)"><path d="M0.11 -0.49 C0.13 -6.79, 0.15 -31.78, 0.12 -37.87 M-0.49 0.45 C-0.54 -5.78, -0.25 -30.98, -0.25 -37.36" stroke="#1e1e1e" stroke-width="2" fill="none"></path></g></g><mask></mask><g stroke-linecap="round"><g transform="translate(965.263333561046 472.32655103195873) rotate(0 17.91257272774942 57.848995933010855)"><path d="M0 0 C8.48 2.23, 18.53 -0.15, 34.46 0.74 M0 0 C9.74 -0.2, 18.37 0.91, 34.46 0.74 M34.46 0.74 C36.34 32.23, 37.49 64.24, 35.83 115.7 M34.46 0.74 C32.96 30.38, 33.68 60.25, 35.83 115.7" stroke="#1e1e1e" stroke-width="2" fill="none"></path></g></g><mask></mask><g stroke-linecap="round"><g transform="translate(791.29193675542 638.4436914572188) rotate(0 -300.6937789267236 -1.2816594246189652)"><path d="M0 0 C-127.35 -1.04, -252.71 -0.98, -601.39 -2.56 M0 0 C-229.28 -1.73, -459.38 -3.26, -601.39 -2.56" stroke="#1e1e1e" stroke-width="2" fill="none"></path></g></g><mask></mask><g stroke-linecap="round"><g transform="translate(849.5317627725303 694.1159958985686) rotate(0 -306.74382229213757 0)"><path d="M0 0 C-142.4 1.01, -284.46 1.64, -613.49 0 M0 0 C-137.29 0.71, -274.32 0.35, -613.49 0" stroke="#1e1e1e" stroke-width="2" fill="none"></path></g></g><mask></mask><g stroke-linecap="round"><g transform="translate(609.754592392768 520.2242460748275) rotate(0 227.76671415913188 35.886463889330855)"><path d="M0 0 C0.56 26.31, -0.16 53.42, 0.26 71.77 M0 0 C-0.11 15.39, -0.28 32.37, 0.26 71.77 M0.26 71.77 C17.25 71.34, 35.39 72.82, 73.87 71.38 M0.26 71.77 C18.17 71.7, 38.61 72.07, 73.87 71.38 M73.87 71.38 C209.75 72.88, 343.49 72.59, 455.53 69.42 M73.87 71.38 C151.28 72.84, 227.66 72.23, 455.53 69.42" stroke="#1e1e1e" stroke-width="2" fill="none"></path></g><g transform="translate(609.754592392768 520.2242460748275) rotate(0 227.76671415913188 35.886463889330855)"><path d="M432.14 78.24 C440.77 74.01, 448.75 70.78, 455.53 69.42 M432.14 78.24 C437.99 75.58, 443.03 74.4, 455.53 69.42" stroke="#1e1e1e" stroke-width="2" fill="none"></path></g><g transform="translate(609.754592392768 520.2242460748275) rotate(0 227.76671415913188 35.886463889330855)"><path d="M431.94 61.14 C440.78 63.35, 448.84 66.56, 455.53 69.42 M431.94 61.14 C437.68 62.34, 442.76 65.01, 455.53 69.42" stroke="#1e1e1e" stroke-width="2" fill="none"></path></g></g><mask></mask><g stroke-linecap="round"><g transform="translate(399.0860067449136 638.697115652865) rotate(0 0.981151714235807 62.79370971109219)"><path d="M0 0 C1.37 28.79, 1.79 59.14, 1.96 125.59 M0 0 C0.21 40.04, 0.65 80.28, 1.96 125.59" stroke="#1e1e1e" stroke-width="2" fill="none"></path></g><g transform="translate(399.0860067449136 638.697115652865) rotate(0 0.981151714235807 62.79370971109219)"><path d="M-7.16 102.31 C-4.18 107.19, -2.09 113.59, 1.96 125.59 M-7.16 102.31 C-4.39 109.65, -1.67 117.27, 1.96 125.59" stroke="#1e1e1e" stroke-width="2" fill="none"></path></g><g transform="translate(399.0860067449136 638.697115652865) rotate(0 0.981151714235807 62.79370971109219)"><path d="M9.94 101.89 C8.91 106.75, 7 113.25, 1.96 125.59 M9.94 101.89 C7.25 109.51, 4.51 117.25, 1.96 125.59" stroke="#1e1e1e" stroke-width="2" fill="none"></path></g></g><mask></mask><g stroke-linecap="round"><g transform="translate(367.68915188936757 387.5222768084965) rotate(0 0 0)"><path d="M0 0 C0 0, 0 0, 0 0 M0 0 C0 0, 0 0, 0 0" stroke="#1e1e1e" stroke-width="2" fill="none"></path></g></g><mask></mask><g stroke-linecap="round"><g transform="translate(367.68915188936757 388.2691730945771) rotate(0 0 124.13775685163814)"><path d="M0 0 C-1.65 84.5, -2.81 168.23, 0 248.28 M0 0 C0.67 57.03, 1.26 115.07, 0 248.28" stroke="#1e1e1e" stroke-width="2" fill="none"></path></g></g><mask></mask><g stroke-linecap="round"><g transform="translate(521.4761121712218 521.8070396967225) rotate(0 0 57.467019677974434)"><path d="M0 0 C-0.73 42.48, 0.97 83.56, 0 114.93 M0 0 C-0.5 29.91, -0.14 61.04, 0 114.93" stroke="#1e1e1e" stroke-width="2" fill="none"></path></g></g><mask></mask><g stroke-linecap="round"><g transform="translate(789.8807928770577 525.0908693926069) rotate(0 0 55.79301322388193)"><path d="M0 0 C-0.36 32.7, -1.62 66.9, 0 111.59 M0 0 C0.72 28.17, 1.47 55.76, 0 111.59" stroke="#1e1e1e" stroke-width="2" fill="none"></path></g></g><mask></mask><g stroke-linecap="round"><g transform="translate(188.1954996691474 635.9393945853943) rotate(0 0 -50.411937368345775)"><path d="M0 0 C-0.76 -21.86, 2.26 -40.44, 0 -100.82 M0 0 C0.8 -35.97, -0.11 -73.94, 0 -100.82" stroke="#1e1e1e" stroke-width="2" fill="none"></path></g></g><mask></mask><g stroke-linecap="round"><g transform="translate(852.949521238181 525.7166840681638) rotate(0 0 83.7350824084387)"><path d="M0 0 C1.97 55.97, 0.26 112.56, 0 167.47 M0 0 C0.73 53.15, -0.16 105.52, 0 167.47" stroke="#1e1e1e" stroke-width="2" fill="none"></path></g></g><mask></mask><g stroke-linecap="round"><g transform="translate(236.04411818825525 692.3324092686285) rotate(0 0 -78.60844470996284)"><path d="M0 0 C-1.33 -61.36, -1.88 -120.88, 0 -157.22 M0 0 C1.65 -62.61, 0.47 -125.71, 0 -157.22" stroke="#1e1e1e" stroke-width="2" fill="none"></path></g></g><mask></mask><g stroke-linecap="round"><g transform="translate(559.8767328086456 519.7356067532753) rotate(0 0 86.29840125767657)"><path d="M0 0 C2.42 45.55, 2.86 94.32, 0 172.6 M0 0 C-0.29 55.89, -0.2 113.66, 0 172.6" stroke="#1e1e1e" stroke-width="2" fill="none"></path></g></g><mask></mask><g stroke-linecap="round"><g transform="translate(742.7268107209504 695.750167734279) rotate(0 0 29.90538657444239)"><path d="M0 0 C-1.01 16.08, -1.18 34.57, 0 59.81 M0 0 C0.22 17.72, -0.5 33.73, 0 59.81" stroke="#1e1e1e" stroke-width="2" fill="none"></path></g><g transform="translate(742.7268107209504 695.750167734279) rotate(0 0 29.90538657444239)"><path d="M-8.75 36.39 C-7.55 42.06, -5.21 50.12, 0 59.81 M-8.75 36.39 C-6.02 43.83, -4.27 49.56, 0 59.81" stroke="#1e1e1e" stroke-width="2" fill="none"></path></g><g transform="translate(742.7268107209504 695.750167734279) rotate(0 0 29.90538657444239)"><path d="M8.35 36.25 C4.66 41.93, 2.1 50.04, 0 59.81 M8.35 36.25 C6.25 43.75, 3.18 49.53, 0 59.81" stroke="#1e1e1e" stroke-width="2" fill="none"></path></g></g><mask></mask><g stroke-linecap="round"><g transform="translate(911.6005151850868 528.1599187230145) rotate(0 59.18810221146077 114.81065609693002)"><path d="M0 0 C-1.58 41.12, 0.23 77.24, 2.85 171.15 M0 0 C-1.47 37.87, -0.43 77.31, 2.85 171.15 M2.85 171.15 C38.81 172.97, 76.85 171.42, 116.95 171.15 M2.85 171.15 C48.25 170.73, 93.59 171.37, 116.95 171.15 M116.95 171.15 C116.44 187.44, 118.88 201.53, 118.38 229.62 M116.95 171.15 C116.7 194.6, 116.92 217.12, 118.38 229.62" stroke="#1e1e1e" stroke-width="2" fill="none"></path></g><g transform="translate(911.6005151850868 528.1599187230145) rotate(0 59.18810221146077 114.81065609693002)"><path d="M108.14 206.81 C108.88 213.62, 112.4 215.42, 118.38 229.62 M108.14 206.81 C109.7 211.18, 112.4 217.1, 118.38 229.62" stroke="#1e1e1e" stroke-width="2" fill="none"></path></g><g transform="translate(911.6005151850868 528.1599187230145) rotate(0 59.18810221146077 114.81065609693002)"><path d="M125.2 205.57 C121.99 212.65, 121.56 214.74, 118.38 229.62 M125.2 205.57 C122.89 210.16, 121.73 216.36, 118.38 229.62" stroke="#1e1e1e" stroke-width="2" fill="none"></path></g></g><mask></mask><g stroke-linecap="round"><g transform="translate(478.02983874450643 522.4550414014278) rotate(0 -178.99052596477912 118.37620442292166)"><path d="M0 0 C0 0, 0 0, 0 0 M0 0 C0 0, 0 0, 0 0 M0 0 C-0.68 16.64, 0.38 36.54, 1.43 72.74 M0 0 C-0.13 26.02, 0.07 53.62, 1.43 72.74 M1.43 72.74 C-129.08 75.08, -260.38 74.9, -359.41 72.74 M1.43 72.74 C-113.3 73.79, -229.04 72.78, -359.41 72.74 M-359.41 72.74 C-359.15 114.42, -360.56 151.45, -357.98 236.75 M-359.41 72.74 C-358.45 109.67, -359.71 149.25, -357.98 236.75" stroke="#1e1e1e" stroke-width="2" fill="none"></path></g><g transform="translate(478.02983874450643 522.4550414014278) rotate(0 -178.99052596477912 118.37620442292166)"><path d="M-366.84 213.38 C-363.01 221.65, -361.16 230.93, -357.98 236.75 M-366.84 213.38 C-365.86 218.88, -362.15 223.21, -357.98 236.75" stroke="#1e1e1e" stroke-width="2" fill="none"></path></g><g transform="translate(478.02983874450643 522.4550414014278) rotate(0 -178.99052596477912 118.37620442292166)"><path d="M-349.74 213.15 C-351.98 221.57, -356.2 230.93, -357.98 236.75 M-349.74 213.15 C-352.33 218.84, -352.2 223.22, -357.98 236.75" stroke="#1e1e1e" stroke-width="2" fill="none"></path></g></g><mask></mask><g stroke-linecap="round"><g transform="translate(656.307255044087 478.24224215913193) rotate(0 42.07347024670105 0)"><path d="M0 0 C24.28 -1.03, 51.99 1.62, 84.15 0 M0 0 C26.96 0.73, 53.43 -0.31, 84.15 0" stroke="#1e1e1e" stroke-width="2" fill="none"></path></g><g transform="translate(656.307255044087 478.24224215913193) rotate(0 42.07347024670105 0)"><path d="M23.57 -8.33 C14.43 -7.14, 8.68 -1.9, 0 0 M23.57 -8.33 C15.88 -5.51, 7.74 -3.87, 0 0" stroke="#1e1e1e" stroke-width="2" fill="none"></path></g><g transform="translate(656.307255044087 478.24224215913193) rotate(0 42.07347024670105 0)"><path d="M23.41 8.77 C14.26 4.65, 8.56 4.58, 0 0 M23.41 8.77 C15.86 6.1, 7.77 2.24, 0 0" stroke="#1e1e1e" stroke-width="2" fill="none"></path></g><g transform="translate(656.307255044087 478.24224215913193) rotate(0 42.07347024670105 0)"><path d="M60.66 8.55 C66.07 4.66, 74.94 4.66, 84.15 0 M60.66 8.55 C68.17 6.2, 75.15 2.42, 84.15 0" stroke="#1e1e1e" stroke-width="2" fill="none"></path></g><g transform="translate(656.307255044087 478.24224215913193) rotate(0 42.07347024670105 0)"><path d="M60.65 -8.55 C66.13 -7.13, 75 -1.82, 84.15 0 M60.65 -8.55 C68.08 -5.4, 75.07 -3.7, 84.15 0" stroke="#1e1e1e" stroke-width="2" fill="none"></path></g></g><mask></mask></svg>