<svg version="1.1" xmlns="http://www.w3.org/2000/svg" viewBox="0 0 1373.5 1044.8686723860471" width="1373.5" height="1044.8686723860471">
  <!-- svg-source:excalidraw -->
  
  <defs>
    <style class="style-fonts">
      @font-face {
        font-family: "Virgil";
        src: url("https://excalidraw.com/Virgil.woff2");
      }
      @font-face {
        font-family: "Cascadia";
        src: url("https://excalidraw.com/Cascadia.woff2");
      }
      @font-face {
        font-family: "Assistant";
        src: url("https://excalidraw.com/Assistant-Regular.woff2");
      }
    </style>
    
  </defs>
  <rect x="0" y="0" width="1373.5" height="1044.8686723860471" fill="#ffffff"></rect><g stroke-linecap="round" transform="translate(321.5 660.9219868979176) rotate(0 135 161.5)"><path d="M32 0 C92.27 2.15, 149.78 2.51, 238 0 M32 0 C113.57 0.79, 193.54 0.66, 238 0 M238 0 C258.61 -1, 270.28 10.47, 270 32 M238 0 C259.34 -0.47, 270.67 9.83, 270 32 M270 32 C269.66 112.28, 268.28 195.6, 270 291 M270 32 C270.78 105.27, 269.77 177.13, 270 291 M270 291 C270.7 312.13, 260.79 323.13, 238 323 M270 291 C272.05 312.86, 257.25 323.21, 238 323 M238 323 C179.41 321.58, 123.75 321.61, 32 323 M238 323 C164.54 322.04, 90.12 321.85, 32 323 M32 323 C9.84 324.76, 0.46 313.65, 0 291 M32 323 C12.91 322.64, 1.47 312.4, 0 291 M0 291 C1.06 204.8, -0.65 117.14, 0 32 M0 291 C2.17 212.9, 1.59 136.56, 0 32 M0 32 C1.33 11.25, 11.52 -0.03, 32 0 M0 32 C-0.86 11.36, 8.4 -1.54, 32 0" stroke="#1e1e1e" stroke-width="2" fill="none"></path></g><g transform="translate(387.21007537841797 665.9219868979176) rotate(0 69.28992462158203 12.5)"><text x="69.28992462158203" y="17.52" font-family="Virgil, Segoe UI Emoji" font-size="20px" fill="#1e1e1e" text-anchor="middle" style="white-space: pre;" direction="ltr" dominant-baseline="alphabetic">postgres dbms</text></g><g stroke-linecap="round"><g transform="translate(375.381781096576 724.0742594591176) rotate(0 19.105032139548257 18.043131176733084)" fill-rule="evenodd"><path d="M0 0 C0 5.1, -0.11 24.58, 0 30.61 C0.11 36.63, -0.21 34.88, 0.67 36.14 C1.55 37.4, 3.35 37.57, 5.26 38.17 C7.18 38.78, 9.78 39.44, 12.15 39.78 C14.52 40.12, 17.22 40.2, 19.49 40.2 C21.75 40.2, 23.73 40.02, 25.75 39.78 C27.78 39.54, 29.67 39.4, 31.63 38.76 C33.59 38.12, 36.45 37.28, 37.49 35.92 C38.54 34.56, 37.77 35.9, 37.89 30.61 C38.01 25.31, 38.24 9.29, 38.21 4.17 C38.18 -0.95, 38.6 0.97, 37.73 -0.13 C36.86 -1.23, 34.66 -1.83, 32.98 -2.43 C31.3 -3.03, 29.69 -3.45, 27.65 -3.73 C25.6 -4.01, 22.61 -4.05, 20.72 -4.11 C18.83 -4.17, 18.61 -4.24, 16.32 -4.1 C14.03 -3.96, 9.67 -3.96, 6.95 -3.27 C4.23 -2.59, 1.16 -0.55, 0 0" stroke="none" stroke-width="0" fill="#ffc9c9" fill-rule="evenodd"></path><path d="M0 0 C0 5.1, -0.11 24.58, 0 30.61 C0.11 36.63, -0.21 34.88, 0.67 36.14 C1.55 37.4, 3.35 37.57, 5.26 38.17 C7.18 38.78, 9.78 39.44, 12.15 39.78 C14.52 40.12, 17.22 40.2, 19.49 40.2 C21.75 40.2, 23.73 40.02, 25.75 39.78 C27.78 39.54, 29.67 39.4, 31.63 38.76 C33.59 38.12, 36.45 37.28, 37.49 35.92 C38.54 34.56, 37.77 35.9, 37.89 30.61 C38.01 25.31, 38.24 9.29, 38.21 4.17 C38.18 -0.95, 38.6 0.97, 37.73 -0.13 C36.86 -1.23, 34.66 -1.83, 32.98 -2.43 C31.3 -3.03, 29.69 -3.45, 27.65 -3.73 C25.6 -4.01, 22.61 -4.05, 20.72 -4.11 C18.83 -4.17, 18.61 -4.24, 16.32 -4.1 C14.03 -3.96, 9.67 -3.96, 6.95 -3.27 C4.23 -2.59, 1.16 -0.55, 0 0 M0 0 C0 5.1, -0.11 24.58, 0 30.61 C0.11 36.63, -0.21 34.88, 0.67 36.14 C1.55 37.4, 3.35 37.57, 5.26 38.17 C7.18 38.78, 9.78 39.44, 12.15 39.78 C14.52 40.12, 17.22 40.2, 19.49 40.2 C21.75 40.2, 23.73 40.02, 25.75 39.78 C27.78 39.54, 29.67 39.4, 31.63 38.76 C33.59 38.12, 36.45 37.28, 37.49 35.92 C38.54 34.56, 37.77 35.9, 37.89 30.61 C38.01 25.31, 38.24 9.29, 38.21 4.17 C38.18 -0.95, 38.6 0.97, 37.73 -0.13 C36.86 -1.23, 34.66 -1.83, 32.98 -2.43 C31.3 -3.03, 29.69 -3.45, 27.65 -3.73 C25.6 -4.01, 22.61 -4.05, 20.72 -4.11 C18.83 -4.17, 18.61 -4.24, 16.32 -4.1 C14.03 -3.96, 9.67 -3.96, 6.95 -3.27 C4.23 -2.59, 1.16 -0.55, 0 0" stroke="#c92a2a" stroke-width="1" fill="none"></path></g></g><mask></mask><g stroke-linecap="round" transform="translate(375.49808030223585 719.3897022855747) rotate(0 19.071205882003255 5.18536321471197)"><path d="M38.14 5.19 C38.14 5.49, 38.04 5.79, 37.85 6.09 C37.66 6.38, 37.37 6.68, 36.99 6.96 C36.61 7.24, 36.14 7.52, 35.59 7.78 C35.04 8.04, 34.39 8.29, 33.68 8.52 C32.97 8.75, 32.18 8.96, 31.33 9.16 C30.48 9.35, 29.56 9.53, 28.61 9.68 C27.65 9.83, 26.63 9.96, 25.59 10.06 C24.56 10.16, 23.47 10.24, 22.38 10.29 C21.3 10.34, 20.18 10.37, 19.07 10.37 C17.97 10.37, 16.85 10.34, 15.76 10.29 C14.67 10.24, 13.59 10.16, 12.55 10.06 C11.51 9.96, 10.49 9.83, 9.54 9.68 C8.58 9.53, 7.66 9.35, 6.81 9.16 C5.97 8.96, 5.17 8.75, 4.46 8.52 C3.75 8.29, 3.11 8.04, 2.56 7.78 C2 7.52, 1.53 7.24, 1.15 6.96 C0.77 6.68, 0.48 6.38, 0.29 6.09 C0.1 5.79, 0 5.49, 0 5.19 C0 4.89, 0.1 4.58, 0.29 4.28 C0.48 3.99, 0.77 3.69, 1.15 3.41 C1.53 3.13, 2 2.85, 2.56 2.59 C3.11 2.33, 3.75 2.08, 4.46 1.85 C5.17 1.62, 5.97 1.41, 6.81 1.21 C7.66 1.02, 8.58 0.84, 9.54 0.69 C10.49 0.54, 11.51 0.42, 12.55 0.31 C13.59 0.21, 14.67 0.13, 15.76 0.08 C16.85 0.03, 17.97 0, 19.07 0 C20.18 0, 21.3 0.03, 22.38 0.08 C23.47 0.13, 24.56 0.21, 25.59 0.31 C26.63 0.42, 27.65 0.54, 28.61 0.69 C29.56 0.84, 30.48 1.02, 31.33 1.21 C32.18 1.41, 32.97 1.62, 33.68 1.85 C34.39 2.08, 35.04 2.33, 35.59 2.59 C36.14 2.85, 36.61 3.13, 36.99 3.41 C37.37 3.69, 37.66 3.99, 37.85 4.28 C38.04 4.58, 38.09 5.04, 38.14 5.19 C38.19 5.34, 38.19 5.04, 38.14 5.19" stroke="none" stroke-width="0" fill="#ffc9c9"></path><path d="M38.14 5.19 C38.14 5.49, 38.04 5.79, 37.85 6.09 C37.66 6.38, 37.37 6.68, 36.99 6.96 C36.61 7.24, 36.14 7.52, 35.59 7.78 C35.04 8.04, 34.39 8.29, 33.68 8.52 C32.97 8.75, 32.18 8.96, 31.33 9.16 C30.48 9.35, 29.56 9.53, 28.61 9.68 C27.65 9.83, 26.63 9.96, 25.59 10.06 C24.56 10.16, 23.47 10.24, 22.38 10.29 C21.3 10.34, 20.18 10.37, 19.07 10.37 C17.97 10.37, 16.85 10.34, 15.76 10.29 C14.67 10.24, 13.59 10.16, 12.55 10.06 C11.51 9.96, 10.49 9.83, 9.54 9.68 C8.58 9.53, 7.66 9.35, 6.81 9.16 C5.97 8.96, 5.17 8.75, 4.46 8.52 C3.75 8.29, 3.11 8.04, 2.56 7.78 C2 7.52, 1.53 7.24, 1.15 6.96 C0.77 6.68, 0.48 6.38, 0.29 6.09 C0.1 5.79, 0 5.49, 0 5.19 C0 4.89, 0.1 4.58, 0.29 4.28 C0.48 3.99, 0.77 3.69, 1.15 3.41 C1.53 3.13, 2 2.85, 2.56 2.59 C3.11 2.33, 3.75 2.08, 4.46 1.85 C5.17 1.62, 5.97 1.41, 6.81 1.21 C7.66 1.02, 8.58 0.84, 9.54 0.69 C10.49 0.54, 11.51 0.42, 12.55 0.31 C13.59 0.21, 14.67 0.13, 15.76 0.08 C16.85 0.03, 17.97 0, 19.07 0 C20.18 0, 21.3 0.03, 22.38 0.08 C23.47 0.13, 24.56 0.21, 25.59 0.31 C26.63 0.42, 27.65 0.54, 28.61 0.69 C29.56 0.84, 30.48 1.02, 31.33 1.21 C32.18 1.41, 32.97 1.62, 33.68 1.85 C34.39 2.08, 35.04 2.33, 35.59 2.59 C36.14 2.85, 36.61 3.13, 36.99 3.41 C37.37 3.69, 37.66 3.99, 37.85 4.28 C38.04 4.58, 38.09 5.04, 38.14 5.19 C38.19 5.34, 38.19 5.04, 38.14 5.19" stroke="#c92a2a" stroke-width="1" fill="none"></path></g><g stroke-linecap="round"><g transform="translate(376.381781096576 783.0742594591176) rotate(0 19.105032139548257 18.043131176733084)" fill-rule="evenodd"><path d="M0 0 C0 5.1, -0.11 24.58, 0 30.61 C0.11 36.63, -0.21 34.88, 0.67 36.14 C1.55 37.4, 3.35 37.57, 5.26 38.17 C7.18 38.78, 9.78 39.44, 12.15 39.78 C14.52 40.12, 17.22 40.2, 19.49 40.2 C21.75 40.2, 23.73 40.02, 25.75 39.78 C27.78 39.54, 29.67 39.4, 31.63 38.76 C33.59 38.12, 36.45 37.28, 37.49 35.92 C38.54 34.56, 37.77 35.9, 37.89 30.61 C38.01 25.31, 38.24 9.29, 38.21 4.17 C38.18 -0.95, 38.6 0.97, 37.73 -0.13 C36.86 -1.23, 34.66 -1.83, 32.98 -2.43 C31.3 -3.03, 29.69 -3.45, 27.65 -3.73 C25.6 -4.01, 22.61 -4.05, 20.72 -4.11 C18.83 -4.17, 18.61 -4.24, 16.32 -4.1 C14.03 -3.96, 9.67 -3.96, 6.95 -3.27 C4.23 -2.59, 1.16 -0.55, 0 0" stroke="none" stroke-width="0" fill="#ffc9c9" fill-rule="evenodd"></path><path d="M0 0 C0 5.1, -0.11 24.58, 0 30.61 C0.11 36.63, -0.21 34.88, 0.67 36.14 C1.55 37.4, 3.35 37.57, 5.26 38.17 C7.18 38.78, 9.78 39.44, 12.15 39.78 C14.52 40.12, 17.22 40.2, 19.49 40.2 C21.75 40.2, 23.73 40.02, 25.75 39.78 C27.78 39.54, 29.67 39.4, 31.63 38.76 C33.59 38.12, 36.45 37.28, 37.49 35.92 C38.54 34.56, 37.77 35.9, 37.89 30.61 C38.01 25.31, 38.24 9.29, 38.21 4.17 C38.18 -0.95, 38.6 0.97, 37.73 -0.13 C36.86 -1.23, 34.66 -1.83, 32.98 -2.43 C31.3 -3.03, 29.69 -3.45, 27.65 -3.73 C25.6 -4.01, 22.61 -4.05, 20.72 -4.11 C18.83 -4.17, 18.61 -4.24, 16.32 -4.1 C14.03 -3.96, 9.67 -3.96, 6.95 -3.27 C4.23 -2.59, 1.16 -0.55, 0 0 M0 0 C0 5.1, -0.11 24.58, 0 30.61 C0.11 36.63, -0.21 34.88, 0.67 36.14 C1.55 37.4, 3.35 37.57, 5.26 38.17 C7.18 38.78, 9.78 39.44, 12.15 39.78 C14.52 40.12, 17.22 40.2, 19.49 40.2 C21.75 40.2, 23.73 40.02, 25.75 39.78 C27.78 39.54, 29.67 39.4, 31.63 38.76 C33.59 38.12, 36.45 37.28, 37.49 35.92 C38.54 34.56, 37.77 35.9, 37.89 30.61 C38.01 25.31, 38.24 9.29, 38.21 4.17 C38.18 -0.95, 38.6 0.97, 37.73 -0.13 C36.86 -1.23, 34.66 -1.83, 32.98 -2.43 C31.3 -3.03, 29.69 -3.45, 27.65 -3.73 C25.6 -4.01, 22.61 -4.05, 20.72 -4.11 C18.83 -4.17, 18.61 -4.24, 16.32 -4.1 C14.03 -3.96, 9.67 -3.96, 6.95 -3.27 C4.23 -2.59, 1.16 -0.55, 0 0" stroke="#c92a2a" stroke-width="1" fill="none"></path></g></g><mask></mask><g stroke-linecap="round" transform="translate(376.49808030223585 778.3897022855747) rotate(0 19.071205882003255 5.18536321471197)"><path d="M38.14 5.19 C38.14 5.49, 38.04 5.79, 37.85 6.09 C37.66 6.38, 37.37 6.68, 36.99 6.96 C36.61 7.24, 36.14 7.52, 35.59 7.78 C35.04 8.04, 34.39 8.29, 33.68 8.52 C32.97 8.75, 32.18 8.96, 31.33 9.16 C30.48 9.35, 29.56 9.53, 28.61 9.68 C27.65 9.83, 26.63 9.96, 25.59 10.06 C24.56 10.16, 23.47 10.24, 22.38 10.29 C21.3 10.34, 20.18 10.37, 19.07 10.37 C17.97 10.37, 16.85 10.34, 15.76 10.29 C14.67 10.24, 13.59 10.16, 12.55 10.06 C11.51 9.96, 10.49 9.83, 9.54 9.68 C8.58 9.53, 7.66 9.35, 6.81 9.16 C5.97 8.96, 5.17 8.75, 4.46 8.52 C3.75 8.29, 3.11 8.04, 2.56 7.78 C2 7.52, 1.53 7.24, 1.15 6.96 C0.77 6.68, 0.48 6.38, 0.29 6.09 C0.1 5.79, 0 5.49, 0 5.19 C0 4.89, 0.1 4.58, 0.29 4.28 C0.48 3.99, 0.77 3.69, 1.15 3.41 C1.53 3.13, 2 2.85, 2.56 2.59 C3.11 2.33, 3.75 2.08, 4.46 1.85 C5.17 1.62, 5.97 1.41, 6.81 1.21 C7.66 1.02, 8.58 0.84, 9.54 0.69 C10.49 0.54, 11.51 0.42, 12.55 0.31 C13.59 0.21, 14.67 0.13, 15.76 0.08 C16.85 0.03, 17.97 0, 19.07 0 C20.18 0, 21.3 0.03, 22.38 0.08 C23.47 0.13, 24.56 0.21, 25.59 0.31 C26.63 0.42, 27.65 0.54, 28.61 0.69 C29.56 0.84, 30.48 1.02, 31.33 1.21 C32.18 1.41, 32.97 1.62, 33.68 1.85 C34.39 2.08, 35.04 2.33, 35.59 2.59 C36.14 2.85, 36.61 3.13, 36.99 3.41 C37.37 3.69, 37.66 3.99, 37.85 4.28 C38.04 4.58, 38.09 5.04, 38.14 5.19 C38.19 5.34, 38.19 5.04, 38.14 5.19" stroke="none" stroke-width="0" fill="#ffc9c9"></path><path d="M38.14 5.19 C38.14 5.49, 38.04 5.79, 37.85 6.09 C37.66 6.38, 37.37 6.68, 36.99 6.96 C36.61 7.24, 36.14 7.52, 35.59 7.78 C35.04 8.04, 34.39 8.29, 33.68 8.52 C32.97 8.75, 32.18 8.96, 31.33 9.16 C30.48 9.35, 29.56 9.53, 28.61 9.68 C27.65 9.83, 26.63 9.96, 25.59 10.06 C24.56 10.16, 23.47 10.24, 22.38 10.29 C21.3 10.34, 20.18 10.37, 19.07 10.37 C17.97 10.37, 16.85 10.34, 15.76 10.29 C14.67 10.24, 13.59 10.16, 12.55 10.06 C11.51 9.96, 10.49 9.83, 9.54 9.68 C8.58 9.53, 7.66 9.35, 6.81 9.16 C5.97 8.96, 5.17 8.75, 4.46 8.52 C3.75 8.29, 3.11 8.04, 2.56 7.78 C2 7.52, 1.53 7.24, 1.15 6.96 C0.77 6.68, 0.48 6.38, 0.29 6.09 C0.1 5.79, 0 5.49, 0 5.19 C0 4.89, 0.1 4.58, 0.29 4.28 C0.48 3.99, 0.77 3.69, 1.15 3.41 C1.53 3.13, 2 2.85, 2.56 2.59 C3.11 2.33, 3.75 2.08, 4.46 1.85 C5.17 1.62, 5.97 1.41, 6.81 1.21 C7.66 1.02, 8.58 0.84, 9.54 0.69 C10.49 0.54, 11.51 0.42, 12.55 0.31 C13.59 0.21, 14.67 0.13, 15.76 0.08 C16.85 0.03, 17.97 0, 19.07 0 C20.18 0, 21.3 0.03, 22.38 0.08 C23.47 0.13, 24.56 0.21, 25.59 0.31 C26.63 0.42, 27.65 0.54, 28.61 0.69 C29.56 0.84, 30.48 1.02, 31.33 1.21 C32.18 1.41, 32.97 1.62, 33.68 1.85 C34.39 2.08, 35.04 2.33, 35.59 2.59 C36.14 2.85, 36.61 3.13, 36.99 3.41 C37.37 3.69, 37.66 3.99, 37.85 4.28 C38.04 4.58, 38.09 5.04, 38.14 5.19 C38.19 5.34, 38.19 5.04, 38.14 5.19" stroke="#c92a2a" stroke-width="1" fill="none"></path></g><g stroke-linecap="round"><g transform="translate(375.881781096576 843.8242594591176) rotate(0 19.105032139548257 18.043131176733084)" fill-rule="evenodd"><path d="M0 0 C0 5.1, -0.11 24.58, 0 30.61 C0.11 36.63, -0.21 34.88, 0.67 36.14 C1.55 37.4, 3.35 37.57, 5.26 38.17 C7.18 38.78, 9.78 39.44, 12.15 39.78 C14.52 40.12, 17.22 40.2, 19.49 40.2 C21.75 40.2, 23.73 40.02, 25.75 39.78 C27.78 39.54, 29.67 39.4, 31.63 38.76 C33.59 38.12, 36.45 37.28, 37.49 35.92 C38.54 34.56, 37.77 35.9, 37.89 30.61 C38.01 25.31, 38.24 9.29, 38.21 4.17 C38.18 -0.95, 38.6 0.97, 37.73 -0.13 C36.86 -1.23, 34.66 -1.83, 32.98 -2.43 C31.3 -3.03, 29.69 -3.45, 27.65 -3.73 C25.6 -4.01, 22.61 -4.05, 20.72 -4.11 C18.83 -4.17, 18.61 -4.24, 16.32 -4.1 C14.03 -3.96, 9.67 -3.96, 6.95 -3.27 C4.23 -2.59, 1.16 -0.55, 0 0" stroke="none" stroke-width="0" fill="#ffc9c9" fill-rule="evenodd"></path><path d="M0 0 C0 5.1, -0.11 24.58, 0 30.61 C0.11 36.63, -0.21 34.88, 0.67 36.14 C1.55 37.4, 3.35 37.57, 5.26 38.17 C7.18 38.78, 9.78 39.44, 12.15 39.78 C14.52 40.12, 17.22 40.2, 19.49 40.2 C21.75 40.2, 23.73 40.02, 25.75 39.78 C27.78 39.54, 29.67 39.4, 31.63 38.76 C33.59 38.12, 36.45 37.28, 37.49 35.92 C38.54 34.56, 37.77 35.9, 37.89 30.61 C38.01 25.31, 38.24 9.29, 38.21 4.17 C38.18 -0.95, 38.6 0.97, 37.73 -0.13 C36.86 -1.23, 34.66 -1.83, 32.98 -2.43 C31.3 -3.03, 29.69 -3.45, 27.65 -3.73 C25.6 -4.01, 22.61 -4.05, 20.72 -4.11 C18.83 -4.17, 18.61 -4.24, 16.32 -4.1 C14.03 -3.96, 9.67 -3.96, 6.95 -3.27 C4.23 -2.59, 1.16 -0.55, 0 0 M0 0 C0 5.1, -0.11 24.58, 0 30.61 C0.11 36.63, -0.21 34.88, 0.67 36.14 C1.55 37.4, 3.35 37.57, 5.26 38.17 C7.18 38.78, 9.78 39.44, 12.15 39.78 C14.52 40.12, 17.22 40.2, 19.49 40.2 C21.75 40.2, 23.73 40.02, 25.75 39.78 C27.78 39.54, 29.67 39.4, 31.63 38.76 C33.59 38.12, 36.45 37.28, 37.49 35.92 C38.54 34.56, 37.77 35.9, 37.89 30.61 C38.01 25.31, 38.24 9.29, 38.21 4.17 C38.18 -0.95, 38.6 0.97, 37.73 -0.13 C36.86 -1.23, 34.66 -1.83, 32.98 -2.43 C31.3 -3.03, 29.69 -3.45, 27.65 -3.73 C25.6 -4.01, 22.61 -4.05, 20.72 -4.11 C18.83 -4.17, 18.61 -4.24, 16.32 -4.1 C14.03 -3.96, 9.67 -3.96, 6.95 -3.27 C4.23 -2.59, 1.16 -0.55, 0 0" stroke="#c92a2a" stroke-width="1" fill="none"></path></g></g><mask></mask><g stroke-linecap="round" transform="translate(375.99808030223585 839.1397022855747) rotate(0 19.071205882003255 5.18536321471197)"><path d="M38.14 5.19 C38.14 5.49, 38.04 5.79, 37.85 6.09 C37.66 6.38, 37.37 6.68, 36.99 6.96 C36.61 7.24, 36.14 7.52, 35.59 7.78 C35.04 8.04, 34.39 8.29, 33.68 8.52 C32.97 8.75, 32.18 8.96, 31.33 9.16 C30.48 9.35, 29.56 9.53, 28.61 9.68 C27.65 9.83, 26.63 9.96, 25.59 10.06 C24.56 10.16, 23.47 10.24, 22.38 10.29 C21.3 10.34, 20.18 10.37, 19.07 10.37 C17.97 10.37, 16.85 10.34, 15.76 10.29 C14.67 10.24, 13.59 10.16, 12.55 10.06 C11.51 9.96, 10.49 9.83, 9.54 9.68 C8.58 9.53, 7.66 9.35, 6.81 9.16 C5.97 8.96, 5.17 8.75, 4.46 8.52 C3.75 8.29, 3.11 8.04, 2.56 7.78 C2 7.52, 1.53 7.24, 1.15 6.96 C0.77 6.68, 0.48 6.38, 0.29 6.09 C0.1 5.79, 0 5.49, 0 5.19 C0 4.89, 0.1 4.58, 0.29 4.28 C0.48 3.99, 0.77 3.69, 1.15 3.41 C1.53 3.13, 2 2.85, 2.56 2.59 C3.11 2.33, 3.75 2.08, 4.46 1.85 C5.17 1.62, 5.97 1.41, 6.81 1.21 C7.66 1.02, 8.58 0.84, 9.54 0.69 C10.49 0.54, 11.51 0.42, 12.55 0.31 C13.59 0.21, 14.67 0.13, 15.76 0.08 C16.85 0.03, 17.97 0, 19.07 0 C20.18 0, 21.3 0.03, 22.38 0.08 C23.47 0.13, 24.56 0.21, 25.59 0.31 C26.63 0.42, 27.65 0.54, 28.61 0.69 C29.56 0.84, 30.48 1.02, 31.33 1.21 C32.18 1.41, 32.97 1.62, 33.68 1.85 C34.39 2.08, 35.04 2.33, 35.59 2.59 C36.14 2.85, 36.61 3.13, 36.99 3.41 C37.37 3.69, 37.66 3.99, 37.85 4.28 C38.04 4.58, 38.09 5.04, 38.14 5.19 C38.19 5.34, 38.19 5.04, 38.14 5.19" stroke="none" stroke-width="0" fill="#ffc9c9"></path><path d="M38.14 5.19 C38.14 5.49, 38.04 5.79, 37.85 6.09 C37.66 6.38, 37.37 6.68, 36.99 6.96 C36.61 7.24, 36.14 7.52, 35.59 7.78 C35.04 8.04, 34.39 8.29, 33.68 8.52 C32.97 8.75, 32.18 8.96, 31.33 9.16 C30.48 9.35, 29.56 9.53, 28.61 9.68 C27.65 9.83, 26.63 9.96, 25.59 10.06 C24.56 10.16, 23.47 10.24, 22.38 10.29 C21.3 10.34, 20.18 10.37, 19.07 10.37 C17.97 10.37, 16.85 10.34, 15.76 10.29 C14.67 10.24, 13.59 10.16, 12.55 10.06 C11.51 9.96, 10.49 9.83, 9.54 9.68 C8.58 9.53, 7.66 9.35, 6.81 9.16 C5.97 8.96, 5.17 8.75, 4.46 8.52 C3.75 8.29, 3.11 8.04, 2.56 7.78 C2 7.52, 1.53 7.24, 1.15 6.96 C0.77 6.68, 0.48 6.38, 0.29 6.09 C0.1 5.79, 0 5.49, 0 5.19 C0 4.89, 0.1 4.58, 0.29 4.28 C0.48 3.99, 0.77 3.69, 1.15 3.41 C1.53 3.13, 2 2.85, 2.56 2.59 C3.11 2.33, 3.75 2.08, 4.46 1.85 C5.17 1.62, 5.97 1.41, 6.81 1.21 C7.66 1.02, 8.58 0.84, 9.54 0.69 C10.49 0.54, 11.51 0.42, 12.55 0.31 C13.59 0.21, 14.67 0.13, 15.76 0.08 C16.85 0.03, 17.97 0, 19.07 0 C20.18 0, 21.3 0.03, 22.38 0.08 C23.47 0.13, 24.56 0.21, 25.59 0.31 C26.63 0.42, 27.65 0.54, 28.61 0.69 C29.56 0.84, 30.48 1.02, 31.33 1.21 C32.18 1.41, 32.97 1.62, 33.68 1.85 C34.39 2.08, 35.04 2.33, 35.59 2.59 C36.14 2.85, 36.61 3.13, 36.99 3.41 C37.37 3.69, 37.66 3.99, 37.85 4.28 C38.04 4.58, 38.09 5.04, 38.14 5.19 C38.19 5.34, 38.19 5.04, 38.14 5.19" stroke="#c92a2a" stroke-width="1" fill="none"></path></g><g stroke-linecap="round"><g transform="translate(375.381781096576 904.5742594591176) rotate(0 19.105032139548257 18.043131176733084)" fill-rule="evenodd"><path d="M0 0 C0 5.1, -0.11 24.58, 0 30.61 C0.11 36.63, -0.21 34.88, 0.67 36.14 C1.55 37.4, 3.35 37.57, 5.26 38.17 C7.18 38.78, 9.78 39.44, 12.15 39.78 C14.52 40.12, 17.22 40.2, 19.49 40.2 C21.75 40.2, 23.73 40.02, 25.75 39.78 C27.78 39.54, 29.67 39.4, 31.63 38.76 C33.59 38.12, 36.45 37.28, 37.49 35.92 C38.54 34.56, 37.77 35.9, 37.89 30.61 C38.01 25.31, 38.24 9.29, 38.21 4.17 C38.18 -0.95, 38.6 0.97, 37.73 -0.13 C36.86 -1.23, 34.66 -1.83, 32.98 -2.43 C31.3 -3.03, 29.69 -3.45, 27.65 -3.73 C25.6 -4.01, 22.61 -4.05, 20.72 -4.11 C18.83 -4.17, 18.61 -4.24, 16.32 -4.1 C14.03 -3.96, 9.67 -3.96, 6.95 -3.27 C4.23 -2.59, 1.16 -0.55, 0 0" stroke="none" stroke-width="0" fill="#ffc9c9" fill-rule="evenodd"></path><path d="M0 0 C0 5.1, -0.11 24.58, 0 30.61 C0.11 36.63, -0.21 34.88, 0.67 36.14 C1.55 37.4, 3.35 37.57, 5.26 38.17 C7.18 38.78, 9.78 39.44, 12.15 39.78 C14.52 40.12, 17.22 40.2, 19.49 40.2 C21.75 40.2, 23.73 40.02, 25.75 39.78 C27.78 39.54, 29.67 39.4, 31.63 38.76 C33.59 38.12, 36.45 37.28, 37.49 35.92 C38.54 34.56, 37.77 35.9, 37.89 30.61 C38.01 25.31, 38.24 9.29, 38.21 4.17 C38.18 -0.95, 38.6 0.97, 37.73 -0.13 C36.86 -1.23, 34.66 -1.83, 32.98 -2.43 C31.3 -3.03, 29.69 -3.45, 27.65 -3.73 C25.6 -4.01, 22.61 -4.05, 20.72 -4.11 C18.83 -4.17, 18.61 -4.24, 16.32 -4.1 C14.03 -3.96, 9.67 -3.96, 6.95 -3.27 C4.23 -2.59, 1.16 -0.55, 0 0 M0 0 C0 5.1, -0.11 24.58, 0 30.61 C0.11 36.63, -0.21 34.88, 0.67 36.14 C1.55 37.4, 3.35 37.57, 5.26 38.17 C7.18 38.78, 9.78 39.44, 12.15 39.78 C14.52 40.12, 17.22 40.2, 19.49 40.2 C21.75 40.2, 23.73 40.02, 25.75 39.78 C27.78 39.54, 29.67 39.4, 31.63 38.76 C33.59 38.12, 36.45 37.28, 37.49 35.92 C38.54 34.56, 37.77 35.9, 37.89 30.61 C38.01 25.31, 38.24 9.29, 38.21 4.17 C38.18 -0.95, 38.6 0.97, 37.73 -0.13 C36.86 -1.23, 34.66 -1.83, 32.98 -2.43 C31.3 -3.03, 29.69 -3.45, 27.65 -3.73 C25.6 -4.01, 22.61 -4.05, 20.72 -4.11 C18.83 -4.17, 18.61 -4.24, 16.32 -4.1 C14.03 -3.96, 9.67 -3.96, 6.95 -3.27 C4.23 -2.59, 1.16 -0.55, 0 0" stroke="#c92a2a" stroke-width="1" fill="none"></path></g></g><mask></mask><g stroke-linecap="round" transform="translate(375.49808030223585 899.8897022855747) rotate(0 19.071205882003255 5.18536321471197)"><path d="M38.14 5.19 C38.14 5.49, 38.04 5.79, 37.85 6.09 C37.66 6.38, 37.37 6.68, 36.99 6.96 C36.61 7.24, 36.14 7.52, 35.59 7.78 C35.04 8.04, 34.39 8.29, 33.68 8.52 C32.97 8.75, 32.18 8.96, 31.33 9.16 C30.48 9.35, 29.56 9.53, 28.61 9.68 C27.65 9.83, 26.63 9.96, 25.59 10.06 C24.56 10.16, 23.47 10.24, 22.38 10.29 C21.3 10.34, 20.18 10.37, 19.07 10.37 C17.97 10.37, 16.85 10.34, 15.76 10.29 C14.67 10.24, 13.59 10.16, 12.55 10.06 C11.51 9.96, 10.49 9.83, 9.54 9.68 C8.58 9.53, 7.66 9.35, 6.81 9.16 C5.97 8.96, 5.17 8.75, 4.46 8.52 C3.75 8.29, 3.11 8.04, 2.56 7.78 C2 7.52, 1.53 7.24, 1.15 6.96 C0.77 6.68, 0.48 6.38, 0.29 6.09 C0.1 5.79, 0 5.49, 0 5.19 C0 4.89, 0.1 4.58, 0.29 4.28 C0.48 3.99, 0.77 3.69, 1.15 3.41 C1.53 3.13, 2 2.85, 2.56 2.59 C3.11 2.33, 3.75 2.08, 4.46 1.85 C5.17 1.62, 5.97 1.41, 6.81 1.21 C7.66 1.02, 8.58 0.84, 9.54 0.69 C10.49 0.54, 11.51 0.42, 12.55 0.31 C13.59 0.21, 14.67 0.13, 15.76 0.08 C16.85 0.03, 17.97 0, 19.07 0 C20.18 0, 21.3 0.03, 22.38 0.08 C23.47 0.13, 24.56 0.21, 25.59 0.31 C26.63 0.42, 27.65 0.54, 28.61 0.69 C29.56 0.84, 30.48 1.02, 31.33 1.21 C32.18 1.41, 32.97 1.62, 33.68 1.85 C34.39 2.08, 35.04 2.33, 35.59 2.59 C36.14 2.85, 36.61 3.13, 36.99 3.41 C37.37 3.69, 37.66 3.99, 37.85 4.28 C38.04 4.58, 38.09 5.04, 38.14 5.19 C38.19 5.34, 38.19 5.04, 38.14 5.19" stroke="none" stroke-width="0" fill="#ffc9c9"></path><path d="M38.14 5.19 C38.14 5.49, 38.04 5.79, 37.85 6.09 C37.66 6.38, 37.37 6.68, 36.99 6.96 C36.61 7.24, 36.14 7.52, 35.59 7.78 C35.04 8.04, 34.39 8.29, 33.68 8.52 C32.97 8.75, 32.18 8.96, 31.33 9.16 C30.48 9.35, 29.56 9.53, 28.61 9.68 C27.65 9.83, 26.63 9.96, 25.59 10.06 C24.56 10.16, 23.47 10.24, 22.38 10.29 C21.3 10.34, 20.18 10.37, 19.07 10.37 C17.97 10.37, 16.85 10.34, 15.76 10.29 C14.67 10.24, 13.59 10.16, 12.55 10.06 C11.51 9.96, 10.49 9.83, 9.54 9.68 C8.58 9.53, 7.66 9.35, 6.81 9.16 C5.97 8.96, 5.17 8.75, 4.46 8.52 C3.75 8.29, 3.11 8.04, 2.56 7.78 C2 7.52, 1.53 7.24, 1.15 6.96 C0.77 6.68, 0.48 6.38, 0.29 6.09 C0.1 5.79, 0 5.49, 0 5.19 C0 4.89, 0.1 4.58, 0.29 4.28 C0.48 3.99, 0.77 3.69, 1.15 3.41 C1.53 3.13, 2 2.85, 2.56 2.59 C3.11 2.33, 3.75 2.08, 4.46 1.85 C5.17 1.62, 5.97 1.41, 6.81 1.21 C7.66 1.02, 8.58 0.84, 9.54 0.69 C10.49 0.54, 11.51 0.42, 12.55 0.31 C13.59 0.21, 14.67 0.13, 15.76 0.08 C16.85 0.03, 17.97 0, 19.07 0 C20.18 0, 21.3 0.03, 22.38 0.08 C23.47 0.13, 24.56 0.21, 25.59 0.31 C26.63 0.42, 27.65 0.54, 28.61 0.69 C29.56 0.84, 30.48 1.02, 31.33 1.21 C32.18 1.41, 32.97 1.62, 33.68 1.85 C34.39 2.08, 35.04 2.33, 35.59 2.59 C36.14 2.85, 36.61 3.13, 36.99 3.41 C37.37 3.69, 37.66 3.99, 37.85 4.28 C38.04 4.58, 38.09 5.04, 38.14 5.19 C38.19 5.34, 38.19 5.04, 38.14 5.19" stroke="#c92a2a" stroke-width="1" fill="none"></path></g><g stroke-linecap="round"><g transform="translate(291.4282931196294 956.9683026812687) rotate(0 37.025261068736995 34.9673131893411)" fill-rule="evenodd"><path d="M0 0 C0 9.89, -0.22 47.64, 0 59.31 C0.22 70.99, -0.4 67.59, 1.3 70.04 C3 72.48, 6.5 72.8, 10.2 73.98 C13.91 75.16, 18.95 76.44, 23.54 77.1 C28.13 77.75, 33.37 77.9, 37.76 77.9 C42.16 77.9, 45.99 77.56, 49.91 77.1 C53.83 76.63, 57.51 76.36, 61.3 75.11 C65.09 73.87, 70.64 72.25, 72.66 69.62 C74.68 66.98, 73.2 69.57, 73.43 59.31 C73.67 49.06, 74.1 18.01, 74.05 8.08 C74 -1.85, 74.81 1.87, 73.12 -0.26 C71.43 -2.39, 67.17 -3.54, 63.91 -4.71 C60.66 -5.87, 57.54 -6.68, 53.58 -7.23 C49.62 -7.77, 43.81 -7.85, 40.15 -7.97 C36.49 -8.09, 36.07 -8.21, 31.63 -7.94 C27.18 -7.67, 18.75 -7.67, 13.48 -6.34 C8.21 -5.02, 2.25 -1.06, 0 0" stroke="none" stroke-width="0" fill="#ffc9c9" fill-rule="evenodd"></path><path d="M0 0 C0 9.89, -0.22 47.64, 0 59.31 C0.22 70.99, -0.4 67.59, 1.3 70.04 C3 72.48, 6.5 72.8, 10.2 73.98 C13.91 75.16, 18.95 76.44, 23.54 77.1 C28.13 77.75, 33.37 77.9, 37.76 77.9 C42.16 77.9, 45.99 77.56, 49.91 77.1 C53.83 76.63, 57.51 76.36, 61.3 75.11 C65.09 73.87, 70.64 72.25, 72.66 69.62 C74.68 66.98, 73.2 69.57, 73.43 59.31 C73.67 49.06, 74.1 18.01, 74.05 8.08 C74 -1.85, 74.81 1.87, 73.12 -0.26 C71.43 -2.39, 67.17 -3.54, 63.91 -4.71 C60.66 -5.87, 57.54 -6.68, 53.58 -7.23 C49.62 -7.77, 43.81 -7.85, 40.15 -7.97 C36.49 -8.09, 36.07 -8.21, 31.63 -7.94 C27.18 -7.67, 18.75 -7.67, 13.48 -6.34 C8.21 -5.02, 2.25 -1.06, 0 0 M0 0 C0 9.89, -0.22 47.64, 0 59.31 C0.22 70.99, -0.4 67.59, 1.3 70.04 C3 72.48, 6.5 72.8, 10.2 73.98 C13.91 75.16, 18.95 76.44, 23.54 77.1 C28.13 77.75, 33.37 77.9, 37.76 77.9 C42.16 77.9, 45.99 77.56, 49.91 77.1 C53.83 76.63, 57.51 76.36, 61.3 75.11 C65.09 73.87, 70.64 72.25, 72.66 69.62 C74.68 66.98, 73.2 69.57, 73.43 59.31 C73.67 49.06, 74.1 18.01, 74.05 8.08 C74 -1.85, 74.81 1.87, 73.12 -0.26 C71.43 -2.39, 67.17 -3.54, 63.91 -4.71 C60.66 -5.87, 57.54 -6.68, 53.58 -7.23 C49.62 -7.77, 43.81 -7.85, 40.15 -7.97 C36.49 -8.09, 36.07 -8.21, 31.63 -7.94 C27.18 -7.67, 18.75 -7.67, 13.48 -6.34 C8.21 -5.02, 2.25 -1.06, 0 0" stroke="#c92a2a" stroke-width="1" fill="none"></path></g></g><mask></mask><g stroke-linecap="round" transform="translate(291.6536792074512 947.8897022855747) rotate(0 36.95970629722788 10.049154869700999)"><path d="M73.92 10.05 C73.92 10.63, 73.73 11.22, 73.36 11.79 C72.99 12.37, 72.42 12.94, 71.69 13.49 C70.96 14.03, 70.04 14.57, 68.97 15.07 C67.9 15.58, 66.65 16.06, 65.27 16.51 C63.9 16.95, 62.36 17.37, 60.72 17.75 C59.08 18.12, 57.29 18.46, 55.44 18.75 C53.59 19.04, 51.61 19.29, 49.6 19.49 C47.59 19.69, 45.48 19.84, 43.38 19.95 C41.27 20.05, 39.1 20.1, 36.96 20.1 C34.82 20.1, 32.65 20.05, 30.54 19.95 C28.43 19.84, 26.33 19.69, 24.32 19.49 C22.31 19.29, 20.33 19.04, 18.48 18.75 C16.63 18.46, 14.84 18.12, 13.2 17.75 C11.56 17.37, 10.02 16.95, 8.65 16.51 C7.27 16.06, 6.02 15.58, 4.95 15.07 C3.88 14.57, 2.96 14.03, 2.23 13.49 C1.5 12.94, 0.93 12.37, 0.56 11.79 C0.19 11.22, 0 10.63, 0 10.05 C0 9.47, 0.19 8.88, 0.56 8.3 C0.93 7.73, 1.5 7.16, 2.23 6.61 C2.96 6.07, 3.88 5.53, 4.95 5.02 C6.02 4.52, 7.27 4.04, 8.65 3.59 C10.02 3.14, 11.56 2.72, 13.2 2.35 C14.84 1.98, 16.63 1.64, 18.48 1.35 C20.33 1.06, 22.31 0.8, 24.32 0.61 C26.33 0.41, 28.43 0.25, 30.54 0.15 C32.65 0.05, 34.82 0, 36.96 0 C39.1 0, 41.27 0.05, 43.38 0.15 C45.48 0.25, 47.59 0.41, 49.6 0.61 C51.61 0.8, 53.59 1.06, 55.44 1.35 C57.29 1.64, 59.08 1.98, 60.72 2.35 C62.36 2.72, 63.9 3.14, 65.27 3.59 C66.65 4.04, 67.9 4.52, 68.97 5.02 C70.04 5.53, 70.96 6.07, 71.69 6.61 C72.42 7.16, 72.99 7.73, 73.36 8.3 C73.73 8.88, 73.83 9.76, 73.92 10.05 C74.01 10.34, 74.01 9.76, 73.92 10.05" stroke="none" stroke-width="0" fill="#ffc9c9"></path><path d="M73.92 10.05 C73.92 10.63, 73.73 11.22, 73.36 11.79 C72.99 12.37, 72.42 12.94, 71.69 13.49 C70.96 14.03, 70.04 14.57, 68.97 15.07 C67.9 15.58, 66.65 16.06, 65.27 16.51 C63.9 16.95, 62.36 17.37, 60.72 17.75 C59.08 18.12, 57.29 18.46, 55.44 18.75 C53.59 19.04, 51.61 19.29, 49.6 19.49 C47.59 19.69, 45.48 19.84, 43.38 19.95 C41.27 20.05, 39.1 20.1, 36.96 20.1 C34.82 20.1, 32.65 20.05, 30.54 19.95 C28.43 19.84, 26.33 19.69, 24.32 19.49 C22.31 19.29, 20.33 19.04, 18.48 18.75 C16.63 18.46, 14.84 18.12, 13.2 17.75 C11.56 17.37, 10.02 16.95, 8.65 16.51 C7.27 16.06, 6.02 15.58, 4.95 15.07 C3.88 14.57, 2.96 14.03, 2.23 13.49 C1.5 12.94, 0.93 12.37, 0.56 11.79 C0.19 11.22, 0 10.63, 0 10.05 C0 9.47, 0.19 8.88, 0.56 8.3 C0.93 7.73, 1.5 7.16, 2.23 6.61 C2.96 6.07, 3.88 5.53, 4.95 5.02 C6.02 4.52, 7.27 4.04, 8.65 3.59 C10.02 3.14, 11.56 2.72, 13.2 2.35 C14.84 1.98, 16.63 1.64, 18.48 1.35 C20.33 1.06, 22.31 0.8, 24.32 0.61 C26.33 0.41, 28.43 0.25, 30.54 0.15 C32.65 0.05, 34.82 0, 36.96 0 C39.1 0, 41.27 0.05, 43.38 0.15 C45.48 0.25, 47.59 0.41, 49.6 0.61 C51.61 0.8, 53.59 1.06, 55.44 1.35 C57.29 1.64, 59.08 1.98, 60.72 2.35 C62.36 2.72, 63.9 3.14, 65.27 3.59 C66.65 4.04, 67.9 4.52, 68.97 5.02 C70.04 5.53, 70.96 6.07, 71.69 6.61 C72.42 7.16, 72.99 7.73, 73.36 8.3 C73.73 8.88, 73.83 9.76, 73.92 10.05 C74.01 10.34, 74.01 9.76, 73.92 10.05" stroke="#c92a2a" stroke-width="1" fill="none"></path></g><g transform="translate(437.5 732.4219868979176) rotate(0 39.75 12.5)"><text x="39.75" y="17.52" font-family="Virgil, Segoe UI Emoji" font-size="20px" fill="#1e1e1e" text-anchor="middle" style="white-space: pre;" direction="ltr" dominant-baseline="alphabetic">keycloak</text></g><g transform="translate(438.32500076293945 789.9219868979176) rotate(0 29.174999237060547 12.5)"><text x="29.174999237060547" y="17.52" font-family="Virgil, Segoe UI Emoji" font-size="20px" fill="#1e1e1e" text-anchor="middle" style="white-space: pre;" direction="ltr" dominant-baseline="alphabetic">strapi</text></g><g transform="translate(437.79999923706055 847.4219868979176) rotate(0 57.719947814941406 12.5)"><text x="57.719947814941406" y="17.52" font-family="Virgil, Segoe UI Emoji" font-size="20px" fill="#1e1e1e" text-anchor="middle" style="white-space: pre;" direction="ltr" dominant-baseline="alphabetic">connector-c1</text></g><g transform="translate(435.1416664123535 907.1719868979176) rotate(0 62.12994384765625 12.5)"><text x="62.12994384765625" y="17.52" font-family="Virgil, Segoe UI Emoji" font-size="20px" fill="#1e1e1e" text-anchor="middle" style="white-space: pre;" direction="ltr" dominant-baseline="alphabetic">connector-c2</text></g><g stroke-linecap="round" transform="translate(10 667.6719868979176) rotate(0 101 68.5)"><path d="M32 0 C66.39 1.83, 99.84 0.3, 170 0 M32 0 C72.51 -0.98, 112.49 -0.59, 170 0 M170 0 C190.78 0.77, 202.65 9.74, 202 32 M170 0 C191.29 -0.85, 203.42 10.66, 202 32 M202 32 C203.3 59.5, 201.31 87.57, 202 105 M202 32 C201.32 53.23, 202.32 75.11, 202 105 M202 105 C200.78 126.9, 191.83 136.09, 170 137 M202 105 C200.93 127.56, 191.02 137.81, 170 137 M170 137 C120.75 135.99, 70.92 135.49, 32 137 M170 137 C125.2 135.9, 78.81 136.48, 32 137 M32 137 C9.96 135.57, 0.26 124.83, 0 105 M32 137 C12.54 137.37, 0.85 125.17, 0 105 M0 105 C-0.41 79.61, 1 58.53, 0 32 M0 105 C-0.11 78.87, 0.83 51.84, 0 32 M0 32 C0.28 10.94, 9.83 0.77, 32 0 M0 32 C1.19 10.87, 8.48 -0.63, 32 0" stroke="#1e1e1e" stroke-width="2" fill="none"></path></g><g transform="translate(71.24003601074219 723.6719868979176) rotate(0 39.75996398925781 12.5)"><text x="39.75996398925781" y="17.52" font-family="Virgil, Segoe UI Emoji" font-size="20px" fill="#1e1e1e" text-anchor="middle" style="white-space: pre;" direction="ltr" dominant-baseline="alphabetic">keycloak</text></g><g stroke-linecap="round" transform="translate(1161.5 559.9219868979176) rotate(0 101 49)"><path d="M24.5 0 C82.26 0.38, 144.69 2.37, 177.5 0 M24.5 0 C57.89 0.42, 92.69 0.96, 177.5 0 M177.5 0 C192.2 -0.54, 201.41 6.2, 202 24.5 M177.5 0 C195.76 -0.63, 200.72 9.8, 202 24.5 M202 24.5 C201.13 32.74, 199.9 43.3, 202 73.5 M202 24.5 C203.1 43.65, 202.15 60.87, 202 73.5 M202 73.5 C203.8 91.83, 195.38 97.78, 177.5 98 M202 73.5 C201.49 91.37, 195.76 99.3, 177.5 98 M177.5 98 C138.28 96.3, 97.16 96.51, 24.5 98 M177.5 98 C133.13 98.18, 88.5 97.98, 24.5 98 M24.5 98 C6.36 99.51, -0.19 90.99, 0 73.5 M24.5 98 C7.92 98.11, -1.37 88.44, 0 73.5 M0 73.5 C0.8 61.71, 1.52 46.97, 0 24.5 M0 73.5 C0.21 58.85, -0.67 45.07, 0 24.5 M0 24.5 C-0.68 7.83, 6.83 1.02, 24.5 0 M0 24.5 C1.99 9.92, 6.83 1.03, 24.5 0" stroke="#1e1e1e" stroke-width="2" fill="none"></path></g><g transform="translate(1212.1333351135254 596.4219868979176) rotate(0 50.36666488647461 12.5)"><text x="50.36666488647461" y="17.52" font-family="Virgil, Segoe UI Emoji" font-size="20px" fill="#1e1e1e" text-anchor="middle" style="white-space: pre;" direction="ltr" dominant-baseline="alphabetic">http-proxy</text></g><g stroke-linecap="round" transform="translate(193.75 428.1719868979176) rotate(0 101 52.5)"><path d="M26.25 0 C63.21 0.32, 102.04 -0.42, 175.75 0 M26.25 0 C76.88 -1.51, 126.94 -0.67, 175.75 0 M175.75 0 C192.13 -1.9, 201.19 10.22, 202 26.25 M175.75 0 C191.96 -1.64, 202.38 9.84, 202 26.25 M202 26.25 C199.87 38.37, 202.27 48.22, 202 78.75 M202 26.25 C201.1 46.62, 201.34 66.39, 202 78.75 M202 78.75 C201.62 94.33, 194.81 103.74, 175.75 105 M202 78.75 C202.17 97.8, 191.97 106.38, 175.75 105 M175.75 105 C116.18 104.34, 57.27 101.9, 26.25 105 M175.75 105 C146.06 103.25, 115.5 103.4, 26.25 105 M26.25 105 C7.34 106.43, -1.26 95.39, 0 78.75 M26.25 105 C7.42 103.38, -2 96.35, 0 78.75 M0 78.75 C-1.91 59.14, 1.53 42.83, 0 26.25 M0 78.75 C-0.85 66.84, 0.56 53.35, 0 26.25 M0 26.25 C0.03 9.62, 9.4 -0.44, 26.25 0 M0 26.25 C0.93 10.05, 7.01 0.15, 26.25 0" stroke="#1e1e1e" stroke-width="2" fill="none"></path></g><g transform="translate(231.26666641235352 443.1719868979176) rotate(0 63.483333587646484 37.5)"><text x="63.483333587646484" y="17.52" font-family="Virgil, Segoe UI Emoji" font-size="20px" fill="#1e1e1e" text-anchor="middle" style="white-space: pre;" direction="ltr" dominant-baseline="alphabetic">public-portal-</text><text x="63.483333587646484" y="42.519999999999996" font-family="Virgil, Segoe UI Emoji" font-size="20px" fill="#1e1e1e" text-anchor="middle" style="white-space: pre;" direction="ltr" dominant-baseline="alphabetic">backend</text><text x="63.483333587646484" y="67.52" font-family="Virgil, Segoe UI Emoji" font-size="20px" fill="#1e1e1e" text-anchor="middle" style="white-space: pre;" direction="ltr" dominant-baseline="alphabetic">(strapi)</text></g><g stroke-linecap="round" transform="translate(192.75 249.17198689791758) rotate(0 101 51.5)"><path d="M25.75 0 C54.35 -1.23, 87.59 0.77, 176.25 0 M176.25 0 C194.88 -1.21, 201.6 10.34, 202 25.75 M202 25.75 C202.3 38.29, 203.09 49.34, 202 77.25 M202 77.25 C203.78 95.74, 192.05 103.35, 176.25 103 M176.25 103 C128.46 102.36, 76.11 102.37, 25.75 103 M25.75 103 C8.71 102.92, 1.81 93.45, 0 77.25 M0 77.25 C0.51 62.09, -0.21 44.3, 0 25.75 M0 25.75 C-1.89 9.52, 9.68 -1.66, 25.75 0" stroke="#1e1e1e" stroke-width="2.5" fill="none" stroke-dasharray="8 10"></path></g><g transform="translate(230.26666641235352 275.6719868979176) rotate(0 63.483333587646484 24.999999999999996)"><text x="63.483333587646484" y="17.52" font-family="Virgil, Segoe UI Emoji" font-size="20px" fill="#1e1e1e" text-anchor="middle" style="white-space: pre;" direction="ltr" dominant-baseline="alphabetic">public-portal-</text><text x="63.483333587646484" y="42.519999999999996" font-family="Virgil, Segoe UI Emoji" font-size="20px" fill="#1e1e1e" text-anchor="middle" style="white-space: pre;" direction="ltr" dominant-baseline="alphabetic">frontend</text></g><g stroke-linecap="round" transform="translate(668.5 672.1719868979176) rotate(0 101 68.5)"><path d="M32 0 C63.37 -0.15, 90.23 2.54, 170 0 M32 0 C60.6 -0.85, 87.66 -1.08, 170 0 M170 0 C191.86 0.8, 200.98 12.41, 202 32 M170 0 C189.33 -1.26, 199.85 12.02, 202 32 M202 32 C203.1 59.8, 204.33 87.42, 202 105 M202 32 C201.86 60.46, 201.07 89.49, 202 105 M202 105 C202.33 126.53, 191.39 136.74, 170 137 M202 105 C201.89 127.4, 192.63 137.32, 170 137 M170 137 C127.66 135.43, 82.23 136.93, 32 137 M170 137 C123.63 138.2, 75.7 138.13, 32 137 M32 137 C11.61 135.36, -0.28 126.8, 0 105 M32 137 C11.5 136.08, -0.02 127.98, 0 105 M0 105 C-0.99 81.42, 0.28 59.2, 0 32 M0 105 C-1.04 86.93, 0.41 68.37, 0 32 M0 32 C0.05 12.02, 10.26 -1.83, 32 0 M0 32 C0.08 8.8, 12.4 2.26, 32 0" stroke="#1e1e1e" stroke-width="2" fill="none"></path></g><g transform="translate(736.7416648864746 728.1719868979176) rotate(0 32.75833511352539 12.5)"><text x="32.75833511352539" y="17.52" font-family="Virgil, Segoe UI Emoji" font-size="20px" fill="#1e1e1e" text-anchor="middle" style="white-space: pre;" direction="ltr" dominant-baseline="alphabetic">minio-c1</text></g><g stroke-linecap="round" transform="translate(950.5 664.1719868979176) rotate(0 101 68.5)"><path d="M32 0 C69.9 -1.65, 111.08 -2.21, 170 0 M32 0 C72.16 -0.97, 112.4 -0.85, 170 0 M170 0 C192.07 -0.09, 201.44 9.29, 202 32 M170 0 C190.78 0.3, 201.87 8.59, 202 32 M202 32 C200.2 61.72, 201.91 86.85, 202 105 M202 32 C202.11 48.08, 202.34 62.09, 202 105 M202 105 C200.68 127.18, 191.73 136.68, 170 137 M202 105 C202.94 127.13, 189.76 135.42, 170 137 M170 137 C138.42 136.87, 109.5 136.15, 32 137 M170 137 C122.23 137.6, 73.04 137.89, 32 137 M32 137 C11.41 135.17, 1.59 127.69, 0 105 M32 137 C8.45 135.59, 2.15 127.79, 0 105 M0 105 C1.12 88.87, -0.36 70.77, 0 32 M0 105 C0.07 87.37, 0.31 71.98, 0 32 M0 32 C-0.25 10.33, 10.71 -0.62, 32 0 M0 32 C-2.03 11.15, 10.96 0.54, 32 0" stroke="#1e1e1e" stroke-width="2" fill="none"></path></g><g transform="translate(1014.3333320617676 720.1719868979176) rotate(0 37.16666793823242 12.5)"><text x="37.16666793823242" y="17.52" font-family="Virgil, Segoe UI Emoji" font-size="20px" fill="#1e1e1e" text-anchor="middle" style="white-space: pre;" direction="ltr" dominant-baseline="alphabetic">minio-c2</text></g><g stroke-linecap="round"><g transform="translate(840.9282931196294 757.9683026812687) rotate(0 37.025261068736995 34.9673131893411)" fill-rule="evenodd"><path d="M0 0 C0 9.89, -0.22 47.64, 0 59.31 C0.22 70.99, -0.4 67.59, 1.3 70.04 C3 72.48, 6.5 72.8, 10.2 73.98 C13.91 75.16, 18.95 76.44, 23.54 77.1 C28.13 77.75, 33.37 77.9, 37.76 77.9 C42.16 77.9, 45.99 77.56, 49.91 77.1 C53.83 76.63, 57.51 76.36, 61.3 75.11 C65.09 73.87, 70.64 72.25, 72.66 69.62 C74.68 66.98, 73.2 69.57, 73.43 59.31 C73.67 49.06, 74.1 18.01, 74.05 8.08 C74 -1.85, 74.81 1.87, 73.12 -0.26 C71.43 -2.39, 67.17 -3.54, 63.91 -4.71 C60.66 -5.87, 57.54 -6.68, 53.58 -7.23 C49.62 -7.77, 43.81 -7.85, 40.15 -7.97 C36.49 -8.09, 36.07 -8.21, 31.63 -7.94 C27.18 -7.67, 18.75 -7.67, 13.48 -6.34 C8.21 -5.02, 2.25 -1.06, 0 0" stroke="none" stroke-width="0" fill="#ffc9c9" fill-rule="evenodd"></path><path d="M0 0 C0 9.89, -0.22 47.64, 0 59.31 C0.22 70.99, -0.4 67.59, 1.3 70.04 C3 72.48, 6.5 72.8, 10.2 73.98 C13.91 75.16, 18.95 76.44, 23.54 77.1 C28.13 77.75, 33.37 77.9, 37.76 77.9 C42.16 77.9, 45.99 77.56, 49.91 77.1 C53.83 76.63, 57.51 76.36, 61.3 75.11 C65.09 73.87, 70.64 72.25, 72.66 69.62 C74.68 66.98, 73.2 69.57, 73.43 59.31 C73.67 49.06, 74.1 18.01, 74.05 8.08 C74 -1.85, 74.81 1.87, 73.12 -0.26 C71.43 -2.39, 67.17 -3.54, 63.91 -4.71 C60.66 -5.87, 57.54 -6.68, 53.58 -7.23 C49.62 -7.77, 43.81 -7.85, 40.15 -7.97 C36.49 -8.09, 36.07 -8.21, 31.63 -7.94 C27.18 -7.67, 18.75 -7.67, 13.48 -6.34 C8.21 -5.02, 2.25 -1.06, 0 0 M0 0 C0 9.89, -0.22 47.64, 0 59.31 C0.22 70.99, -0.4 67.59, 1.3 70.04 C3 72.48, 6.5 72.8, 10.2 73.98 C13.91 75.16, 18.95 76.44, 23.54 77.1 C28.13 77.75, 33.37 77.9, 37.76 77.9 C42.16 77.9, 45.99 77.56, 49.91 77.1 C53.83 76.63, 57.51 76.36, 61.3 75.11 C65.09 73.87, 70.64 72.25, 72.66 69.62 C74.68 66.98, 73.2 69.57, 73.43 59.31 C73.67 49.06, 74.1 18.01, 74.05 8.08 C74 -1.85, 74.81 1.87, 73.12 -0.26 C71.43 -2.39, 67.17 -3.54, 63.91 -4.71 C60.66 -5.87, 57.54 -6.68, 53.58 -7.23 C49.62 -7.77, 43.81 -7.85, 40.15 -7.97 C36.49 -8.09, 36.07 -8.21, 31.63 -7.94 C27.18 -7.67, 18.75 -7.67, 13.48 -6.34 C8.21 -5.02, 2.25 -1.06, 0 0" stroke="#c92a2a" stroke-width="1" fill="none"></path></g></g><mask></mask><g stroke-linecap="round" transform="translate(841.1536792074512 748.8897022855747) rotate(0 36.95970629722791 10.049154869700999)"><path d="M73.92 10.05 C73.92 10.63, 73.73 11.22, 73.36 11.79 C72.99 12.37, 72.42 12.94, 71.69 13.49 C70.96 14.03, 70.04 14.57, 68.97 15.07 C67.9 15.58, 66.65 16.06, 65.27 16.51 C63.9 16.95, 62.36 17.37, 60.72 17.75 C59.08 18.12, 57.29 18.46, 55.44 18.75 C53.59 19.04, 51.61 19.29, 49.6 19.49 C47.59 19.69, 45.48 19.84, 43.38 19.95 C41.27 20.05, 39.1 20.1, 36.96 20.1 C34.82 20.1, 32.65 20.05, 30.54 19.95 C28.43 19.84, 26.33 19.69, 24.32 19.49 C22.31 19.29, 20.33 19.04, 18.48 18.75 C16.63 18.46, 14.84 18.12, 13.2 17.75 C11.56 17.37, 10.02 16.95, 8.65 16.51 C7.27 16.06, 6.02 15.58, 4.95 15.07 C3.88 14.57, 2.96 14.03, 2.23 13.49 C1.5 12.94, 0.93 12.37, 0.56 11.79 C0.19 11.22, 0 10.63, 0 10.05 C0 9.47, 0.19 8.88, 0.56 8.3 C0.93 7.73, 1.5 7.16, 2.23 6.61 C2.96 6.07, 3.88 5.53, 4.95 5.02 C6.02 4.52, 7.27 4.04, 8.65 3.59 C10.02 3.14, 11.56 2.72, 13.2 2.35 C14.84 1.98, 16.63 1.64, 18.48 1.35 C20.33 1.06, 22.31 0.8, 24.32 0.61 C26.33 0.41, 28.43 0.25, 30.54 0.15 C32.65 0.05, 34.82 0, 36.96 0 C39.1 0, 41.27 0.05, 43.38 0.15 C45.48 0.25, 47.59 0.41, 49.6 0.61 C51.61 0.8, 53.59 1.06, 55.44 1.35 C57.29 1.64, 59.08 1.98, 60.72 2.35 C62.36 2.72, 63.9 3.14, 65.27 3.59 C66.65 4.04, 67.9 4.52, 68.97 5.02 C70.04 5.53, 70.96 6.07, 71.69 6.61 C72.42 7.16, 72.99 7.73, 73.36 8.3 C73.73 8.88, 73.83 9.76, 73.92 10.05 C74.01 10.34, 74.01 9.76, 73.92 10.05" stroke="none" stroke-width="0" fill="#ffc9c9"></path><path d="M73.92 10.05 C73.92 10.63, 73.73 11.22, 73.36 11.79 C72.99 12.37, 72.42 12.94, 71.69 13.49 C70.96 14.03, 70.04 14.57, 68.97 15.07 C67.9 15.58, 66.65 16.06, 65.27 16.51 C63.9 16.95, 62.36 17.37, 60.72 17.75 C59.08 18.12, 57.29 18.46, 55.44 18.75 C53.59 19.04, 51.61 19.29, 49.6 19.49 C47.59 19.69, 45.48 19.84, 43.38 19.95 C41.27 20.05, 39.1 20.1, 36.96 20.1 C34.82 20.1, 32.65 20.05, 30.54 19.95 C28.43 19.84, 26.33 19.69, 24.32 19.49 C22.31 19.29, 20.33 19.04, 18.48 18.75 C16.63 18.46, 14.84 18.12, 13.2 17.75 C11.56 17.37, 10.02 16.95, 8.65 16.51 C7.27 16.06, 6.02 15.58, 4.95 15.07 C3.88 14.57, 2.96 14.03, 2.23 13.49 C1.5 12.94, 0.93 12.37, 0.56 11.79 C0.19 11.22, 0 10.63, 0 10.05 C0 9.47, 0.19 8.88, 0.56 8.3 C0.93 7.73, 1.5 7.16, 2.23 6.61 C2.96 6.07, 3.88 5.53, 4.95 5.02 C6.02 4.52, 7.27 4.04, 8.65 3.59 C10.02 3.14, 11.56 2.72, 13.2 2.35 C14.84 1.98, 16.63 1.64, 18.48 1.35 C20.33 1.06, 22.31 0.8, 24.32 0.61 C26.33 0.41, 28.43 0.25, 30.54 0.15 C32.65 0.05, 34.82 0, 36.96 0 C39.1 0, 41.27 0.05, 43.38 0.15 C45.48 0.25, 47.59 0.41, 49.6 0.61 C51.61 0.8, 53.59 1.06, 55.44 1.35 C57.29 1.64, 59.08 1.98, 60.72 2.35 C62.36 2.72, 63.9 3.14, 65.27 3.59 C66.65 4.04, 67.9 4.52, 68.97 5.02 C70.04 5.53, 70.96 6.07, 71.69 6.61 C72.42 7.16, 72.99 7.73, 73.36 8.3 C73.73 8.88, 73.83 9.76, 73.92 10.05 C74.01 10.34, 74.01 9.76, 73.92 10.05" stroke="#c92a2a" stroke-width="1" fill="none"></path></g><g stroke-linecap="round"><g transform="translate(1121.9282931196294 761.9683026812687) rotate(0 37.025261068736995 34.9673131893411)" fill-rule="evenodd"><path d="M0 0 C0 9.89, -0.22 47.64, 0 59.31 C0.22 70.99, -0.4 67.59, 1.3 70.04 C3 72.48, 6.5 72.8, 10.2 73.98 C13.91 75.16, 18.95 76.44, 23.54 77.1 C28.13 77.75, 33.37 77.9, 37.76 77.9 C42.16 77.9, 45.99 77.56, 49.91 77.1 C53.83 76.63, 57.51 76.36, 61.3 75.11 C65.09 73.87, 70.64 72.25, 72.66 69.62 C74.68 66.98, 73.2 69.57, 73.43 59.31 C73.67 49.06, 74.1 18.01, 74.05 8.08 C74 -1.85, 74.81 1.87, 73.12 -0.26 C71.43 -2.39, 67.17 -3.54, 63.91 -4.71 C60.66 -5.87, 57.54 -6.68, 53.58 -7.23 C49.62 -7.77, 43.81 -7.85, 40.15 -7.97 C36.49 -8.09, 36.07 -8.21, 31.63 -7.94 C27.18 -7.67, 18.75 -7.67, 13.48 -6.34 C8.21 -5.02, 2.25 -1.06, 0 0" stroke="none" stroke-width="0" fill="#ffc9c9" fill-rule="evenodd"></path><path d="M0 0 C0 9.89, -0.22 47.64, 0 59.31 C0.22 70.99, -0.4 67.59, 1.3 70.04 C3 72.48, 6.5 72.8, 10.2 73.98 C13.91 75.16, 18.95 76.44, 23.54 77.1 C28.13 77.75, 33.37 77.9, 37.76 77.9 C42.16 77.9, 45.99 77.56, 49.91 77.1 C53.83 76.63, 57.51 76.36, 61.3 75.11 C65.09 73.87, 70.64 72.25, 72.66 69.62 C74.68 66.98, 73.2 69.57, 73.43 59.31 C73.67 49.06, 74.1 18.01, 74.05 8.08 C74 -1.85, 74.81 1.87, 73.12 -0.26 C71.43 -2.39, 67.17 -3.54, 63.91 -4.71 C60.66 -5.87, 57.54 -6.68, 53.58 -7.23 C49.62 -7.77, 43.81 -7.85, 40.15 -7.97 C36.49 -8.09, 36.07 -8.21, 31.63 -7.94 C27.18 -7.67, 18.75 -7.67, 13.48 -6.34 C8.21 -5.02, 2.25 -1.06, 0 0 M0 0 C0 9.89, -0.22 47.64, 0 59.31 C0.22 70.99, -0.4 67.59, 1.3 70.04 C3 72.48, 6.5 72.8, 10.2 73.98 C13.91 75.16, 18.95 76.44, 23.54 77.1 C28.13 77.75, 33.37 77.9, 37.76 77.9 C42.16 77.9, 45.99 77.56, 49.91 77.1 C53.83 76.63, 57.51 76.36, 61.3 75.11 C65.09 73.87, 70.64 72.25, 72.66 69.62 C74.68 66.98, 73.2 69.57, 73.43 59.31 C73.67 49.06, 74.1 18.01, 74.05 8.08 C74 -1.85, 74.81 1.87, 73.12 -0.26 C71.43 -2.39, 67.17 -3.54, 63.91 -4.71 C60.66 -5.87, 57.54 -6.68, 53.58 -7.23 C49.62 -7.77, 43.81 -7.85, 40.15 -7.97 C36.49 -8.09, 36.07 -8.21, 31.63 -7.94 C27.18 -7.67, 18.75 -7.67, 13.48 -6.34 C8.21 -5.02, 2.25 -1.06, 0 0" stroke="#c92a2a" stroke-width="1" fill="none"></path></g></g><mask></mask><g stroke-linecap="round" transform="translate(1122.1536792074512 752.8897022855747) rotate(0 36.959706297227854 10.049154869700999)"><path d="M73.92 10.05 C73.92 10.63, 73.73 11.22, 73.36 11.79 C72.99 12.37, 72.42 12.94, 71.69 13.49 C70.96 14.03, 70.04 14.57, 68.97 15.07 C67.9 15.58, 66.65 16.06, 65.27 16.51 C63.9 16.95, 62.36 17.37, 60.72 17.75 C59.08 18.12, 57.29 18.46, 55.44 18.75 C53.59 19.04, 51.61 19.29, 49.6 19.49 C47.59 19.69, 45.48 19.84, 43.38 19.95 C41.27 20.05, 39.1 20.1, 36.96 20.1 C34.82 20.1, 32.65 20.05, 30.54 19.95 C28.43 19.84, 26.33 19.69, 24.32 19.49 C22.31 19.29, 20.33 19.04, 18.48 18.75 C16.63 18.46, 14.84 18.12, 13.2 17.75 C11.56 17.37, 10.02 16.95, 8.65 16.51 C7.27 16.06, 6.02 15.58, 4.95 15.07 C3.88 14.57, 2.96 14.03, 2.23 13.49 C1.5 12.94, 0.93 12.37, 0.56 11.79 C0.19 11.22, 0 10.63, 0 10.05 C0 9.47, 0.19 8.88, 0.56 8.3 C0.93 7.73, 1.5 7.16, 2.23 6.61 C2.96 6.07, 3.88 5.53, 4.95 5.02 C6.02 4.52, 7.27 4.04, 8.65 3.59 C10.02 3.14, 11.56 2.72, 13.2 2.35 C14.84 1.98, 16.63 1.64, 18.48 1.35 C20.33 1.06, 22.31 0.8, 24.32 0.61 C26.33 0.41, 28.43 0.25, 30.54 0.15 C32.65 0.05, 34.82 0, 36.96 0 C39.1 0, 41.27 0.05, 43.38 0.15 C45.48 0.25, 47.59 0.41, 49.6 0.61 C51.61 0.8, 53.59 1.06, 55.44 1.35 C57.29 1.64, 59.08 1.98, 60.72 2.35 C62.36 2.72, 63.9 3.14, 65.27 3.59 C66.65 4.04, 67.9 4.52, 68.97 5.02 C70.04 5.53, 70.96 6.07, 71.69 6.61 C72.42 7.16, 72.99 7.73, 73.36 8.3 C73.73 8.88, 73.83 9.76, 73.92 10.05 C74.01 10.34, 74.01 9.76, 73.92 10.05" stroke="none" stroke-width="0" fill="#ffc9c9"></path><path d="M73.92 10.05 C73.92 10.63, 73.73 11.22, 73.36 11.79 C72.99 12.37, 72.42 12.94, 71.69 13.49 C70.96 14.03, 70.04 14.57, 68.97 15.07 C67.9 15.58, 66.65 16.06, 65.27 16.51 C63.9 16.95, 62.36 17.37, 60.72 17.75 C59.08 18.12, 57.29 18.46, 55.44 18.75 C53.59 19.04, 51.61 19.29, 49.6 19.49 C47.59 19.69, 45.48 19.84, 43.38 19.95 C41.27 20.05, 39.1 20.1, 36.96 20.1 C34.82 20.1, 32.65 20.05, 30.54 19.95 C28.43 19.84, 26.33 19.69, 24.32 19.49 C22.31 19.29, 20.33 19.04, 18.48 18.75 C16.63 18.46, 14.84 18.12, 13.2 17.75 C11.56 17.37, 10.02 16.95, 8.65 16.51 C7.27 16.06, 6.02 15.58, 4.95 15.07 C3.88 14.57, 2.96 14.03, 2.23 13.49 C1.5 12.94, 0.93 12.37, 0.56 11.79 C0.19 11.22, 0 10.63, 0 10.05 C0 9.47, 0.19 8.88, 0.56 8.3 C0.93 7.73, 1.5 7.16, 2.23 6.61 C2.96 6.07, 3.88 5.53, 4.95 5.02 C6.02 4.52, 7.27 4.04, 8.65 3.59 C10.02 3.14, 11.56 2.72, 13.2 2.35 C14.84 1.98, 16.63 1.64, 18.48 1.35 C20.33 1.06, 22.31 0.8, 24.32 0.61 C26.33 0.41, 28.43 0.25, 30.54 0.15 C32.65 0.05, 34.82 0, 36.96 0 C39.1 0, 41.27 0.05, 43.38 0.15 C45.48 0.25, 47.59 0.41, 49.6 0.61 C51.61 0.8, 53.59 1.06, 55.44 1.35 C57.29 1.64, 59.08 1.98, 60.72 2.35 C62.36 2.72, 63.9 3.14, 65.27 3.59 C66.65 4.04, 67.9 4.52, 68.97 5.02 C70.04 5.53, 70.96 6.07, 71.69 6.61 C72.42 7.16, 72.99 7.73, 73.36 8.3 C73.73 8.88, 73.83 9.76, 73.92 10.05 C74.01 10.34, 74.01 9.76, 73.92 10.05" stroke="#c92a2a" stroke-width="1" fill="none"></path></g><g stroke-linecap="round" transform="translate(515.75 421.1719868979176) rotate(0 108 49)"><path d="M24.5 0 C68.32 0.82, 115.3 -1.91, 191.5 0 M24.5 0 C70.34 2.29, 114.83 0.66, 191.5 0 M191.5 0 C209.17 0.92, 217.67 9.35, 216 24.5 M191.5 0 C209.09 1.4, 214.9 8.83, 216 24.5 M216 24.5 C217.64 40.51, 218.11 53.6, 216 73.5 M216 24.5 C216.47 42.58, 216.01 60.19, 216 73.5 M216 73.5 C214.1 89.33, 206.57 99.76, 191.5 98 M216 73.5 C215.21 91.88, 206.15 99.14, 191.5 98 M191.5 98 C145.97 98.03, 96.36 98.25, 24.5 98 M191.5 98 C127.2 98.72, 61.98 98.46, 24.5 98 M24.5 98 C8.26 98.06, 0.34 87.97, 0 73.5 M24.5 98 C7.54 96, 0.76 88.07, 0 73.5 M0 73.5 C-0.43 60.83, -0.95 47.51, 0 24.5 M0 73.5 C0.2 56.27, -0.47 36.98, 0 24.5 M0 24.5 C0.54 6.43, 7.54 -1.59, 24.5 0 M0 24.5 C-0.17 9.8, 6.97 0.8, 24.5 0" stroke="#1e1e1e" stroke-width="2" fill="none"></path></g><g transform="translate(566.0300521850586 457.6719868979176) rotate(0 57.719947814941406 12.5)"><text x="57.719947814941406" y="17.52" font-family="Virgil, Segoe UI Emoji" font-size="20px" fill="#1e1e1e" text-anchor="middle" style="white-space: pre;" direction="ltr" dominant-baseline="alphabetic">connector-c1</text></g><g stroke-linecap="round" transform="translate(828.25 426.1719868979176) rotate(0 108 49)"><path d="M24.5 0 C82.44 1.66, 143.64 -1.35, 191.5 0 M24.5 0 C89.94 1.35, 155.27 0.9, 191.5 0 M191.5 0 C206.73 1.79, 214.87 6.74, 216 24.5 M191.5 0 C208.4 0.86, 214.17 6.51, 216 24.5 M216 24.5 C216.31 36.16, 213.86 45.37, 216 73.5 M216 24.5 C214.78 37.29, 215.46 51.81, 216 73.5 M216 73.5 C216.3 91.2, 206.84 96.95, 191.5 98 M216 73.5 C214.79 91.91, 206.41 99.52, 191.5 98 M191.5 98 C141.89 100.53, 92.21 98.55, 24.5 98 M191.5 98 C156.56 96.49, 124.22 96.24, 24.5 98 M24.5 98 C7.55 96.39, -0.63 88.06, 0 73.5 M24.5 98 C6.44 99.46, 0.77 88.4, 0 73.5 M0 73.5 C-0.69 59.9, -0.18 41.05, 0 24.5 M0 73.5 C-0.19 59.23, -1.01 47.56, 0 24.5 M0 24.5 C-1.22 6.89, 9.18 -0.05, 24.5 0 M0 24.5 C0.46 6.55, 7.41 0.59, 24.5 0" stroke="#1e1e1e" stroke-width="2" fill="none"></path></g><g transform="translate(874.1416664123535 462.6719868979176) rotate(0 62.108333587646484 12.5)"><text x="62.108333587646484" y="17.52" font-family="Virgil, Segoe UI Emoji" font-size="20px" fill="#1e1e1e" text-anchor="middle" style="white-space: pre;" direction="ltr" dominant-baseline="alphabetic">connector-c2</text></g><g stroke-linecap="round" transform="translate(511.75 251.17198689791758) rotate(0 108 49)"><path d="M24.5 0 C77.83 0.55, 126.8 -0.45, 191.5 0 M24.5 0 C69.66 -0.51, 114.69 0.96, 191.5 0 M191.5 0 C206.59 0.43, 217.93 7.98, 216 24.5 M191.5 0 C205.65 1.6, 217.51 6.37, 216 24.5 M216 24.5 C214.14 42.05, 215.63 58.56, 216 73.5 M216 24.5 C215.07 39.92, 216.21 56.09, 216 73.5 M216 73.5 C214.61 88.19, 205.99 96.83, 191.5 98 M216 73.5 C214.67 92.07, 207.36 99.14, 191.5 98 M191.5 98 C149.79 99.97, 105.47 98.13, 24.5 98 M191.5 98 C148.12 97.63, 105.36 97.93, 24.5 98 M24.5 98 C8.29 97.92, -1.43 91.47, 0 73.5 M24.5 98 C10.02 98.91, -0.29 89.73, 0 73.5 M0 73.5 C0.04 59.68, -0.27 46.92, 0 24.5 M0 73.5 C0.33 60.18, -1.08 46.91, 0 24.5 M0 24.5 C1.84 9.78, 9.34 -0.81, 24.5 0 M0 24.5 C-2.23 9.4, 9.76 0.35, 24.5 0" stroke="#1e1e1e" stroke-width="2" fill="none"></path></g><g transform="translate(562.0300521850586 275.1719868979176) rotate(0 57.719947814941406 25)"><text x="57.719947814941406" y="17.52" font-family="Virgil, Segoe UI Emoji" font-size="20px" fill="#1e1e1e" text-anchor="middle" style="white-space: pre;" direction="ltr" dominant-baseline="alphabetic">connector-c1</text><text x="57.719947814941406" y="42.519999999999996" font-family="Virgil, Segoe UI Emoji" font-size="20px" fill="#1e1e1e" text-anchor="middle" style="white-space: pre;" direction="ltr" dominant-baseline="alphabetic">frontend</text></g><g stroke-linecap="round" transform="translate(826.75 249.17198689791758) rotate(0 108 49)"><path d="M24.5 0 C86.03 2.49, 143 2.34, 191.5 0 M24.5 0 C71.5 0.05, 117.74 -1.36, 191.5 0 M191.5 0 C209.63 -1.13, 214.57 8.66, 216 24.5 M191.5 0 C208.69 -1.83, 214.34 6.19, 216 24.5 M216 24.5 C217.18 34.03, 215.89 46.58, 216 73.5 M216 24.5 C215.48 35.18, 216.73 46.31, 216 73.5 M216 73.5 C217.36 88.84, 206.78 96.95, 191.5 98 M216 73.5 C218.08 88.41, 209.35 97.87, 191.5 98 M191.5 98 C130.36 96.59, 66.18 95.69, 24.5 98 M191.5 98 C133.95 97.57, 76.58 96.31, 24.5 98 M24.5 98 C6.55 97.37, -1.78 88.33, 0 73.5 M24.5 98 C9.62 98.77, -1.44 90.21, 0 73.5 M0 73.5 C1.5 61.34, -1.85 49.59, 0 24.5 M0 73.5 C-1.38 56.38, 0.27 40.36, 0 24.5 M0 24.5 C-1.27 9.18, 8.12 0.4, 24.5 0 M0 24.5 C-1.61 7.41, 8.76 -1.7, 24.5 0" stroke="#1e1e1e" stroke-width="2" fill="none"></path></g><g transform="translate(872.6416664123535 273.1719868979176) rotate(0 62.108333587646484 25)"><text x="62.108333587646484" y="17.52" font-family="Virgil, Segoe UI Emoji" font-size="20px" fill="#1e1e1e" text-anchor="middle" style="white-space: pre;" direction="ltr" dominant-baseline="alphabetic">connector-c2</text><text x="62.108333587646484" y="42.519999999999996" font-family="Virgil, Segoe UI Emoji" font-size="20px" fill="#1e1e1e" text-anchor="middle" style="white-space: pre;" direction="ltr" dominant-baseline="alphabetic">frontend</text></g><g transform="translate(601.7175754458783 86.34397379583515) rotate(0 23 12.5)"><text x="0" y="17.52" font-family="Virgil, Segoe UI Emoji" font-size="20px" fill="#000000" text-anchor="start" style="white-space: pre;" direction="ltr" dominant-baseline="alphabetic">User</text></g><g stroke-linecap="round"><g transform="translate(598.9303547973709 76.69104778585643) rotate(0 24.63471035906872 -21.936502105304598)"><path d="M0 0 C0.92 -4.85, 1.58 -21.76, 5.52 -29.07 C9.46 -36.38, 17.61 -43.34, 23.65 -43.87 C29.69 -44.4, 37.51 -39.05, 41.78 -32.24 C46.05 -25.43, 56.23 -8.39, 49.27 -3.02 C42.31 2.36, 8.21 -0.5, 0 0 M0 0 C0.92 -4.85, 1.58 -21.76, 5.52 -29.07 C9.46 -36.38, 17.61 -43.34, 23.65 -43.87 C29.69 -44.4, 37.51 -39.05, 41.78 -32.24 C46.05 -25.43, 56.23 -8.39, 49.27 -3.02 C42.31 2.36, 8.21 -0.5, 0 0" stroke="#000000" stroke-width="2" fill="none"></path></g></g><mask></mask><g stroke-linecap="round" transform="translate(611.3842256336866 10) rotate(0 12.612971703843186 11.036350240862845)"><path d="M25.23 11.04 C25.23 11.68, 25.16 12.32, 25.03 12.95 C24.91 13.58, 24.71 14.21, 24.47 14.81 C24.22 15.41, 23.9 16, 23.54 16.55 C23.17 17.11, 22.74 17.64, 22.28 18.13 C21.81 18.62, 21.28 19.08, 20.72 19.49 C20.16 19.9, 19.55 20.27, 18.92 20.59 C18.29 20.91, 17.61 21.19, 16.93 21.41 C16.24 21.63, 15.52 21.79, 14.8 21.91 C14.08 22.02, 13.34 22.07, 12.61 22.07 C11.88 22.07, 11.14 22.02, 10.42 21.91 C9.7 21.79, 8.99 21.63, 8.3 21.41 C7.61 21.19, 6.94 20.91, 6.31 20.59 C5.67 20.27, 5.06 19.9, 4.51 19.49 C3.95 19.08, 3.42 18.62, 2.95 18.13 C2.48 17.64, 2.05 17.11, 1.69 16.55 C1.32 16, 1.01 15.41, 0.76 14.81 C0.51 14.21, 0.32 13.58, 0.19 12.95 C0.06 12.32, 0 11.68, 0 11.04 C0 10.4, 0.06 9.75, 0.19 9.12 C0.32 8.49, 0.51 7.86, 0.76 7.26 C1.01 6.66, 1.32 6.07, 1.69 5.52 C2.05 4.96, 2.48 4.43, 2.95 3.94 C3.42 3.45, 3.95 2.99, 4.51 2.58 C5.06 2.17, 5.67 1.8, 6.31 1.48 C6.94 1.16, 7.61 0.88, 8.3 0.67 C8.99 0.45, 9.7 0.28, 10.42 0.17 C11.14 0.06, 11.88 0, 12.61 0 C13.34 0, 14.08 0.06, 14.8 0.17 C15.52 0.28, 16.24 0.45, 16.93 0.67 C17.61 0.88, 18.29 1.16, 18.92 1.48 C19.55 1.8, 20.16 2.17, 20.72 2.58 C21.28 2.99, 21.81 3.45, 22.28 3.94 C22.74 4.43, 23.17 4.96, 23.54 5.52 C23.9 6.07, 24.22 6.66, 24.47 7.26 C24.71 7.86, 24.91 8.49, 25.03 9.12 C25.16 9.75, 25.19 10.72, 25.23 11.04 C25.26 11.36, 25.26 10.72, 25.23 11.04" stroke="#000000" stroke-width="2" fill="none"></path></g><g stroke-linecap="round"><g transform="translate(621.75 351.1719868979176) rotate(0 -1 34.5)"><path d="M-0.18 -0.06 C-0.55 11.39, -2.32 56.86, -2.64 68.22 M-1.74 -1.14 C-1.67 10.49, -0.06 57.68, -0.27 69.36" stroke="#1e1e1e" stroke-width="2" fill="none"></path></g><g transform="translate(621.75 351.1719868979176) rotate(0 -1 34.5)"><path d="M-9.09 45.96 C-6.96 51.07, -5.82 58.06, -0.27 69.36 M-9.09 45.96 C-7.61 50.57, -4.71 55.95, -0.27 69.36" stroke="#1e1e1e" stroke-width="2" fill="none"></path></g><g transform="translate(621.75 351.1719868979176) rotate(0 -1 34.5)"><path d="M8.01 45.77 C5.63 50.9, 2.26 57.94, -0.27 69.36 M8.01 45.77 C5.64 50.36, 4.7 55.79, -0.27 69.36" stroke="#1e1e1e" stroke-width="2" fill="none"></path></g></g><mask></mask><g stroke-linecap="round"><g transform="translate(937.072061488841 353.1719868979176) rotate(0 0.6318679539627965 35)"><path d="M0.37 0.59 C0.48 12.33, 0.16 59.68, 0.17 71.09 M-0.9 -0.15 C-0.38 11.23, 1.68 57.88, 2.3 69.55" stroke="#1e1e1e" stroke-width="2" fill="none"></path></g><g transform="translate(937.072061488841 353.1719868979176) rotate(0 0.6318679539627965 35)"><path d="M-7.37 46.49 C-3.81 50.51, -0.49 56.8, 2.3 69.55 M-7.37 46.49 C-4.9 51.81, -2.19 57.53, 2.3 69.55" stroke="#1e1e1e" stroke-width="2" fill="none"></path></g><g transform="translate(937.072061488841 353.1719868979176) rotate(0 0.6318679539627965 35)"><path d="M9.71 45.67 C8.92 49.95, 7.88 56.45, 2.3 69.55 M9.71 45.67 C8.42 51.06, 7.37 56.97, 2.3 69.55" stroke="#1e1e1e" stroke-width="2" fill="none"></path></g></g><mask></mask><g stroke-linecap="round"><g transform="translate(296.75 353.1719868979176) rotate(0 -1.5 36)"><path d="M0.44 0.12 C-0.17 12.22, -3.5 59.56, -3.92 71.61 M-0.78 -0.86 C-1 11.49, -1.43 61.09, -1.68 72.94" stroke="#1e1e1e" stroke-width="2" fill="none"></path></g><g transform="translate(296.75 353.1719868979176) rotate(0 -1.5 36)"><path d="M-9.91 49.33 C-7.58 54.42, -6.12 64.19, -1.68 72.94 M-9.91 49.33 C-6.46 56.98, -3.92 65.52, -1.68 72.94" stroke="#1e1e1e" stroke-width="2" fill="none"></path></g><g transform="translate(296.75 353.1719868979176) rotate(0 -1.5 36)"><path d="M7.19 49.57 C4.71 54.65, 1.36 64.36, -1.68 72.94 M7.19 49.57 C4.94 56.99, 1.77 65.45, -1.68 72.94" stroke="#1e1e1e" stroke-width="2" fill="none"></path></g></g><mask></mask><g stroke-linecap="round"><g transform="translate(589.8351300962098 525.6719868979176) rotate(0 -20.55578914311684 66.625)"><path d="M-0.8 0.87 C-7.96 23.27, -35.16 111.64, -41.85 133.8 M0.99 0.28 C-5.89 22.38, -32.42 110.04, -39.53 131.96" stroke="#1e1e1e" stroke-width="2" fill="none"></path></g><g transform="translate(589.8351300962098 525.6719868979176) rotate(0 -20.55578914311684 66.625)"><path d="M-40.7 106.99 C-38.91 115.63, -38.99 126.96, -39.53 131.96 M-40.7 106.99 C-39.74 115.38, -40.68 123.97, -39.53 131.96" stroke="#1e1e1e" stroke-width="2" fill="none"></path></g><g transform="translate(589.8351300962098 525.6719868979176) rotate(0 -20.55578914311684 66.625)"><path d="M-24.37 112.08 C-29.02 118.6, -35.54 127.92, -39.53 131.96 M-24.37 112.08 C-29.09 118.57, -35.71 125.39, -39.53 131.96" stroke="#1e1e1e" stroke-width="2" fill="none"></path></g></g><mask></mask><g stroke-linecap="round"><g transform="translate(864.4149476443648 529.1719868979176) rotate(0 -135.9574738221824 77.561475778496)"><path d="M-0.18 1.02 C-45.47 26.94, -226.73 128.93, -272.11 154.79 M-1.74 0.51 C-47.17 26.67, -227.87 130.5, -273.16 156.16" stroke="#1e1e1e" stroke-width="2" fill="none"></path></g><g transform="translate(864.4149476443648 529.1719868979176) rotate(0 -135.9574738221824 77.561475778496)"><path d="M-257 137.08 C-259.76 141.84, -266.33 146.37, -273.16 156.16 M-257 137.08 C-262.73 143.64, -269.09 153.04, -273.16 156.16" stroke="#1e1e1e" stroke-width="2" fill="none"></path></g><g transform="translate(864.4149476443648 529.1719868979176) rotate(0 -135.9574738221824 77.561475778496)"><path d="M-248.52 151.93 C-253.45 152.7, -262.3 153.25, -273.16 156.16 M-248.52 151.93 C-257.61 152.66, -267.3 156.23, -273.16 156.16" stroke="#1e1e1e" stroke-width="2" fill="none"></path></g></g><mask></mask><g stroke-linecap="round"><g transform="translate(666.9711334374729 525.9219868979176) rotate(0 30.50283163197065 72.625)"><path d="M-0.7 -0.38 C9.57 23.58, 50.22 120.21, 60.56 144.42 M1.14 -1.62 C11.3 22.41, 49.44 120.91, 59.38 145.52" stroke="#1e1e1e" stroke-width="2" fill="none"></path></g><g transform="translate(666.9711334374729 525.9219868979176) rotate(0 30.50283163197065 72.625)"><path d="M42.8 126.81 C45.82 130.17, 48.61 135.49, 59.38 145.52 M42.8 126.81 C47.06 131.04, 52.42 136.83, 59.38 145.52" stroke="#1e1e1e" stroke-width="2" fill="none"></path></g><g transform="translate(666.9711334374729 525.9219868979176) rotate(0 30.50283163197065 72.625)"><path d="M58.7 120.53 C58.36 125.14, 57.75 131.8, 59.38 145.52 M58.7 120.53 C58.62 126.42, 59.67 133.92, 59.38 145.52" stroke="#1e1e1e" stroke-width="2" fill="none"></path></g></g><mask></mask><g stroke-linecap="round"><g transform="translate(945.4449368477397 530.8955155196461) rotate(0 46.97248078166774 62.0132356891358)"><path d="M0.68 0.36 C16.51 20.94, 78.31 103.7, 94.01 124.42 M-0.42 -0.49 C15.34 19.64, 77.26 101.98, 93.1 122.5" stroke="#1e1e1e" stroke-width="2" fill="none"></path></g><g transform="translate(945.4449368477397 530.8955155196461) rotate(0 46.97248078166774 62.0132356891358)"><path d="M72.07 108.99 C77.35 111.91, 81.97 116.31, 93.1 122.5 M72.07 108.99 C78.81 113.14, 87.29 118.87, 93.1 122.5" stroke="#1e1e1e" stroke-width="2" fill="none"></path></g><g transform="translate(945.4449368477397 530.8955155196461) rotate(0 46.97248078166774 62.0132356891358)"><path d="M85.68 98.63 C88.08 103.89, 89.74 110.53, 93.1 122.5 M85.68 98.63 C87.55 106.32, 91.24 115.69, 93.1 122.5" stroke="#1e1e1e" stroke-width="2" fill="none"></path></g></g><mask></mask><g stroke-linecap="round"><g transform="translate(295.24817568488464 544.1421870058172) rotate(0 49.80547692054179 57.88989994605021)"><path d="M0.88 -0.72 C17.64 18.38, 83.85 96.13, 100.29 115.66 M-0.11 1.52 C16.57 21.33, 83.23 98.31, 99.69 117.13" stroke="#1e1e1e" stroke-width="2" fill="none"></path></g><g transform="translate(295.24817568488464 544.1421870058172) rotate(0 49.80547692054179 57.88989994605021)"><path d="M77.83 105.01 C82.81 109.33, 89.86 111.36, 99.69 117.13 M77.83 105.01 C86.21 109.38, 93.43 114.04, 99.69 117.13" stroke="#1e1e1e" stroke-width="2" fill="none"></path></g><g transform="translate(295.24817568488464 544.1421870058172) rotate(0 49.80547692054179 57.88989994605021)"><path d="M90.74 93.79 C92.24 101.32, 95.71 106.46, 99.69 117.13 M90.74 93.79 C94.62 102.15, 97.27 110.8, 99.69 117.13" stroke="#1e1e1e" stroke-width="2" fill="none"></path></g></g><mask></mask><g stroke-linecap="round"><g transform="translate(224.00000000000006 768.706391167732) rotate(0 38.24999999999997 6.851029818721429)"><path d="M-0.13 -0.36 C12.73 1.94, 64.62 10.76, 77.43 12.94 M-1.66 -1.6 C11.1 0.92, 64.02 11.56, 76.96 14.08" stroke="#1e1e1e" stroke-width="2" fill="none"></path></g><g transform="translate(224.00000000000006 768.706391167732) rotate(0 38.24999999999997 6.851029818721429)"><path d="M52.26 17.9 C59.61 18.24, 66.88 15.77, 76.96 14.08 M52.26 17.9 C58.26 16.8, 62.45 17.26, 76.96 14.08" stroke="#1e1e1e" stroke-width="2" fill="none"></path></g><g transform="translate(224.00000000000006 768.706391167732) rotate(0 38.24999999999997 6.851029818721429)"><path d="M55.58 1.12 C61.75 6.85, 67.94 9.76, 76.96 14.08 M55.58 1.12 C60.86 3.61, 64.33 7.69, 76.96 14.08" stroke="#1e1e1e" stroke-width="2" fill="none"></path></g></g><mask></mask><g stroke-linecap="round"><g transform="translate(619.4586958916192 122.9401034456044) rotate(0 -2.0418244074066365 55.61594172615659)"><path d="M0.39 0.89 C-0.27 19.26, -2.48 92.64, -3.39 111.15 M-0.86 0.3 C-1.68 18.8, -3.67 94.37, -3.97 112.65" stroke="#1e1e1e" stroke-width="2" fill="none"></path></g><g transform="translate(619.4586958916192 122.9401034456044) rotate(0 -2.0418244074066365 55.61594172615659)"><path d="M-11.99 88.97 C-7.53 98.4, -6.33 103.91, -3.97 112.65 M-11.99 88.97 C-8.72 97.63, -6.44 106.5, -3.97 112.65" stroke="#1e1e1e" stroke-width="2" fill="none"></path></g><g transform="translate(619.4586958916192 122.9401034456044) rotate(0 -2.0418244074066365 55.61594172615659)"><path d="M5.11 89.35 C3.57 98.71, -1.22 104.08, -3.97 112.65 M5.11 89.35 C2.25 97.94, -1.59 106.67, -3.97 112.65" stroke="#1e1e1e" stroke-width="2" fill="none"></path></g></g><mask></mask><g stroke-linecap="round"><g transform="translate(644.4457339765495 120.17198689791758) rotate(0 100.65213301172525 58.94952676927713)"><path d="M1.01 0.18 C34.71 19.93, 168.93 99.08, 202.17 118.83 M0.08 -0.77 C33.7 18.63, 167.88 97.61, 201.68 117.2" stroke="#1e1e1e" stroke-width="2" fill="none"></path></g><g transform="translate(644.4457339765495 120.17198689791758) rotate(0 100.65213301172525 58.94952676927713)"><path d="M177.08 112.72 C184.68 115.28, 193.2 113.72, 201.68 117.2 M177.08 112.72 C186.31 113.6, 194.13 115.77, 201.68 117.2" stroke="#1e1e1e" stroke-width="2" fill="none"></path></g><g transform="translate(644.4457339765495 120.17198689791758) rotate(0 100.65213301172525 58.94952676927713)"><path d="M185.71 97.96 C190.79 104.96, 196.76 107.76, 201.68 117.2 M185.71 97.96 C191.9 104.21, 196.57 111.78, 201.68 117.2" stroke="#1e1e1e" stroke-width="2" fill="none"></path></g></g><mask></mask><g stroke-linecap="round"><g transform="translate(600.2230991819736 119.23614617828363) rotate(0 -123.73654959098678 55.390376905492815)"><path d="M-0.8 0.53 C-42.02 18.76, -207.2 91.42, -248.47 109.84 M0.98 -0.24 C-39.78 18.07, -205.12 92.1, -246.29 110.89" stroke="#1e1e1e" stroke-width="2" fill="none"></path></g><g transform="translate(600.2230991819736 119.23614617828363) rotate(0 -123.73654959098678 55.390376905492815)"><path d="M-228.39 93.43 C-231.08 95.18, -237.15 98.8, -246.29 110.89 M-228.39 93.43 C-234.36 99.02, -239.23 105.22, -246.29 110.89" stroke="#1e1e1e" stroke-width="2" fill="none"></path></g><g transform="translate(600.2230991819736 119.23614617828363) rotate(0 -123.73654959098678 55.390376905492815)"><path d="M-221.36 109.02 C-225.53 107.56, -233.03 108.02, -246.29 110.89 M-221.36 109.02 C-229.71 109.6, -236.86 110.77, -246.29 110.89" stroke="#1e1e1e" stroke-width="2" fill="none"></path></g></g><mask></mask><g stroke-linecap="round"><g transform="translate(515.0618994765944 521.1656876043505) rotate(0 -190.20839821847392 70.37814964678353)"><path d="M1.03 1.01 C-62.32 24.46, -317.26 117.6, -380.78 140.83 M0.1 0.5 C-63.38 24.14, -318.45 118.91, -381.92 142.41" stroke="#1e1e1e" stroke-width="2" fill="none"></path></g><g transform="translate(515.0618994765944 521.1656876043505) rotate(0 -190.20839821847392 70.37814964678353)"><path d="M-362.87 126.22 C-365.79 129.71, -371.99 134.76, -381.92 142.41 M-362.87 126.22 C-367.27 131.37, -372.69 135.68, -381.92 142.41" stroke="#1e1e1e" stroke-width="2" fill="none"></path></g><g transform="translate(515.0618994765944 521.1656876043505) rotate(0 -190.20839821847392 70.37814964678353)"><path d="M-356.92 142.25 C-361.31 141.9, -368.95 143.05, -381.92 142.41 M-356.92 142.25 C-362.83 143.15, -369.85 143.15, -381.92 142.41" stroke="#1e1e1e" stroke-width="2" fill="none"></path></g></g><mask></mask><g stroke-linecap="round"><g transform="translate(826.25 497.13898632638524) rotate(0 -311.44404503730107 83.14150028576617)"><path d="M0.85 1.03 C-102.66 28.77, -518.25 138.62, -622.19 165.98 M-0.16 0.53 C-103.67 28.48, -518.88 139.79, -622.78 167.35" stroke="#1e1e1e" stroke-width="2" fill="none"></path></g><g transform="translate(826.25 497.13898632638524) rotate(0 -311.44404503730107 83.14150028576617)"><path d="M-602.29 153.03 C-604.79 157.25, -611.19 159.14, -622.78 167.35 M-602.29 153.03 C-605.96 157.18, -611.1 159.16, -622.78 167.35" stroke="#1e1e1e" stroke-width="2" fill="none"></path></g><g transform="translate(826.25 497.13898632638524) rotate(0 -311.44404503730107 83.14150028576617)"><path d="M-597.88 169.56 C-601.22 170.44, -608.52 168.96, -622.78 167.35 M-597.88 169.56 C-602.33 170.33, -608.39 168.89, -622.78 167.35" stroke="#1e1e1e" stroke-width="2" fill="none"></path></g></g><mask></mask><g stroke-linecap="round"><g transform="translate(736.589059752501 506.4219868979176) rotate(0 211.33047012374948 50.43278605331926)"><path d="M0.45 -0.41 C31.73 11.95, 117.26 57.32, 187.79 74.23 C258.32 91.13, 384.5 96.46, 423.63 101.01 M-0.77 -1.67 C30.43 10.33, 116.65 55.05, 187.34 72.4 C258.03 89.74, 384.14 97.91, 423.38 102.41" stroke="#1e1e1e" stroke-width="2" fill="none"></path></g><g transform="translate(736.589059752501 506.4219868979176) rotate(0 211.33047012374948 50.43278605331926)"><path d="M399.19 108.71 C406.01 108.26, 415.13 106.33, 423.38 102.41 M399.19 108.71 C406 106.73, 414.14 105.06, 423.38 102.41" stroke="#1e1e1e" stroke-width="2" fill="none"></path></g><g transform="translate(736.589059752501 506.4219868979176) rotate(0 211.33047012374948 50.43278605331926)"><path d="M400.8 91.69 C407.13 96.53, 415.75 99.88, 423.38 102.41 M400.8 91.69 C407.09 95.03, 414.73 98.67, 423.38 102.41" stroke="#1e1e1e" stroke-width="2" fill="none"></path></g></g><mask></mask><g stroke-linecap="round"><g transform="translate(1049.6666666666665 509.2975695391856) rotate(0 53.125 29.565253000716524)"><path d="M-0.9 -0.91 C16.66 8.88, 87.52 48.57, 105.27 58.54 M0.83 1.23 C18.76 11.19, 90.19 49.95, 107.47 59.77" stroke="#1e1e1e" stroke-width="2" fill="none"></path></g><g transform="translate(1049.6666666666665 509.2975695391856) rotate(0 53.125 29.565253000716524)"><path d="M82.78 55.88 C88.52 55.58, 96.31 57.34, 107.47 59.77 M82.78 55.88 C89.17 57.04, 97.76 57.73, 107.47 59.77" stroke="#1e1e1e" stroke-width="2" fill="none"></path></g><g transform="translate(1049.6666666666665 509.2975695391856) rotate(0 53.125 29.565253000716524)"><path d="M91.06 40.92 C94.34 44.95, 99.7 51.11, 107.47 59.77 M91.06 40.92 C95.12 46.31, 101.35 51.28, 107.47 59.77" stroke="#1e1e1e" stroke-width="2" fill="none"></path></g></g><mask></mask><g stroke-linecap="round"><g transform="translate(469.66666666666663 392.58865356458443) rotate(0 -148.75 135)"><path d="M-1 -0.22 C-10.09 29.09, -5.47 130.98, -54.77 175.85 C-104.07 220.72, -256.32 253.25, -296.81 268.99 M0.67 -1.39 C-8.53 27.6, -5.95 128.98, -55.6 174.18 C-105.24 219.37, -256.89 253.55, -297.21 269.77" stroke="#1e1e1e" stroke-width="2" fill="none"></path></g><g transform="translate(469.66666666666663 392.58865356458443) rotate(0 -148.75 135)"><path d="M-277.41 254.5 C-283.31 258.98, -287.05 264.01, -297.21 269.77 M-277.41 254.5 C-280.87 257.39, -285.83 261.57, -297.21 269.77" stroke="#1e1e1e" stroke-width="2" fill="none"></path></g><g transform="translate(469.66666666666663 392.58865356458443) rotate(0 -148.75 135)"><path d="M-272.23 270.8 C-279.57 270.69, -284.75 271.17, -297.21 269.77 M-272.23 270.8 C-276.78 270.18, -282.86 270.85, -297.21 269.77" stroke="#1e1e1e" stroke-width="2" fill="none"></path></g></g><mask></mask><g stroke-linecap="round"><g transform="translate(472.16666666666663 388.83865356458443) rotate(0 216.25 -1.25)"><path d="M0.3 0.29 C25.73 0.2, 80.8 0.18, 152.71 -0.12 C224.61 -0.43, 385.12 -1.19, 431.73 -1.54 M-1 -0.6 C24.79 -1.04, 82.34 -1.19, 154.87 -1.65 C227.41 -2.12, 387.94 -3.49, 434.21 -3.38" stroke="#1e1e1e" stroke-width="2" fill="none"></path></g></g><mask></mask><g stroke-linecap="round"><g transform="translate(550.9166666666666 387.58865356458443) rotate(0 0 -18.75)"><path d="M0.05 -0.36 C0.04 -6.46, 0.38 -30.77, 0.43 -37.01 M-0.59 0.65 C-0.68 -5.56, 0.09 -31.39, 0.23 -37.72" stroke="#1e1e1e" stroke-width="2" fill="none"></path></g></g><mask></mask><g stroke-linecap="round"><g transform="translate(905.9166666666666 385.08865356458443) rotate(0 0 -18.75)"><path d="M0.11 -0.49 C0.13 -6.79, 0.15 -31.78, 0.12 -37.87 M-0.49 0.45 C-0.54 -5.78, -0.25 -30.98, -0.25 -37.36" stroke="#1e1e1e" stroke-width="2" fill="none"></path></g></g><mask></mask></svg>